{"glyphs":{"0":{"ha":446,"x_min":82,"x_max":365,"o":"m 232 -10 q 209 -3 226 -10 q 188 8 192 4 q 99 267 119 60 q 85 460 89 364 q 82 703 82 556 l 82 814 q 83 925 83 864 q 88 983 83 960 q 94 1006 89 999 q 113 1028 99 1014 q 182 1046 132 1046 q 333 824 307 1046 q 365 333 365 588 q 361 197 365 249 q 338 76 356 133 q 314 30 328 47 q 279 1 300 13 q 232 -10 257 -10 m 244 22 q 303 88 282 22 q 325 218 322 156 q 329 321 329 296 q 321 515 329 365 q 313 706 313 664 l 313 739 q 293 871 308 822 q 267 945 282 914 q 231 996 253 976 q 172 1015 206 1015 q 126 999 139 1015 q 113 947 113 982 q 114 925 113 935 l 114 901 l 117 772 l 119 642 l 119 506 q 128 333 119 425 q 164 125 136 219 q 198 50 176 78 q 244 22 219 22 z "},"1":{"ha":382,"x_min":38,"x_max":338,"o":"m 83 4 q 67 10 72 4 q 61 31 61 15 q 65 40 61 35 q 72 44 68 44 l 113 44 l 151 43 q 180 48 174 43 q 186 71 186 53 q 156 871 186 394 l 156 915 l 157 960 q 153 991 157 982 q 136 1003 149 1000 q 93 1006 124 1006 q 78 1004 85 1006 l 61 1003 q 38 1018 38 1003 q 45 1029 38 1025 q 65 1035 53 1033 q 175 1038 85 1038 q 191 1031 185 1038 q 197 1015 197 1024 l 197 972 q 201 842 197 929 l 204 710 q 214 514 204 681 q 222 244 222 333 l 222 226 l 226 150 l 229 69 l 228 58 l 226 49 l 232 44 l 264 47 q 294 49 278 49 q 338 29 338 49 q 307 10 338 10 l 196 7 q 83 4 140 4 z "},"2":{"ha":469,"x_min":82,"x_max":349,"o":"m 115 -11 q 92 -3 101 -11 q 82 17 82 4 l 156 186 q 276 522 238 364 q 315 847 315 679 q 229 1047 315 1047 q 199 1019 211 1039 q 185 976 188 999 q 161 926 179 926 q 143 940 147 926 l 143 954 q 175 1053 143 1011 q 215 1075 192 1075 q 309 1032 272 1075 q 347 926 346 989 l 346 924 q 347 872 346 896 q 349 822 349 850 q 317 544 349 707 q 243 285 286 381 l 203 194 l 172 125 q 140 49 149 71 q 136 33 136 39 q 144 26 136 26 q 311 42 219 40 q 331 19 331 42 q 318 1 331 1 l 219 -4 q 115 -11 143 -11 z "},"3":{"ha":461,"x_min":61,"x_max":356,"o":"m 229 -1 q 171 13 199 -1 q 143 50 143 28 l 153 57 q 174 51 163 57 q 196 38 185 46 q 213 25 200 33 q 318 201 318 25 q 313 357 318 296 q 297 435 307 401 q 269 507 288 469 q 224 572 253 542 l 218 572 l 210 571 q 183 576 200 571 l 183 582 l 176 589 q 192 610 181 597 q 216 639 196 615 q 253 699 236 663 q 265 767 265 735 q 258 876 265 826 q 244 944 253 917 q 218 990 235 971 q 176 1011 200 1011 q 140 999 156 1011 q 118 972 124 988 q 86 932 104 932 q 70 938 78 932 q 61 951 63 943 q 113 1022 85 999 q 181 1044 140 1044 q 215 1035 199 1044 q 243 1011 232 1026 l 247 1010 q 303 747 303 929 q 278 669 303 714 q 256 638 274 667 q 232 603 244 619 q 308 519 288 582 q 336 399 322 476 q 346 344 339 369 q 354 297 353 307 q 356 249 356 286 q 351 161 356 199 q 331 69 347 111 q 275 8 313 26 q 229 -1 256 -1 z "},"4":{"ha":415,"x_min":101,"x_max":347,"o":"m 243 -8 l 243 42 l 242 44 q 247 94 247 65 q 243 165 247 118 q 238 236 238 208 l 239 267 q 240 299 240 281 q 226 360 240 351 q 186 356 211 360 q 144 351 158 351 q 126 353 132 351 q 115 361 118 358 l 107 367 l 107 371 q 115 415 107 378 l 101 443 q 108 476 101 453 q 115 511 115 501 q 121 647 115 565 q 128 783 128 722 l 128 1004 q 125 1022 128 1014 l 122 1039 q 139 1057 122 1057 q 156 1051 149 1057 q 164 1038 164 1046 q 161 982 164 1007 l 158 926 q 163 879 158 903 l 160 875 q 163 836 163 858 q 154 661 163 778 q 146 486 146 544 q 151 465 146 478 q 156 446 156 453 q 151 428 156 439 q 146 408 146 417 q 160 382 146 382 q 197 386 172 382 q 231 394 221 390 q 219 694 231 428 q 214 749 219 715 q 208 806 208 799 q 217 818 208 814 q 235 822 225 822 l 247 807 q 251 710 247 775 q 256 611 256 643 q 260 479 256 558 q 269 394 264 400 l 294 397 q 321 400 307 400 q 347 385 347 400 q 336 369 347 374 q 310 368 325 365 q 281 362 293 369 q 269 338 269 354 q 274 197 269 282 q 282 103 278 113 q 281 96 282 101 q 281 79 281 90 q 288 46 281 57 l 282 29 l 288 19 l 288 0 l 264 -17 l 243 -8 z "},"5":{"ha":439,"x_min":88,"x_max":357,"o":"m 242 -14 q 174 8 174 -14 q 200 24 174 24 q 218 18 207 24 q 235 13 228 13 q 274 38 256 13 q 303 100 292 63 q 322 222 322 175 q 308 458 322 321 q 276 592 299 535 q 222 646 254 646 l 190 646 l 183 642 l 182 642 l 179 643 q 164 636 178 643 q 149 631 150 631 q 128 637 136 631 q 118 653 121 643 q 117 663 117 657 q 115 675 117 669 l 115 696 q 121 767 121 731 q 106 917 121 813 q 88 1061 90 1008 l 103 1075 l 208 1076 l 211 1076 q 251 1057 251 1076 l 235 1044 l 206 1044 l 203 1042 l 146 1049 l 138 1046 l 132 1047 q 136 972 132 1021 q 142 915 140 921 q 160 682 146 843 l 157 681 l 182 678 q 278 656 261 668 q 323 564 303 638 q 350 414 343 490 q 357 297 357 356 q 354 201 357 242 q 338 100 351 151 q 318 53 329 72 q 290 17 307 33 q 253 -14 275 0 l 242 -14 m 132 907 q 131 906 131 907 q 131 906 131 906 l 132 907 z "},"6":{"ha":435,"x_min":108,"x_max":333,"o":"m 238 -19 q 192 -5 213 -19 q 163 33 172 10 q 138 146 143 74 l 135 181 q 129 250 133 215 q 108 547 108 403 l 108 553 q 111 676 108 614 q 126 847 113 742 q 165 999 135 926 q 242 1064 193 1064 q 253 1060 247 1064 q 260 1051 260 1056 q 229 1024 260 1039 q 211 1015 226 1022 q 174 912 192 999 q 151 739 157 825 l 144 608 q 175 619 163 619 q 253 578 222 619 q 299 474 288 524 q 324 340 318 394 l 326 306 q 332 210 332 239 q 333 157 333 186 l 333 115 q 325 39 333 69 q 281 -11 313 3 q 238 -19 263 -19 m 249 8 q 300 118 300 8 q 294 275 300 196 q 264 483 289 388 q 233 561 253 533 q 186 589 213 589 q 144 514 144 563 l 144 493 q 179 113 144 317 q 182 93 179 113 l 189 53 q 207 22 193 36 q 249 8 221 8 z "},"7":{"ha":407,"x_min":111,"x_max":301,"o":"m 113 -3 q 128 65 113 24 l 138 97 q 177 308 161 197 q 213 597 193 418 l 238 822 l 247 886 q 261 1028 261 968 q 214 1036 261 1036 q 172 1035 190 1036 l 132 1032 l 111 1046 l 122 1058 l 197 1061 q 269 1063 229 1063 q 288 1055 279 1063 q 301 1038 297 1047 q 292 975 292 1014 q 290 946 292 953 q 228 458 282 839 q 161 58 174 78 l 163 47 q 153 3 163 25 q 129 -18 143 -18 l 113 -3 z "},"8":{"ha":404,"x_min":88,"x_max":329,"o":"m 213 -53 q 168 -34 188 -53 q 139 17 149 -15 q 118 126 118 78 q 164 513 118 338 l 172 536 q 183 589 183 569 q 178 618 183 597 l 163 668 l 151 699 q 88 978 88 897 q 106 1054 88 1022 q 169 1092 124 1092 l 194 1092 l 207 1086 q 232 1071 224 1079 q 242 1057 240 1063 q 268 903 268 999 q 240 683 268 824 l 221 589 q 232 554 221 582 q 238 539 238 540 q 329 71 329 264 q 328 54 329 61 l 325 38 l 326 31 q 279 -34 304 -15 q 213 -53 254 -53 m 196 657 q 236 906 236 786 q 219 1026 236 976 q 186 1061 207 1061 l 179 1061 q 172 1060 176 1060 q 154 1064 161 1060 q 122 975 122 1039 q 135 870 122 946 q 166 730 149 794 q 196 657 183 665 m 213 -26 q 276 3 256 -26 q 296 81 296 32 q 243 406 296 217 l 233 449 q 206 535 221 508 q 165 365 181 500 q 150 114 150 229 q 169 40 150 88 l 168 36 q 182 -7 169 13 q 213 -26 194 -26 z "},"9":{"ha":400,"x_min":33,"x_max":285,"o":"m 226 -18 q 239 106 239 18 l 242 300 q 246 493 246 429 l 244 568 q 243 643 243 601 l 233 640 q 147 671 186 646 q 83 732 108 696 q 33 893 33 806 q 74 1031 33 976 q 185 1086 115 1086 q 237 1076 208 1086 q 275 1051 265 1065 q 285 829 285 1036 l 285 747 q 283 665 283 711 q 278 638 283 653 q 274 610 274 621 l 271 376 q 269 142 269 272 q 264 90 269 122 q 260 39 260 56 q 261 24 260 29 l 261 7 q 238 -32 261 -32 l 226 -18 m 244 679 q 251 976 251 815 q 236 1039 251 1018 q 186 1060 221 1060 q 100 1024 129 1060 q 71 926 71 988 q 92 817 71 872 q 147 721 113 761 q 225 676 186 681 l 244 679 z "},"\u0000":{"ha":0,"x_min":0,"x_max":0,"o":""},"\r":{"ha":238,"x_min":0,"x_max":0,"o":""}," ":{"ha":238,"x_min":0,"x_max":0,"o":""},"A":{"ha":490,"x_min":47,"x_max":396,"o":"m 365 0 q 347 7 354 0 q 339 24 339 14 l 339 206 q 268 236 339 222 q 151 250 197 250 q 142 229 149 250 q 133 199 136 208 q 97 44 115 126 l 90 14 q 76 3 88 3 q 56 10 65 3 q 47 26 47 17 l 49 29 l 49 31 l 64 100 q 93 228 81 165 q 114 319 107 299 q 158 549 125 365 l 167 594 q 217 864 203 808 q 242 963 224 897 q 261 1018 249 990 q 282 1042 274 1042 q 314 1028 304 1042 q 335 890 321 1015 q 361 638 350 765 l 379 407 q 388 226 379 347 q 396 44 396 104 l 396 39 q 392 11 396 24 q 365 0 386 0 m 310 268 q 338 282 338 268 q 328 517 338 368 q 307 781 318 667 q 296 888 304 829 l 290 942 q 288 957 290 940 l 285 974 q 263 889 274 943 q 242 761 253 835 q 185 450 208 554 l 172 403 q 151 297 151 333 l 151 289 q 292 269 213 269 l 300 269 q 310 268 304 268 z "},"Á":{"ha":490,"x_min":47,"x_max":489,"o":"m 365 0 q 347 7 354 0 q 339 24 339 14 l 339 206 q 268 236 339 222 q 151 250 197 250 q 142 229 149 250 q 133 199 136 208 q 97 44 115 126 l 90 14 q 76 3 88 3 q 56 10 65 3 q 47 26 47 17 l 49 29 l 49 31 l 64 100 q 93 228 81 165 q 114 319 107 299 q 158 549 125 365 l 167 594 q 217 864 203 808 q 242 963 224 897 q 261 1018 249 990 q 282 1042 274 1042 q 314 1028 304 1042 q 335 890 321 1015 q 361 638 350 765 l 379 407 q 388 226 379 347 q 396 44 396 104 l 396 39 q 392 11 396 24 q 365 0 386 0 m 310 268 q 338 282 338 268 q 328 517 338 368 q 307 781 318 667 q 296 888 304 829 l 290 942 q 288 957 290 940 l 285 974 q 263 889 274 943 q 242 761 253 835 q 185 450 208 554 l 172 403 q 151 297 151 333 l 151 289 q 292 269 213 269 l 300 269 q 310 268 304 268 m 311 1113 q 294 1118 301 1113 q 286 1132 286 1124 q 325 1168 286 1136 l 369 1204 l 407 1233 q 458 1274 454 1269 q 489 1253 489 1274 l 485 1231 q 311 1113 413 1197 z "},"Ă":{"ha":490,"x_min":47,"x_max":415,"o":"m 365 0 q 347 7 354 0 q 339 24 339 14 l 339 206 q 268 236 339 222 q 151 250 197 250 q 142 229 149 250 q 133 199 136 208 q 97 44 115 126 l 90 14 q 76 3 88 3 q 56 10 65 3 q 47 26 47 17 l 49 29 l 49 31 l 64 100 q 93 228 81 165 q 114 319 107 299 q 158 549 125 365 l 167 594 q 217 864 203 808 q 242 963 224 897 q 261 1018 249 990 q 282 1042 274 1042 q 314 1028 304 1042 q 335 890 321 1015 q 361 638 350 765 l 379 407 q 388 226 379 347 q 396 44 396 104 l 396 39 q 392 11 396 24 q 365 0 386 0 m 310 268 q 338 282 338 268 q 328 517 338 368 q 307 781 318 667 q 296 888 304 829 l 290 942 q 288 957 290 940 l 285 974 q 263 889 274 943 q 242 761 253 835 q 185 450 208 554 l 172 403 q 151 297 151 333 l 151 289 q 292 269 213 269 l 300 269 q 310 268 304 268 m 311 1100 q 231 1147 256 1100 q 210 1242 210 1192 l 225 1254 q 239 1232 235 1251 q 274 1143 250 1160 l 289 1132 l 324 1132 q 356 1156 340 1132 q 371 1203 371 1181 l 371 1213 q 369 1222 369 1217 q 394 1249 369 1249 q 408 1242 401 1249 q 415 1229 415 1236 l 413 1217 l 408 1207 l 411 1197 q 407 1187 410 1193 q 401 1174 404 1181 q 378 1131 388 1143 q 363 1114 371 1119 q 342 1104 356 1108 q 311 1100 326 1100 z "},"Ắ":{"ha":490,"x_min":47,"x_max":489,"o":"m 365 0 q 347 7 354 0 q 339 24 339 14 l 339 206 q 268 236 339 222 q 151 250 197 250 q 142 229 149 250 q 133 199 136 208 q 97 44 115 126 l 90 14 q 76 3 88 3 q 56 10 65 3 q 47 26 47 17 l 49 29 l 49 31 l 64 100 q 93 228 81 165 q 114 319 107 299 q 158 549 125 365 l 167 594 q 217 864 203 808 q 242 963 224 897 q 261 1018 249 990 q 282 1042 274 1042 q 314 1028 304 1042 q 335 890 321 1015 q 361 638 350 765 l 379 407 q 388 226 379 347 q 396 44 396 104 l 396 39 q 392 11 396 24 q 365 0 386 0 m 310 268 q 338 282 338 268 q 328 517 338 368 q 307 781 318 667 q 296 888 304 829 l 290 942 q 288 957 290 940 l 285 974 q 263 889 274 943 q 242 761 253 835 q 185 450 208 554 l 172 403 q 151 297 151 333 l 151 289 q 292 269 213 269 l 300 269 q 310 268 304 268 m 311 1100 q 231 1147 256 1100 q 210 1242 210 1192 l 225 1254 q 239 1232 235 1251 q 274 1143 250 1160 l 289 1132 l 324 1132 q 356 1156 340 1132 q 371 1203 371 1181 l 371 1213 q 369 1222 369 1217 q 394 1249 369 1249 q 408 1242 401 1249 q 415 1229 415 1236 l 413 1217 l 408 1207 l 411 1197 q 407 1187 410 1193 q 401 1174 404 1181 q 378 1131 388 1143 q 363 1114 371 1119 q 342 1104 356 1108 q 311 1100 326 1100 m 311 1319 q 294 1325 301 1319 q 286 1339 286 1331 q 325 1375 286 1343 l 369 1411 l 407 1440 q 458 1481 454 1476 q 489 1460 489 1481 l 485 1438 q 311 1319 413 1404 z "},"Ặ":{"ha":490,"x_min":47,"x_max":415,"o":"m 365 0 q 347 7 354 0 q 339 24 339 14 l 339 206 q 268 236 339 222 q 151 250 197 250 q 142 229 149 250 q 133 199 136 208 q 97 44 115 126 l 90 14 q 76 3 88 3 q 56 10 65 3 q 47 26 47 17 l 49 29 l 49 31 l 64 100 q 93 228 81 165 q 114 319 107 299 q 158 549 125 365 l 167 594 q 217 864 203 808 q 242 963 224 897 q 261 1018 249 990 q 282 1042 274 1042 q 314 1028 304 1042 q 335 890 321 1015 q 361 638 350 765 l 379 407 q 388 226 379 347 q 396 44 396 104 l 396 39 q 392 11 396 24 q 365 0 386 0 m 310 268 q 338 282 338 268 q 328 517 338 368 q 307 781 318 667 q 296 888 304 829 l 290 942 q 288 957 290 940 l 285 974 q 263 889 274 943 q 242 761 253 835 q 185 450 208 554 l 172 403 q 151 297 151 333 l 151 289 q 292 269 213 269 l 300 269 q 310 268 304 268 m 242 -162 q 220 -152 229 -162 q 211 -129 211 -142 q 222 -103 211 -115 q 247 -92 233 -92 q 270 -103 260 -92 q 281 -128 281 -115 q 242 -162 281 -162 m 311 1100 q 231 1147 256 1100 q 210 1242 210 1192 l 225 1254 q 239 1232 235 1251 q 274 1143 250 1160 l 289 1132 l 324 1132 q 356 1156 340 1132 q 371 1203 371 1181 l 371 1213 q 369 1222 369 1217 q 394 1249 369 1249 q 408 1242 401 1249 q 415 1229 415 1236 l 413 1217 l 408 1207 l 411 1197 q 407 1187 410 1193 q 401 1174 404 1181 q 378 1131 388 1143 q 363 1114 371 1119 q 342 1104 356 1108 q 311 1100 326 1100 z "},"Ằ":{"ha":490,"x_min":47,"x_max":415,"o":"m 365 0 q 347 7 354 0 q 339 24 339 14 l 339 206 q 268 236 339 222 q 151 250 197 250 q 142 229 149 250 q 133 199 136 208 q 97 44 115 126 l 90 14 q 76 3 88 3 q 56 10 65 3 q 47 26 47 17 l 49 29 l 49 31 l 64 100 q 93 228 81 165 q 114 319 107 299 q 158 549 125 365 l 167 594 q 217 864 203 808 q 242 963 224 897 q 261 1018 249 990 q 282 1042 274 1042 q 314 1028 304 1042 q 335 890 321 1015 q 361 638 350 765 l 379 407 q 388 226 379 347 q 396 44 396 104 l 396 39 q 392 11 396 24 q 365 0 386 0 m 310 268 q 338 282 338 268 q 328 517 338 368 q 307 781 318 667 q 296 888 304 829 l 290 942 q 288 957 290 940 l 285 974 q 263 889 274 943 q 242 761 253 835 q 185 450 208 554 l 172 403 q 151 297 151 333 l 151 289 q 292 269 213 269 l 300 269 q 310 268 304 268 m 311 1100 q 231 1147 256 1100 q 210 1242 210 1192 l 225 1254 q 239 1232 235 1251 q 274 1143 250 1160 l 289 1132 l 324 1132 q 356 1156 340 1132 q 371 1203 371 1181 l 371 1213 q 369 1222 369 1217 q 394 1249 369 1249 q 408 1242 401 1249 q 415 1229 415 1236 l 413 1217 l 408 1207 l 411 1197 q 407 1187 410 1193 q 401 1174 404 1181 q 378 1131 388 1143 q 363 1114 371 1119 q 342 1104 356 1108 q 311 1100 326 1100 m 365 1281 q 301 1316 344 1292 q 235 1354 258 1340 l 213 1356 q 171 1388 171 1364 q 185 1421 171 1411 l 193 1418 q 243 1394 235 1413 q 260 1386 243 1393 l 310 1356 q 361 1319 340 1336 q 383 1290 383 1301 q 365 1281 383 1281 z "},"Ẳ":{"ha":490,"x_min":47,"x_max":415,"o":"m 365 0 q 347 7 354 0 q 339 24 339 14 l 339 206 q 268 236 339 222 q 151 250 197 250 q 142 229 149 250 q 133 199 136 208 q 97 44 115 126 l 90 14 q 76 3 88 3 q 56 10 65 3 q 47 26 47 17 l 49 29 l 49 31 l 64 100 q 93 228 81 165 q 114 319 107 299 q 158 549 125 365 l 167 594 q 217 864 203 808 q 242 963 224 897 q 261 1018 249 990 q 282 1042 274 1042 q 314 1028 304 1042 q 335 890 321 1015 q 361 638 350 765 l 379 407 q 388 226 379 347 q 396 44 396 104 l 396 39 q 392 11 396 24 q 365 0 386 0 m 310 268 q 338 282 338 268 q 328 517 338 368 q 307 781 318 667 q 296 888 304 829 l 290 942 q 288 957 290 940 l 285 974 q 263 889 274 943 q 242 761 253 835 q 185 450 208 554 l 172 403 q 151 297 151 333 l 151 289 q 292 269 213 269 l 300 269 q 310 268 304 268 m 311 1100 q 231 1147 256 1100 q 210 1242 210 1192 l 225 1254 q 239 1232 235 1251 q 274 1143 250 1160 l 289 1132 l 324 1132 q 356 1156 340 1132 q 371 1203 371 1181 l 371 1213 q 369 1222 369 1217 q 394 1249 369 1249 q 408 1242 401 1249 q 415 1229 415 1236 l 413 1217 l 408 1207 l 411 1197 q 407 1187 410 1193 q 401 1174 404 1181 q 378 1131 388 1143 q 363 1114 371 1119 q 342 1104 356 1108 q 311 1100 326 1100 m 321 1274 q 306 1290 307 1274 l 306 1297 q 314 1315 306 1307 q 338 1333 322 1324 q 349 1342 340 1335 q 363 1354 358 1349 q 367 1365 367 1360 q 322 1392 367 1392 q 283 1385 296 1392 q 271 1363 271 1379 q 274 1344 271 1358 q 260 1342 265 1342 q 240 1365 240 1342 q 260 1403 240 1388 q 322 1419 281 1419 q 383 1406 365 1419 q 401 1365 401 1392 q 393 1344 401 1353 q 365 1321 385 1335 q 344 1305 351 1311 q 338 1292 338 1299 l 338 1282 q 321 1274 329 1274 z "},"Ẵ":{"ha":490,"x_min":47,"x_max":460,"o":"m 365 0 q 347 7 354 0 q 339 24 339 14 l 339 206 q 268 236 339 222 q 151 250 197 250 q 142 229 149 250 q 133 199 136 208 q 97 44 115 126 l 90 14 q 76 3 88 3 q 56 10 65 3 q 47 26 47 17 l 49 29 l 49 31 l 64 100 q 93 228 81 165 q 114 319 107 299 q 158 549 125 365 l 167 594 q 217 864 203 808 q 242 963 224 897 q 261 1018 249 990 q 282 1042 274 1042 q 314 1028 304 1042 q 335 890 321 1015 q 361 638 350 765 l 379 407 q 388 226 379 347 q 396 44 396 104 l 396 39 q 392 11 396 24 q 365 0 386 0 m 310 268 q 338 282 338 268 q 328 517 338 368 q 307 781 318 667 q 296 888 304 829 l 290 942 q 288 957 290 940 l 285 974 q 263 889 274 943 q 242 761 253 835 q 185 450 208 554 l 172 403 q 151 297 151 333 l 151 289 q 292 269 213 269 l 300 269 q 310 268 304 268 m 311 1100 q 231 1147 256 1100 q 210 1242 210 1192 l 225 1254 q 239 1232 235 1251 q 274 1143 250 1160 l 289 1132 l 324 1132 q 356 1156 340 1132 q 371 1203 371 1181 l 371 1213 q 369 1222 369 1217 q 394 1249 369 1249 q 408 1242 401 1249 q 415 1229 415 1236 l 413 1217 l 408 1207 l 411 1197 q 407 1187 410 1193 q 401 1174 404 1181 q 378 1131 388 1143 q 363 1114 371 1119 q 342 1104 356 1108 q 311 1100 326 1100 m 193 1297 q 176 1305 185 1297 q 167 1321 167 1313 q 190 1390 167 1364 q 249 1417 214 1417 q 307 1389 283 1417 q 342 1351 318 1368 q 386 1335 365 1335 q 422 1385 422 1335 l 419 1399 l 414 1411 q 428 1419 418 1419 q 451 1406 443 1419 q 460 1372 460 1392 q 438 1321 460 1343 q 386 1299 415 1299 q 339 1313 364 1299 q 299 1342 314 1326 q 263 1381 288 1351 l 253 1385 q 217 1374 232 1385 q 201 1347 201 1363 l 208 1318 l 193 1297 z "},"Ǎ":{"ha":490,"x_min":47,"x_max":410,"o":"m 365 0 q 347 7 354 0 q 339 24 339 14 l 339 206 q 268 236 339 222 q 151 250 197 250 q 142 229 149 250 q 133 199 136 208 q 97 44 115 126 l 90 14 q 76 3 88 3 q 56 10 65 3 q 47 26 47 17 l 49 29 l 49 31 l 64 100 q 93 228 81 165 q 114 319 107 299 q 158 549 125 365 l 167 594 q 217 864 203 808 q 242 963 224 897 q 261 1018 249 990 q 282 1042 274 1042 q 314 1028 304 1042 q 335 890 321 1015 q 361 638 350 765 l 379 407 q 388 226 379 347 q 396 44 396 104 l 396 39 q 392 11 396 24 q 365 0 386 0 m 310 268 q 338 282 338 268 q 328 517 338 368 q 307 781 318 667 q 296 888 304 829 l 290 942 q 288 957 290 940 l 285 974 q 263 889 274 943 q 242 761 253 835 q 185 450 208 554 l 172 403 q 151 297 151 333 l 151 289 q 292 269 213 269 l 300 269 q 310 268 304 268 m 335 1089 q 294 1138 322 1089 q 243 1244 267 1186 q 218 1324 219 1303 l 244 1342 l 268 1310 q 279 1263 268 1299 q 306 1185 293 1224 q 326 1129 319 1146 q 365 1338 358 1250 l 385 1349 q 410 1332 410 1344 q 404 1317 410 1331 l 406 1310 l 394 1289 l 396 1281 l 381 1231 q 356 1118 356 1164 q 335 1089 356 1089 z "},"Â":{"ha":490,"x_min":47,"x_max":403,"o":"m 365 0 q 347 7 354 0 q 339 24 339 14 l 339 206 q 268 236 339 222 q 151 250 197 250 q 142 229 149 250 q 133 199 136 208 q 97 44 115 126 l 90 14 q 76 3 88 3 q 56 10 65 3 q 47 26 47 17 l 49 29 l 49 31 l 64 100 q 93 228 81 165 q 114 319 107 299 q 158 549 125 365 l 167 594 q 217 864 203 808 q 242 963 224 897 q 261 1018 249 990 q 282 1042 274 1042 q 314 1028 304 1042 q 335 890 321 1015 q 361 638 350 765 l 379 407 q 388 226 379 347 q 396 44 396 104 l 396 39 q 392 11 396 24 q 365 0 386 0 m 310 268 q 338 282 338 268 q 328 517 338 368 q 307 781 318 667 q 296 888 304 829 l 290 942 q 288 957 290 940 l 285 974 q 263 889 274 943 q 242 761 253 835 q 185 450 208 554 l 172 403 q 151 297 151 333 l 151 289 q 292 269 213 269 l 300 269 q 310 268 304 268 m 358 1083 q 319 1292 351 1172 q 272 1158 314 1283 q 261 1111 261 1122 l 238 1079 l 211 1097 q 236 1176 213 1118 q 288 1283 260 1235 q 328 1332 315 1332 q 349 1303 349 1332 q 374 1190 349 1257 l 389 1140 l 388 1132 l 399 1111 l 397 1104 q 401 1095 399 1099 q 403 1089 403 1092 q 378 1072 403 1076 l 358 1083 z "},"Ấ":{"ha":490,"x_min":47,"x_max":589,"o":"m 365 0 q 347 7 354 0 q 339 24 339 14 l 339 206 q 268 236 339 222 q 151 250 197 250 q 142 229 149 250 q 133 199 136 208 q 97 44 115 126 l 90 14 q 76 3 88 3 q 56 10 65 3 q 47 26 47 17 l 49 29 l 49 31 l 64 100 q 93 228 81 165 q 114 319 107 299 q 158 549 125 365 l 167 594 q 217 864 203 808 q 242 963 224 897 q 261 1018 249 990 q 282 1042 274 1042 q 314 1028 304 1042 q 335 890 321 1015 q 361 638 350 765 l 379 407 q 388 226 379 347 q 396 44 396 104 l 396 39 q 392 11 396 24 q 365 0 386 0 m 310 268 q 338 282 338 268 q 328 517 338 368 q 307 781 318 667 q 296 888 304 829 l 290 942 q 288 957 290 940 l 285 974 q 263 889 274 943 q 242 761 253 835 q 185 450 208 554 l 172 403 q 151 297 151 333 l 151 289 q 292 269 213 269 l 300 269 q 310 268 304 268 m 365 1076 q 326 1285 358 1165 q 279 1151 321 1276 q 268 1104 268 1115 l 244 1072 l 218 1090 q 243 1169 219 1111 q 294 1276 267 1228 q 335 1325 322 1325 q 356 1296 356 1325 q 381 1183 356 1250 l 396 1133 l 394 1125 l 406 1104 l 404 1097 q 408 1088 406 1092 q 410 1082 410 1085 q 385 1065 410 1069 l 365 1076 m 411 1219 q 394 1225 401 1219 q 386 1239 386 1231 q 425 1275 386 1243 l 469 1311 l 507 1340 q 558 1381 554 1376 q 589 1360 589 1381 l 585 1338 q 411 1219 513 1304 z "},"Ậ":{"ha":490,"x_min":47,"x_max":403,"o":"m 365 0 q 347 7 354 0 q 339 24 339 14 l 339 206 q 268 236 339 222 q 151 250 197 250 q 142 229 149 250 q 133 199 136 208 q 97 44 115 126 l 90 14 q 76 3 88 3 q 56 10 65 3 q 47 26 47 17 l 49 29 l 49 31 l 64 100 q 93 228 81 165 q 114 319 107 299 q 158 549 125 365 l 167 594 q 217 864 203 808 q 242 963 224 897 q 261 1018 249 990 q 282 1042 274 1042 q 314 1028 304 1042 q 335 890 321 1015 q 361 638 350 765 l 379 407 q 388 226 379 347 q 396 44 396 104 l 396 39 q 392 11 396 24 q 365 0 386 0 m 310 268 q 338 282 338 268 q 328 517 338 368 q 307 781 318 667 q 296 888 304 829 l 290 942 q 288 957 290 940 l 285 974 q 263 889 274 943 q 242 761 253 835 q 185 450 208 554 l 172 403 q 151 297 151 333 l 151 289 q 292 269 213 269 l 300 269 q 310 268 304 268 m 242 -162 q 220 -152 229 -162 q 211 -129 211 -142 q 222 -103 211 -115 q 247 -92 233 -92 q 270 -103 260 -92 q 281 -128 281 -115 q 242 -162 281 -162 m 358 1083 q 319 1292 351 1172 q 272 1158 314 1283 q 261 1111 261 1122 l 238 1079 l 211 1097 q 236 1176 213 1118 q 288 1283 260 1235 q 328 1332 315 1332 q 349 1303 349 1332 q 374 1190 349 1257 l 389 1140 l 388 1132 l 399 1111 l 397 1104 q 401 1095 399 1099 q 403 1089 403 1092 q 378 1072 403 1076 l 358 1083 z "},"Ầ":{"ha":490,"x_min":47,"x_max":401,"o":"m 365 0 q 347 7 354 0 q 339 24 339 14 l 339 206 q 268 236 339 222 q 151 250 197 250 q 142 229 149 250 q 133 199 136 208 q 97 44 115 126 l 90 14 q 76 3 88 3 q 56 10 65 3 q 47 26 47 17 l 49 29 l 49 31 l 64 100 q 93 228 81 165 q 114 319 107 299 q 158 549 125 365 l 167 594 q 217 864 203 808 q 242 963 224 897 q 261 1018 249 990 q 282 1042 274 1042 q 314 1028 304 1042 q 335 890 321 1015 q 361 638 350 765 l 379 407 q 388 226 379 347 q 396 44 396 104 l 396 39 q 392 11 396 24 q 365 0 386 0 m 310 268 q 338 282 338 268 q 328 517 338 368 q 307 781 318 667 q 296 888 304 829 l 290 942 q 288 957 290 940 l 285 974 q 263 889 274 943 q 242 761 253 835 q 185 450 208 554 l 172 403 q 151 297 151 333 l 151 289 q 292 269 213 269 l 300 269 q 310 268 304 268 m 357 1078 q 318 1286 350 1167 q 271 1153 313 1278 q 260 1106 260 1117 l 236 1074 l 210 1092 q 235 1171 211 1113 q 286 1278 258 1229 q 326 1326 314 1326 q 347 1297 347 1326 q 372 1185 347 1251 l 388 1135 l 386 1126 l 397 1106 l 396 1099 q 399 1090 397 1093 q 401 1083 401 1086 q 376 1067 401 1071 l 357 1078 m -562 1455 q -643 1438 -584 1450 q -708 1428 -701 1427 q -726 1414 -714 1421 q -781 1415 -767 1391 q -789 1445 -793 1437 l -782 1450 q -727 1464 -746 1470 q -710 1467 -726 1462 q -651 1477 -696 1470 q -589 1482 -616 1481 q -553 1473 -558 1482 q -554 1463 -551 1469 q -562 1455 -557 1458 z "},"Ẩ":{"ha":490,"x_min":47,"x_max":560,"o":"m 365 0 q 347 7 354 0 q 339 24 339 14 l 339 206 q 268 236 339 222 q 151 250 197 250 q 142 229 149 250 q 133 199 136 208 q 97 44 115 126 l 90 14 q 76 3 88 3 q 56 10 65 3 q 47 26 47 17 l 49 29 l 49 31 l 64 100 q 93 228 81 165 q 114 319 107 299 q 158 549 125 365 l 167 594 q 217 864 203 808 q 242 963 224 897 q 261 1018 249 990 q 282 1042 274 1042 q 314 1028 304 1042 q 335 890 321 1015 q 361 638 350 765 l 379 407 q 388 226 379 347 q 396 44 396 104 l 396 39 q 392 11 396 24 q 365 0 386 0 m 310 268 q 338 282 338 268 q 328 517 338 368 q 307 781 318 667 q 296 888 304 829 l 290 942 q 288 957 290 940 l 285 974 q 263 889 274 943 q 242 761 253 835 q 185 450 208 554 l 172 403 q 151 297 151 333 l 151 289 q 292 269 213 269 l 300 269 q 310 268 304 268 m 368 1081 q 329 1289 361 1169 q 282 1156 324 1281 q 271 1108 271 1119 l 247 1076 l 221 1094 q 246 1174 222 1115 q 297 1281 269 1232 q 338 1329 325 1329 q 358 1300 358 1329 q 383 1188 358 1254 l 399 1138 l 397 1129 l 408 1108 l 407 1101 q 410 1092 408 1096 q 413 1086 413 1089 q 388 1069 413 1074 l 368 1081 m 479 1211 q 464 1228 465 1211 l 464 1235 q 472 1253 464 1244 q 496 1271 481 1261 q 508 1279 499 1272 q 521 1292 517 1286 q 525 1303 525 1297 q 481 1329 525 1329 q 442 1323 454 1329 q 429 1300 429 1317 q 432 1282 429 1296 q 418 1279 424 1279 q 399 1303 399 1279 q 419 1341 399 1325 q 481 1357 439 1357 q 542 1343 524 1357 q 560 1303 560 1329 q 551 1281 560 1290 q 524 1258 543 1272 q 503 1242 510 1249 q 496 1229 496 1236 l 496 1219 q 479 1211 488 1211 z "},"Ẫ":{"ha":490,"x_min":47,"x_max":453,"o":"m 365 0 q 347 7 354 0 q 339 24 339 14 l 339 206 q 268 236 339 222 q 151 250 197 250 q 142 229 149 250 q 133 199 136 208 q 97 44 115 126 l 90 14 q 76 3 88 3 q 56 10 65 3 q 47 26 47 17 l 49 29 l 49 31 l 64 100 q 93 228 81 165 q 114 319 107 299 q 158 549 125 365 l 167 594 q 217 864 203 808 q 242 963 224 897 q 261 1018 249 990 q 282 1042 274 1042 q 314 1028 304 1042 q 335 890 321 1015 q 361 638 350 765 l 379 407 q 388 226 379 347 q 396 44 396 104 l 396 39 q 392 11 396 24 q 365 0 386 0 m 310 268 q 338 282 338 268 q 328 517 338 368 q 307 781 318 667 q 296 888 304 829 l 290 942 q 288 957 290 940 l 285 974 q 263 889 274 943 q 242 761 253 835 q 185 450 208 554 l 172 403 q 151 297 151 333 l 151 289 q 292 269 213 269 l 300 269 q 310 268 304 268 m 358 1083 q 319 1292 351 1172 q 272 1158 314 1283 q 261 1111 261 1122 l 238 1079 l 211 1097 q 236 1176 213 1118 q 288 1283 260 1235 q 328 1332 315 1332 q 349 1303 349 1332 q 374 1190 349 1257 l 389 1140 l 388 1132 l 399 1111 l 397 1104 q 401 1095 399 1099 q 403 1089 403 1092 q 378 1072 403 1076 l 358 1083 m 186 1375 q 169 1383 178 1375 q 160 1399 160 1390 q 183 1468 160 1442 q 242 1494 207 1494 q 300 1467 276 1494 q 335 1429 311 1446 q 379 1413 358 1413 q 415 1463 415 1413 l 413 1476 l 407 1489 q 421 1497 411 1497 q 444 1483 436 1497 q 453 1450 453 1469 q 431 1399 453 1421 q 379 1376 408 1376 q 332 1390 357 1376 q 292 1419 307 1404 q 256 1458 281 1429 l 246 1463 q 210 1451 225 1463 q 194 1425 194 1440 l 201 1396 l 186 1375 z "},"Ȁ":{"ha":490,"x_min":-6,"x_max":436,"o":"m 365 0 q 347 7 354 0 q 339 24 339 14 l 339 206 q 268 236 339 222 q 151 250 197 250 q 142 229 149 250 q 133 199 136 208 q 97 44 115 126 l 90 14 q 76 3 88 3 q 56 10 65 3 q 47 26 47 17 l 49 29 l 49 31 l 64 100 q 93 228 81 165 q 114 319 107 299 q 158 549 125 365 l 167 594 q 217 864 203 808 q 242 963 224 897 q 261 1018 249 990 q 282 1042 274 1042 q 314 1028 304 1042 q 335 890 321 1015 q 361 638 350 765 l 379 407 q 388 226 379 347 q 396 44 396 104 l 396 39 q 392 11 396 24 q 365 0 386 0 m 310 268 q 338 282 338 268 q 328 517 338 368 q 307 781 318 667 q 296 888 304 829 l 290 942 q 288 957 290 940 l 285 974 q 263 889 274 943 q 242 761 253 835 q 185 450 208 554 l 172 403 q 151 297 151 333 l 151 289 q 292 269 213 269 l 300 269 q 310 268 304 268 m 431 1093 q 372 1124 407 1097 q 324 1154 342 1146 q 199 1253 285 1182 q 189 1267 189 1257 q 195 1280 189 1272 q 204 1288 201 1288 q 269 1244 213 1288 q 381 1156 326 1201 q 436 1100 435 1110 l 431 1093 m 254 1096 q 226 1111 250 1096 q 176 1144 201 1126 l 142 1165 l 67 1203 l -6 1243 q 6 1265 -3 1254 q 24 1276 15 1276 q 101 1236 33 1276 q 196 1168 128 1219 q 263 1107 263 1117 q 254 1096 263 1096 z "},"Ä":{"ha":490,"x_min":47,"x_max":440,"o":"m 365 0 q 347 7 354 0 q 339 24 339 14 l 339 206 q 268 236 339 222 q 151 250 197 250 q 142 229 149 250 q 133 199 136 208 q 97 44 115 126 l 90 14 q 76 3 88 3 q 56 10 65 3 q 47 26 47 17 l 49 29 l 49 31 l 64 100 q 93 228 81 165 q 114 319 107 299 q 158 549 125 365 l 167 594 q 217 864 203 808 q 242 963 224 897 q 261 1018 249 990 q 282 1042 274 1042 q 314 1028 304 1042 q 335 890 321 1015 q 361 638 350 765 l 379 407 q 388 226 379 347 q 396 44 396 104 l 396 39 q 392 11 396 24 q 365 0 386 0 m 310 268 q 338 282 338 268 q 328 517 338 368 q 307 781 318 667 q 296 888 304 829 l 290 942 q 288 957 290 940 l 285 974 q 263 889 274 943 q 242 761 253 835 q 185 450 208 554 l 172 403 q 151 297 151 333 l 151 289 q 292 269 213 269 l 300 269 q 310 268 304 268 m 404 1124 q 385 1133 393 1124 q 376 1154 376 1143 q 387 1178 376 1167 q 410 1189 397 1189 q 431 1178 422 1189 q 440 1156 440 1167 q 404 1124 440 1124 m 219 1118 q 201 1129 208 1118 q 193 1153 193 1140 q 203 1176 193 1165 q 226 1188 214 1188 q 247 1174 240 1188 q 254 1142 254 1160 q 244 1124 254 1131 q 219 1118 233 1118 z "},"Ȧ":{"ha":490,"x_min":47,"x_max":396,"o":"m 365 0 q 347 7 354 0 q 339 24 339 14 l 339 206 q 268 236 339 222 q 151 250 197 250 q 142 229 149 250 q 133 199 136 208 q 97 44 115 126 l 90 14 q 76 3 88 3 q 56 10 65 3 q 47 26 47 17 l 49 29 l 49 31 l 64 100 q 93 228 81 165 q 114 319 107 299 q 158 549 125 365 l 167 594 q 217 864 203 808 q 242 963 224 897 q 261 1018 249 990 q 282 1042 274 1042 q 314 1028 304 1042 q 335 890 321 1015 q 361 638 350 765 l 379 407 q 388 226 379 347 q 396 44 396 104 l 396 39 q 392 11 396 24 q 365 0 386 0 m 310 268 q 338 282 338 268 q 328 517 338 368 q 307 781 318 667 q 296 888 304 829 l 290 942 q 288 957 290 940 l 285 974 q 263 889 274 943 q 242 761 253 835 q 185 450 208 554 l 172 403 q 151 297 151 333 l 151 289 q 292 269 213 269 l 300 269 q 310 268 304 268 m 310 1117 q 288 1127 297 1117 q 279 1150 279 1138 q 290 1176 279 1164 q 315 1188 301 1188 q 338 1176 328 1188 q 349 1151 349 1164 q 310 1117 349 1117 z "},"Ạ":{"ha":490,"x_min":47,"x_max":396,"o":"m 365 0 q 347 7 354 0 q 339 24 339 14 l 339 206 q 268 236 339 222 q 151 250 197 250 q 142 229 149 250 q 133 199 136 208 q 97 44 115 126 l 90 14 q 76 3 88 3 q 56 10 65 3 q 47 26 47 17 l 49 29 l 49 31 l 64 100 q 93 228 81 165 q 114 319 107 299 q 158 549 125 365 l 167 594 q 217 864 203 808 q 242 963 224 897 q 261 1018 249 990 q 282 1042 274 1042 q 314 1028 304 1042 q 335 890 321 1015 q 361 638 350 765 l 379 407 q 388 226 379 347 q 396 44 396 104 l 396 39 q 392 11 396 24 q 365 0 386 0 m 310 268 q 338 282 338 268 q 328 517 338 368 q 307 781 318 667 q 296 888 304 829 l 290 942 q 288 957 290 940 l 285 974 q 263 889 274 943 q 242 761 253 835 q 185 450 208 554 l 172 403 q 151 297 151 333 l 151 289 q 292 269 213 269 l 300 269 q 310 268 304 268 m 242 -162 q 220 -152 229 -162 q 211 -129 211 -142 q 222 -103 211 -115 q 247 -92 233 -92 q 270 -103 260 -92 q 281 -128 281 -115 q 242 -162 281 -162 z "},"À":{"ha":490,"x_min":47,"x_max":396,"o":"m 365 0 q 347 7 354 0 q 339 24 339 14 l 339 206 q 268 236 339 222 q 151 250 197 250 q 142 229 149 250 q 133 199 136 208 q 97 44 115 126 l 90 14 q 76 3 88 3 q 56 10 65 3 q 47 26 47 17 l 49 29 l 49 31 l 64 100 q 93 228 81 165 q 114 319 107 299 q 158 549 125 365 l 167 594 q 217 864 203 808 q 242 963 224 897 q 261 1018 249 990 q 282 1042 274 1042 q 314 1028 304 1042 q 335 890 321 1015 q 361 638 350 765 l 379 407 q 388 226 379 347 q 396 44 396 104 l 396 39 q 392 11 396 24 q 365 0 386 0 m 310 268 q 338 282 338 268 q 328 517 338 368 q 307 781 318 667 q 296 888 304 829 l 290 942 q 288 957 290 940 l 285 974 q 263 889 274 943 q 242 761 253 835 q 185 450 208 554 l 172 403 q 151 297 151 333 l 151 289 q 292 269 213 269 l 300 269 q 310 268 304 268 m 365 1074 q 301 1109 344 1085 q 235 1147 258 1133 l 213 1149 q 171 1181 171 1157 q 185 1214 171 1204 l 193 1211 q 243 1188 235 1206 q 260 1179 243 1186 l 310 1149 q 361 1113 340 1129 q 383 1083 383 1094 q 365 1074 383 1074 z "},"Ả":{"ha":490,"x_min":47,"x_max":401,"o":"m 365 0 q 347 7 354 0 q 339 24 339 14 l 339 206 q 268 236 339 222 q 151 250 197 250 q 142 229 149 250 q 133 199 136 208 q 97 44 115 126 l 90 14 q 76 3 88 3 q 56 10 65 3 q 47 26 47 17 l 49 29 l 49 31 l 64 100 q 93 228 81 165 q 114 319 107 299 q 158 549 125 365 l 167 594 q 217 864 203 808 q 242 963 224 897 q 261 1018 249 990 q 282 1042 274 1042 q 314 1028 304 1042 q 335 890 321 1015 q 361 638 350 765 l 379 407 q 388 226 379 347 q 396 44 396 104 l 396 39 q 392 11 396 24 q 365 0 386 0 m 310 268 q 338 282 338 268 q 328 517 338 368 q 307 781 318 667 q 296 888 304 829 l 290 942 q 288 957 290 940 l 285 974 q 263 889 274 943 q 242 761 253 835 q 185 450 208 554 l 172 403 q 151 297 151 333 l 151 289 q 292 269 213 269 l 300 269 q 310 268 304 268 m 321 1067 q 306 1083 307 1067 l 306 1090 q 314 1108 306 1100 q 338 1126 322 1117 q 349 1135 340 1128 q 363 1147 358 1142 q 367 1158 367 1153 q 322 1185 367 1185 q 283 1178 296 1185 q 271 1156 271 1172 q 274 1138 271 1151 q 260 1135 265 1135 q 240 1158 240 1135 q 260 1197 240 1181 q 322 1213 281 1213 q 383 1199 365 1213 q 401 1158 401 1185 q 393 1137 401 1146 q 365 1114 385 1128 q 344 1098 351 1104 q 338 1085 338 1092 l 338 1075 q 321 1067 329 1067 z "},"Ȃ":{"ha":490,"x_min":47,"x_max":407,"o":"m 365 0 q 347 7 354 0 q 339 24 339 14 l 339 206 q 268 236 339 222 q 151 250 197 250 q 142 229 149 250 q 133 199 136 208 q 97 44 115 126 l 90 14 q 76 3 88 3 q 56 10 65 3 q 47 26 47 17 l 49 29 l 49 31 l 64 100 q 93 228 81 165 q 114 319 107 299 q 158 549 125 365 l 167 594 q 217 864 203 808 q 242 963 224 897 q 261 1018 249 990 q 282 1042 274 1042 q 314 1028 304 1042 q 335 890 321 1015 q 361 638 350 765 l 379 407 q 388 226 379 347 q 396 44 396 104 l 396 39 q 392 11 396 24 q 365 0 386 0 m 310 268 q 338 282 338 268 q 328 517 338 368 q 307 781 318 667 q 296 888 304 829 l 290 942 q 288 957 290 940 l 285 974 q 263 889 274 943 q 242 761 253 835 q 185 450 208 554 l 172 403 q 151 297 151 333 l 151 289 q 292 269 213 269 l 300 269 q 310 268 304 268 m 201 1085 q 222 1179 201 1135 q 303 1226 247 1226 q 354 1213 332 1226 q 382 1178 361 1208 q 393 1154 382 1175 q 403 1129 403 1126 l 400 1119 l 404 1110 l 407 1097 q 401 1083 407 1089 q 386 1078 394 1078 q 361 1104 361 1078 l 363 1115 l 363 1124 q 347 1169 363 1144 q 315 1194 332 1194 l 281 1194 l 265 1183 q 231 1094 242 1167 q 217 1072 226 1075 l 201 1085 z "},"Ā":{"ha":490,"x_min":47,"x_max":449,"o":"m 365 0 q 347 7 354 0 q 339 24 339 14 l 339 206 q 268 236 339 222 q 151 250 197 250 q 142 229 149 250 q 133 199 136 208 q 97 44 115 126 l 90 14 q 76 3 88 3 q 56 10 65 3 q 47 26 47 17 l 49 29 l 49 31 l 64 100 q 93 228 81 165 q 114 319 107 299 q 158 549 125 365 l 167 594 q 217 864 203 808 q 242 963 224 897 q 261 1018 249 990 q 282 1042 274 1042 q 314 1028 304 1042 q 335 890 321 1015 q 361 638 350 765 l 379 407 q 388 226 379 347 q 396 44 396 104 l 396 39 q 392 11 396 24 q 365 0 386 0 m 310 268 q 338 282 338 268 q 328 517 338 368 q 307 781 318 667 q 296 888 304 829 l 290 942 q 288 957 290 940 l 285 974 q 263 889 274 943 q 242 761 253 835 q 185 450 208 554 l 172 403 q 151 297 151 333 l 151 289 q 292 269 213 269 l 300 269 q 310 268 304 268 m 254 1136 q 210 1139 219 1136 q 183 1149 189 1142 q 181 1158 181 1154 q 269 1169 181 1169 l 347 1169 q 418 1167 396 1169 q 442 1160 435 1165 q 449 1147 449 1156 q 360 1136 446 1136 l 281 1136 l 254 1136 z "},"Ą":{"ha":490,"x_min":47,"x_max":415,"o":"m 365 0 q 347 7 354 0 q 339 24 339 14 l 339 206 q 268 236 339 222 q 151 250 197 250 q 142 229 149 250 q 133 199 136 208 q 97 44 115 126 l 90 14 q 76 3 88 3 q 56 10 65 3 q 47 26 47 17 l 49 29 l 49 31 l 64 100 q 93 228 81 165 q 114 319 107 299 q 158 549 125 365 l 167 594 q 217 864 203 808 q 242 963 224 897 q 261 1018 249 990 q 282 1042 274 1042 q 314 1028 304 1042 q 335 890 321 1015 q 361 638 350 765 l 379 407 q 388 226 379 347 q 396 44 396 104 l 396 39 q 392 11 396 24 q 365 0 386 0 m 310 268 q 338 282 338 268 q 328 517 338 368 q 307 781 318 667 q 296 888 304 829 l 290 942 q 288 957 290 940 l 285 974 q 263 889 274 943 q 242 761 253 835 q 185 450 208 554 l 172 403 q 151 297 151 333 l 151 289 q 292 269 213 269 l 300 269 q 310 268 304 268 m 357 -307 q 306 -289 331 -307 q 266 -245 281 -271 q 251 -197 251 -219 q 261 -132 251 -165 q 285 -72 271 -99 q 338 1 317 -17 l 347 13 l 386 7 l 389 7 q 378 -11 389 7 q 326 -99 344 -53 q 314 -151 314 -128 q 311 -183 314 -158 l 310 -197 l 310 -212 q 325 -250 310 -231 q 357 -269 340 -269 q 379 -262 363 -269 q 401 -256 393 -256 q 415 -269 415 -256 q 397 -297 415 -286 q 357 -307 379 -307 z "},"Å":{"ha":490,"x_min":47,"x_max":396,"o":"m 365 0 q 347 7 354 0 q 339 24 339 14 l 339 206 q 268 236 339 222 q 151 250 197 250 q 142 229 149 250 q 133 199 136 208 q 97 44 115 126 l 90 14 q 76 3 88 3 q 56 10 65 3 q 47 26 47 17 l 49 29 l 49 31 l 64 100 q 93 228 81 165 q 114 319 107 299 q 158 549 125 365 l 167 594 q 217 864 203 808 q 242 963 224 897 q 261 1018 249 990 q 282 1042 274 1042 q 314 1028 304 1042 q 335 890 321 1015 q 361 638 350 765 l 379 407 q 388 226 379 347 q 396 44 396 104 l 396 39 q 392 11 396 24 q 365 0 386 0 m 310 268 q 338 282 338 268 q 328 517 338 368 q 307 781 318 667 q 296 888 304 829 l 290 942 q 288 957 290 940 l 285 974 q 263 889 274 943 q 242 761 253 835 q 185 450 208 554 l 172 403 q 151 297 151 333 l 151 289 q 292 269 213 269 l 300 269 q 310 268 304 268 m 303 1089 q 256 1112 276 1089 q 235 1163 235 1135 q 260 1222 235 1194 q 315 1249 285 1249 q 367 1222 342 1249 q 392 1168 392 1196 q 367 1110 392 1131 q 303 1089 343 1089 m 297 1115 q 335 1127 315 1115 q 356 1154 356 1139 q 345 1202 356 1182 q 315 1222 335 1222 q 283 1205 299 1222 q 267 1169 267 1188 q 278 1126 267 1142 q 297 1115 285 1115 z "},"Ǻ":{"ha":490,"x_min":47,"x_max":489,"o":"m 365 0 q 347 7 354 0 q 339 24 339 14 l 339 206 q 268 236 339 222 q 151 250 197 250 q 142 229 149 250 q 133 199 136 208 q 97 44 115 126 l 90 14 q 76 3 88 3 q 56 10 65 3 q 47 26 47 17 l 49 29 l 49 31 l 64 100 q 93 228 81 165 q 114 319 107 299 q 158 549 125 365 l 167 594 q 217 864 203 808 q 242 963 224 897 q 261 1018 249 990 q 282 1042 274 1042 q 314 1028 304 1042 q 335 890 321 1015 q 361 638 350 765 l 379 407 q 388 226 379 347 q 396 44 396 104 l 396 39 q 392 11 396 24 q 365 0 386 0 m 310 268 q 338 282 338 268 q 328 517 338 368 q 307 781 318 667 q 296 888 304 829 l 290 942 q 288 957 290 940 l 285 974 q 263 889 274 943 q 242 761 253 835 q 185 450 208 554 l 172 403 q 151 297 151 333 l 151 289 q 292 269 213 269 l 300 269 q 310 268 304 268 m 303 1089 q 256 1112 276 1089 q 235 1163 235 1135 q 260 1222 235 1194 q 315 1249 285 1249 q 367 1222 342 1249 q 392 1168 392 1196 q 367 1110 392 1131 q 303 1089 343 1089 m 297 1115 q 335 1127 315 1115 q 356 1154 356 1139 q 345 1202 356 1182 q 315 1222 335 1222 q 283 1205 299 1222 q 267 1169 267 1188 q 278 1126 267 1142 q 297 1115 285 1115 m 311 1314 q 294 1319 301 1314 q 286 1333 286 1325 q 325 1369 286 1338 l 369 1406 l 407 1435 q 458 1475 454 1471 q 489 1454 489 1475 l 485 1432 q 311 1314 413 1399 z "},"Ã":{"ha":490,"x_min":47,"x_max":460,"o":"m 365 0 q 347 7 354 0 q 339 24 339 14 l 339 206 q 268 236 339 222 q 151 250 197 250 q 142 229 149 250 q 133 199 136 208 q 97 44 115 126 l 90 14 q 76 3 88 3 q 56 10 65 3 q 47 26 47 17 l 49 29 l 49 31 l 64 100 q 93 228 81 165 q 114 319 107 299 q 158 549 125 365 l 167 594 q 217 864 203 808 q 242 963 224 897 q 261 1018 249 990 q 282 1042 274 1042 q 314 1028 304 1042 q 335 890 321 1015 q 361 638 350 765 l 379 407 q 388 226 379 347 q 396 44 396 104 l 396 39 q 392 11 396 24 q 365 0 386 0 m 310 268 q 338 282 338 268 q 328 517 338 368 q 307 781 318 667 q 296 888 304 829 l 290 942 q 288 957 290 940 l 285 974 q 263 889 274 943 q 242 761 253 835 q 185 450 208 554 l 172 403 q 151 297 151 333 l 151 289 q 292 269 213 269 l 300 269 q 310 268 304 268 m 193 1090 q 176 1098 185 1090 q 167 1114 167 1106 q 190 1183 167 1157 q 249 1210 214 1210 q 307 1182 283 1210 q 342 1144 318 1161 q 386 1128 365 1128 q 422 1178 422 1128 l 419 1192 l 414 1204 q 428 1213 418 1213 q 451 1199 443 1213 q 460 1165 460 1185 q 438 1114 460 1136 q 386 1092 415 1092 q 339 1106 364 1092 q 299 1135 314 1119 q 263 1174 288 1144 l 253 1178 q 217 1167 232 1178 q 201 1140 201 1156 l 208 1111 l 193 1090 z "},"Æ":{"ha":567,"x_min":33,"x_max":550,"o":"m 308 -8 q 319 156 319 60 l 317 289 l 314 421 l 306 431 l 263 426 q 194 419 231 425 q 163 407 164 413 l 93 142 q 83 90 90 129 q 67 29 75 51 q 44 1 56 1 q 37 8 40 1 q 33 18 33 14 q 89 293 35 78 q 271 944 174 628 q 304 1028 289 1007 q 335 1047 319 1047 l 388 1050 q 442 1054 424 1054 q 486 1032 486 1054 l 476 1015 q 340 1007 410 1015 q 344 904 340 974 q 349 800 349 836 q 347 638 349 710 q 346 476 346 567 l 351 468 q 407 475 368 468 q 463 482 436 482 l 481 458 q 382 435 481 435 l 346 435 q 347 269 346 343 q 350 104 350 197 l 350 76 q 349 47 349 63 q 361 24 349 24 q 440 31 382 24 q 519 39 493 39 q 540 34 531 39 q 550 21 550 29 q 508 1 550 6 q 418 -4 453 -4 q 360 -10 367 -7 q 347 -19 360 -10 q 328 -28 338 -28 l 308 -8 m 174 450 q 313 467 261 454 l 315 613 l 318 782 q 308 944 318 881 q 236 708 296 931 q 174 450 176 486 z "},"Ǽ":{"ha":567,"x_min":33,"x_max":563,"o":"m 308 -8 q 319 156 319 60 l 317 289 l 314 421 l 306 431 l 263 426 q 194 419 231 425 q 163 407 164 413 l 93 142 q 83 90 90 129 q 67 29 75 51 q 44 1 56 1 q 37 8 40 1 q 33 18 33 14 q 89 293 35 78 q 271 944 174 628 q 304 1028 289 1007 q 335 1047 319 1047 l 388 1050 q 442 1054 424 1054 q 486 1032 486 1054 l 476 1015 q 340 1007 410 1015 q 344 904 340 974 q 349 800 349 836 q 347 638 349 710 q 346 476 346 567 l 351 468 q 407 475 368 468 q 463 482 436 482 l 481 458 q 382 435 481 435 l 346 435 q 347 269 346 343 q 350 104 350 197 l 350 76 q 349 47 349 63 q 361 24 349 24 q 440 31 382 24 q 519 39 493 39 q 540 34 531 39 q 550 21 550 29 q 508 1 550 6 q 418 -4 453 -4 q 360 -10 367 -7 q 347 -19 360 -10 q 328 -28 338 -28 l 308 -8 m 174 450 q 313 467 261 454 l 315 613 l 318 782 q 308 944 318 881 q 236 708 296 931 q 174 450 176 486 m 385 1115 q 367 1121 375 1115 q 360 1135 360 1126 q 399 1171 360 1139 l 443 1207 l 481 1236 q 532 1276 528 1272 q 563 1256 563 1276 l 558 1233 q 385 1115 486 1200 z "},"Ǣ":{"ha":567,"x_min":33,"x_max":550,"o":"m 308 -8 q 319 156 319 60 l 317 289 l 314 421 l 306 431 l 263 426 q 194 419 231 425 q 163 407 164 413 l 93 142 q 83 90 90 129 q 67 29 75 51 q 44 1 56 1 q 37 8 40 1 q 33 18 33 14 q 89 293 35 78 q 271 944 174 628 q 304 1028 289 1007 q 335 1047 319 1047 l 388 1050 q 442 1054 424 1054 q 486 1032 486 1054 l 476 1015 q 340 1007 410 1015 q 344 904 340 974 q 349 800 349 836 q 347 638 349 710 q 346 476 346 567 l 351 468 q 407 475 368 468 q 463 482 436 482 l 481 458 q 382 435 481 435 l 346 435 q 347 269 346 343 q 350 104 350 197 l 350 76 q 349 47 349 63 q 361 24 349 24 q 440 31 382 24 q 519 39 493 39 q 540 34 531 39 q 550 21 550 29 q 508 1 550 6 q 418 -4 453 -4 q 360 -10 367 -7 q 347 -19 360 -10 q 328 -28 338 -28 l 308 -8 m 174 450 q 313 467 261 454 l 315 613 l 318 782 q 308 944 318 881 q 236 708 296 931 q 174 450 176 486 m 328 1139 q 283 1142 293 1139 q 257 1151 263 1144 q 254 1161 254 1157 q 343 1172 254 1172 l 421 1172 q 492 1169 469 1172 q 515 1163 508 1168 q 522 1150 522 1158 q 433 1139 519 1139 l 354 1139 l 328 1139 z "},"B":{"ha":447,"x_min":101,"x_max":376,"o":"m 156 -8 q 104 11 104 -8 q 108 188 104 69 l 111 363 q 107 653 111 460 q 101 942 101 824 q 138 1042 101 1042 q 281 982 231 1042 q 332 824 332 922 q 243 593 332 713 q 347 453 317 519 q 376 293 376 386 q 373 202 376 236 q 360 139 369 168 q 333 86 350 108 q 286 44 315 64 q 214 6 258 25 q 186 -1 197 1 q 158 -8 168 -8 l 156 -8 m 154 600 q 213 626 185 600 q 258 696 240 653 q 286 780 276 736 q 296 860 296 824 q 260 951 296 908 q 181 994 225 994 q 144 935 144 994 q 147 768 144 842 l 150 601 l 154 600 m 165 46 q 252 74 213 46 q 315 150 292 103 q 338 251 338 197 q 218 550 338 500 q 182 543 207 550 q 150 535 158 535 q 157 47 157 308 l 161 47 l 165 46 z "},"Ḃ":{"ha":447,"x_min":101,"x_max":376,"o":"m 156 -8 q 104 11 104 -8 q 108 188 104 69 l 111 363 q 107 653 111 460 q 101 942 101 824 q 138 1042 101 1042 q 281 982 231 1042 q 332 824 332 922 q 243 593 332 713 q 347 453 317 519 q 376 293 376 386 q 373 202 376 236 q 360 139 369 168 q 333 86 350 108 q 286 44 315 64 q 214 6 258 25 q 186 -1 197 1 q 158 -8 168 -8 l 156 -8 m 154 600 q 213 626 185 600 q 258 696 240 653 q 286 780 276 736 q 296 860 296 824 q 260 951 296 908 q 181 994 225 994 q 144 935 144 994 q 147 768 144 842 l 150 601 l 154 600 m 165 46 q 252 74 213 46 q 315 150 292 103 q 338 251 338 197 q 218 550 338 500 q 182 543 207 550 q 150 535 158 535 q 157 47 157 308 l 161 47 l 165 46 m 172 1117 q 151 1127 160 1117 q 142 1150 142 1138 q 153 1176 142 1164 q 178 1188 164 1188 q 201 1176 190 1188 q 211 1151 211 1164 q 172 1117 211 1117 z "},"C":{"ha":458,"x_min":85,"x_max":435,"o":"m 281 -22 q 199 8 242 -22 q 138 78 156 39 q 103 307 121 114 q 86 594 86 500 l 86 668 q 85 739 85 700 q 93 882 85 811 q 108 942 99 917 q 133 990 117 967 q 225 1053 164 1038 q 296 1061 257 1061 q 349 1046 322 1061 q 376 1010 376 1031 q 354 994 376 994 q 322 1004 346 994 q 285 1014 301 1014 q 215 998 246 1014 q 165 956 183 982 q 139 894 150 933 q 125 817 128 856 q 121 733 121 782 l 122 656 q 124 583 124 622 q 143 301 124 488 q 181 86 163 115 q 230 46 197 60 q 299 32 263 32 q 396 72 363 32 q 422 89 408 89 q 435 69 435 89 q 419 26 435 44 q 378 -3 404 7 q 281 -22 333 -22 z "},"Ć":{"ha":458,"x_min":85,"x_max":435,"o":"m 281 -22 q 199 8 242 -22 q 138 78 156 39 q 103 307 121 114 q 86 594 86 500 l 86 668 q 85 739 85 700 q 93 882 85 811 q 108 942 99 917 q 133 990 117 967 q 225 1053 164 1038 q 296 1061 257 1061 q 349 1046 322 1061 q 376 1010 376 1031 q 354 994 376 994 q 322 1004 346 994 q 285 1014 301 1014 q 215 998 246 1014 q 165 956 183 982 q 139 894 150 933 q 125 817 128 856 q 121 733 121 782 l 122 656 q 124 583 124 622 q 143 301 124 488 q 181 86 163 115 q 230 46 197 60 q 299 32 263 32 q 396 72 363 32 q 422 89 408 89 q 435 69 435 89 q 419 26 435 44 q 378 -3 404 7 q 281 -22 333 -22 m 226 1113 q 209 1118 217 1113 q 201 1132 201 1124 q 240 1168 201 1136 l 285 1204 l 322 1233 q 374 1274 369 1269 q 404 1253 404 1274 l 400 1231 q 226 1113 328 1197 z "},"Č":{"ha":458,"x_min":85,"x_max":435,"o":"m 281 -22 q 199 8 242 -22 q 138 78 156 39 q 103 307 121 114 q 86 594 86 500 l 86 668 q 85 739 85 700 q 93 882 85 811 q 108 942 99 917 q 133 990 117 967 q 225 1053 164 1038 q 296 1061 257 1061 q 349 1046 322 1061 q 376 1010 376 1031 q 354 994 376 994 q 322 1004 346 994 q 285 1014 301 1014 q 215 998 246 1014 q 165 956 183 982 q 139 894 150 933 q 125 817 128 856 q 121 733 121 782 l 122 656 q 124 583 124 622 q 143 301 124 488 q 181 86 163 115 q 230 46 197 60 q 299 32 263 32 q 396 72 363 32 q 422 89 408 89 q 435 69 435 89 q 419 26 435 44 q 378 -3 404 7 q 281 -22 333 -22 m 250 1089 q 210 1138 238 1089 q 158 1244 182 1186 q 133 1324 135 1303 l 160 1342 l 183 1310 q 194 1263 183 1299 q 222 1185 208 1224 q 242 1129 235 1146 q 281 1338 274 1250 l 300 1349 q 325 1332 325 1344 q 319 1317 325 1331 l 321 1310 l 310 1289 l 311 1281 l 296 1231 q 271 1118 271 1164 q 250 1089 271 1089 z "},"Ç":{"ha":458,"x_min":85,"x_max":435,"o":"m 281 -22 q 199 8 242 -22 q 138 78 156 39 q 103 307 121 114 q 86 594 86 500 l 86 668 q 85 739 85 700 q 93 882 85 811 q 108 942 99 917 q 133 990 117 967 q 225 1053 164 1038 q 296 1061 257 1061 q 349 1046 322 1061 q 376 1010 376 1031 q 354 994 376 994 q 322 1004 346 994 q 285 1014 301 1014 q 215 998 246 1014 q 165 956 183 982 q 139 894 150 933 q 125 817 128 856 q 121 733 121 782 l 122 656 q 124 583 124 622 q 143 301 124 488 q 181 86 163 115 q 230 46 197 60 q 299 32 263 32 q 396 72 363 32 q 422 89 408 89 q 435 69 435 89 q 419 26 435 44 q 378 -3 404 7 q 281 -22 333 -22 m 288 -304 q 247 -294 265 -304 q 228 -267 228 -283 q 243 -253 228 -253 q 265 -260 249 -253 q 288 -267 282 -267 q 326 -238 311 -267 q 342 -171 342 -210 q 321 -108 342 -125 l 303 -111 l 283 -114 q 246 -86 263 -114 q 257 -6 257 -57 l 257 10 l 297 15 q 292 -56 292 -26 q 393 -194 393 -61 q 378 -242 393 -217 q 339 -286 364 -268 q 288 -304 314 -304 z "},"Ĉ":{"ha":458,"x_min":85,"x_max":435,"o":"m 281 -22 q 199 8 242 -22 q 138 78 156 39 q 103 307 121 114 q 86 594 86 500 l 86 668 q 85 739 85 700 q 93 882 85 811 q 108 942 99 917 q 133 990 117 967 q 225 1053 164 1038 q 296 1061 257 1061 q 349 1046 322 1061 q 376 1010 376 1031 q 354 994 376 994 q 322 1004 346 994 q 285 1014 301 1014 q 215 998 246 1014 q 165 956 183 982 q 139 894 150 933 q 125 817 128 856 q 121 733 121 782 l 122 656 q 124 583 124 622 q 143 301 124 488 q 181 86 163 115 q 230 46 197 60 q 299 32 263 32 q 396 72 363 32 q 422 89 408 89 q 435 69 435 89 q 419 26 435 44 q 378 -3 404 7 q 281 -22 333 -22 m 274 1083 q 235 1292 267 1172 q 188 1158 229 1283 q 176 1111 176 1122 l 153 1079 l 126 1097 q 151 1176 128 1118 q 203 1283 175 1235 q 243 1332 231 1332 q 264 1303 264 1332 q 289 1190 264 1257 l 304 1140 l 303 1132 l 314 1111 l 313 1104 q 316 1095 314 1099 q 318 1089 318 1092 q 293 1072 318 1076 l 274 1083 z "},"Ċ":{"ha":458,"x_min":85,"x_max":435,"o":"m 281 -22 q 199 8 242 -22 q 138 78 156 39 q 103 307 121 114 q 86 594 86 500 l 86 668 q 85 739 85 700 q 93 882 85 811 q 108 942 99 917 q 133 990 117 967 q 225 1053 164 1038 q 296 1061 257 1061 q 349 1046 322 1061 q 376 1010 376 1031 q 354 994 376 994 q 322 1004 346 994 q 285 1014 301 1014 q 215 998 246 1014 q 165 956 183 982 q 139 894 150 933 q 125 817 128 856 q 121 733 121 782 l 122 656 q 124 583 124 622 q 143 301 124 488 q 181 86 163 115 q 230 46 197 60 q 299 32 263 32 q 396 72 363 32 q 422 89 408 89 q 435 69 435 89 q 419 26 435 44 q 378 -3 404 7 q 281 -22 333 -22 m 225 1117 q 203 1127 213 1117 q 194 1150 194 1138 q 206 1176 194 1164 q 231 1188 217 1188 q 253 1176 243 1188 q 264 1151 264 1164 q 225 1117 264 1117 z "},"D":{"ha":529,"x_min":88,"x_max":438,"o":"m 161 -3 q 128 6 144 -3 q 111 25 111 14 q 122 53 111 33 q 132 81 133 71 l 128 203 l 118 582 l 115 750 q 108 943 114 904 q 97 978 106 958 q 88 1015 88 1004 q 193 1049 88 1049 l 200 1049 q 322 1000 271 1049 q 394 882 363 963 q 428 739 417 818 q 438 611 433 697 l 438 568 q 415 381 438 482 q 350 193 392 281 q 285 93 325 138 q 210 23 246 49 q 161 -3 174 -3 m 182 68 q 274 145 233 94 q 338 257 314 196 q 372 374 358 308 q 392 497 386 440 q 396 593 396 547 q 172 999 396 999 q 143 983 143 999 q 149 868 143 935 q 154 753 154 800 q 165 488 154 676 q 175 224 175 324 l 175 68 l 182 68 z "},"Ǳ":{"ha":872,"x_min":88,"x_max":783,"o":"m 161 -3 q 128 6 144 -3 q 111 25 111 14 q 122 53 111 33 q 132 81 133 71 l 128 203 l 118 582 l 115 750 q 108 943 114 904 q 97 978 106 958 q 88 1015 88 1004 q 193 1049 88 1049 l 200 1049 q 322 1000 271 1049 q 394 882 363 963 q 428 739 417 818 q 438 611 433 697 l 438 568 q 415 381 438 482 q 350 193 392 281 q 285 93 325 138 q 210 23 246 49 q 161 -3 174 -3 m 182 68 q 274 145 233 94 q 338 257 314 196 q 372 374 358 308 q 392 497 386 440 q 396 593 396 547 q 172 999 396 999 q 143 983 143 999 q 149 868 143 935 q 154 753 154 800 q 165 488 154 676 q 175 224 175 324 l 175 68 l 182 68 m 597 -12 q 576 6 586 -12 q 619 118 604 54 q 644 276 633 182 q 661 399 653 360 l 725 860 q 732 908 729 888 q 743 1017 743 983 q 697 1013 728 1017 l 650 1010 q 588 1038 588 1010 l 597 1049 q 631 1046 606 1046 q 696 1053 650 1046 q 761 1060 732 1060 q 783 1035 783 1060 q 761 901 768 1001 q 756 840 758 853 l 714 525 q 658 132 679 253 q 642 82 657 118 q 626 26 626 44 l 672 29 q 717 33 701 33 q 775 6 775 33 l 763 -7 q 681 -10 717 -7 l 597 -12 z "},"Ǆ":{"ha":872,"x_min":88,"x_max":783,"o":"m 161 -3 q 128 6 144 -3 q 111 25 111 14 q 122 53 111 33 q 132 81 133 71 l 128 203 l 118 582 l 115 750 q 108 943 114 904 q 97 978 106 958 q 88 1015 88 1004 q 193 1049 88 1049 l 200 1049 q 322 1000 271 1049 q 394 882 363 963 q 428 739 417 818 q 438 611 433 697 l 438 568 q 415 381 438 482 q 350 193 392 281 q 285 93 325 138 q 210 23 246 49 q 161 -3 174 -3 m 182 68 q 274 145 233 94 q 338 257 314 196 q 372 374 358 308 q 392 497 386 440 q 396 593 396 547 q 172 999 396 999 q 143 983 143 999 q 149 868 143 935 q 154 753 154 800 q 165 488 154 676 q 175 224 175 324 l 175 68 l 182 68 m 597 -12 q 576 6 586 -12 q 619 118 604 54 q 644 276 633 182 q 661 399 653 360 l 725 860 q 732 908 729 888 q 743 1017 743 983 q 697 1013 728 1017 l 650 1010 q 588 1038 588 1010 l 597 1049 q 631 1046 606 1046 q 696 1053 650 1046 q 761 1060 732 1060 q 783 1035 783 1060 q 761 901 768 1001 q 756 840 758 853 l 714 525 q 658 132 679 253 q 642 82 657 118 q 626 26 626 44 l 672 29 q 717 33 701 33 q 775 6 775 33 l 763 -7 q 681 -10 717 -7 l 597 -12 m 701 1089 q 661 1138 689 1089 q 610 1244 633 1186 q 585 1324 586 1303 l 611 1342 l 635 1310 q 646 1263 635 1299 q 673 1185 660 1224 q 693 1129 686 1146 q 732 1338 725 1250 l 751 1349 q 776 1332 776 1344 q 771 1317 776 1331 l 772 1310 l 761 1289 l 763 1281 l 747 1231 q 722 1118 722 1164 q 701 1089 722 1089 z "},"Ð":{"ha":597,"x_min":35,"x_max":483,"o":"m 204 -60 q 189 -54 192 -56 q 173 -47 178 -51 q 164 -33 168 -43 l 163 -33 q 150 408 163 150 q 147 444 147 433 q 143 483 146 461 q 139 511 140 506 q 96 507 124 511 q 54 503 67 503 q 38 508 42 503 q 35 526 35 513 q 121 551 35 551 l 133 551 l 139 554 l 139 557 l 140 561 q 131 686 140 589 q 121 811 121 764 l 118 894 l 115 936 q 110 1060 110 1008 q 118 1078 110 1067 q 132 1089 126 1089 q 219 1065 174 1089 q 301 1001 264 1042 q 418 842 372 926 l 418 839 q 483 440 483 654 q 449 247 483 347 q 350 63 414 147 q 204 -60 283 -25 m 210 4 q 232 14 222 7 q 250 31 236 17 l 260 40 q 382 220 331 111 q 433 418 433 329 q 432 536 433 500 q 424 628 431 572 q 404 738 418 679 q 317 933 381 850 q 160 1043 254 1015 l 157 1040 q 167 753 157 932 q 190 557 178 574 q 238 565 207 557 q 286 572 275 572 q 305 562 297 572 q 315 539 313 551 l 301 522 q 188 513 228 522 q 192 392 189 469 q 197 306 196 314 l 196 304 q 203 154 196 268 q 210 4 210 43 z "},"Ď":{"ha":529,"x_min":81,"x_max":438,"o":"m 161 -3 q 128 6 144 -3 q 111 25 111 14 q 122 53 111 33 q 132 81 133 71 l 128 203 l 118 582 l 115 750 q 108 943 114 904 q 97 978 106 958 q 88 1015 88 1004 q 193 1049 88 1049 l 200 1049 q 322 1000 271 1049 q 394 882 363 963 q 428 739 417 818 q 438 611 433 697 l 438 568 q 415 381 438 482 q 350 193 392 281 q 285 93 325 138 q 210 23 246 49 q 161 -3 174 -3 m 182 68 q 274 145 233 94 q 338 257 314 196 q 372 374 358 308 q 392 497 386 440 q 396 593 396 547 q 172 999 396 999 q 143 983 143 999 q 149 868 143 935 q 154 753 154 800 q 165 488 154 676 q 175 224 175 324 l 175 68 l 182 68 m 197 1089 q 157 1138 185 1089 q 106 1244 129 1186 q 81 1324 82 1303 l 107 1342 l 131 1310 q 142 1263 131 1299 q 169 1185 156 1224 q 189 1129 182 1146 q 228 1338 221 1250 l 247 1349 q 272 1332 272 1344 q 267 1317 272 1331 l 268 1310 l 257 1289 l 258 1281 l 243 1231 q 218 1118 218 1164 q 197 1089 218 1089 z "},"Đ":{"ha":597,"x_min":35,"x_max":483,"o":"m 204 -60 q 189 -54 192 -56 q 173 -47 178 -51 q 164 -33 168 -43 l 163 -33 q 150 408 163 150 q 147 444 147 433 q 143 483 146 461 q 139 511 140 506 q 96 507 124 511 q 54 503 67 503 q 38 508 42 503 q 35 526 35 513 q 121 551 35 551 l 133 551 l 139 554 l 139 557 l 140 561 q 131 686 140 589 q 121 811 121 764 l 118 894 l 115 936 q 110 1060 110 1008 q 118 1078 110 1067 q 132 1089 126 1089 q 219 1065 174 1089 q 301 1001 264 1042 q 418 842 372 926 l 418 839 q 483 440 483 654 q 449 247 483 347 q 350 63 414 147 q 204 -60 283 -25 m 210 4 q 232 14 222 7 q 250 31 236 17 l 260 40 q 382 220 331 111 q 433 418 433 329 q 432 536 433 500 q 424 628 431 572 q 404 738 418 679 q 317 933 381 850 q 160 1043 254 1015 l 157 1040 q 167 753 157 932 q 190 557 178 574 q 238 565 207 557 q 286 572 275 572 q 305 562 297 572 q 315 539 313 551 l 301 522 q 188 513 228 522 q 192 392 189 469 q 197 306 196 314 l 196 304 q 203 154 196 268 q 210 4 210 43 z "},"Ḋ":{"ha":529,"x_min":88,"x_max":438,"o":"m 161 -3 q 128 6 144 -3 q 111 25 111 14 q 122 53 111 33 q 132 81 133 71 l 128 203 l 118 582 l 115 750 q 108 943 114 904 q 97 978 106 958 q 88 1015 88 1004 q 193 1049 88 1049 l 200 1049 q 322 1000 271 1049 q 394 882 363 963 q 428 739 417 818 q 438 611 433 697 l 438 568 q 415 381 438 482 q 350 193 392 281 q 285 93 325 138 q 210 23 246 49 q 161 -3 174 -3 m 182 68 q 274 145 233 94 q 338 257 314 196 q 372 374 358 308 q 392 497 386 440 q 396 593 396 547 q 172 999 396 999 q 143 983 143 999 q 149 868 143 935 q 154 753 154 800 q 165 488 154 676 q 175 224 175 324 l 175 68 l 182 68 m 172 1117 q 151 1127 160 1117 q 142 1150 142 1138 q 153 1176 142 1164 q 178 1188 164 1188 q 201 1176 190 1188 q 211 1151 211 1164 q 172 1117 211 1117 z "},"ǲ":{"ha":885,"x_min":88,"x_max":828,"o":"m 161 -3 q 128 6 144 -3 q 111 25 111 14 q 122 53 111 33 q 132 81 133 71 l 128 203 l 118 582 l 115 750 q 108 943 114 904 q 97 978 106 958 q 88 1015 88 1004 q 193 1049 88 1049 l 200 1049 q 322 1000 271 1049 q 394 882 363 963 q 428 739 417 818 q 438 611 433 697 l 438 568 q 415 381 438 482 q 350 193 392 281 q 285 93 325 138 q 210 23 246 49 q 161 -3 174 -3 m 182 68 q 274 145 233 94 q 338 257 314 196 q 372 374 358 308 q 392 497 386 440 q 396 593 396 547 q 172 999 396 999 q 143 983 143 999 q 149 868 143 935 q 154 753 154 800 q 165 488 154 676 q 175 224 175 324 l 175 68 l 182 68 m 604 -3 q 583 18 583 -3 q 597 90 583 35 l 610 138 q 631 215 629 204 q 657 329 640 246 q 684 451 675 415 q 722 575 693 488 q 772 756 756 685 q 789 883 789 828 q 724 879 768 883 q 658 875 681 875 q 644 882 650 875 q 639 897 639 889 q 689 915 639 910 q 793 919 739 919 q 810 918 803 919 q 822 913 817 917 q 828 897 828 904 q 793 746 828 849 q 760 621 760 640 q 728 500 756 599 l 718 467 q 629 43 631 179 q 669 40 639 40 q 699 43 686 40 q 728 44 711 44 q 768 26 768 44 q 736 8 768 8 q 696 10 714 8 l 654 13 q 624 4 639 13 q 604 -3 607 -3 z "},"ǅ":{"ha":885,"x_min":88,"x_max":828,"o":"m 161 -3 q 128 6 144 -3 q 111 25 111 14 q 122 53 111 33 q 132 81 133 71 l 128 203 l 118 582 l 115 750 q 108 943 114 904 q 97 978 106 958 q 88 1015 88 1004 q 193 1049 88 1049 l 200 1049 q 322 1000 271 1049 q 394 882 363 963 q 428 739 417 818 q 438 611 433 697 l 438 568 q 415 381 438 482 q 350 193 392 281 q 285 93 325 138 q 210 23 246 49 q 161 -3 174 -3 m 182 68 q 274 145 233 94 q 338 257 314 196 q 372 374 358 308 q 392 497 386 440 q 396 593 396 547 q 172 999 396 999 q 143 983 143 999 q 149 868 143 935 q 154 753 154 800 q 165 488 154 676 q 175 224 175 324 l 175 68 l 182 68 m 604 -3 q 583 18 583 -3 q 597 90 583 35 l 610 138 q 631 215 629 204 q 657 329 640 246 q 684 451 675 415 q 722 575 693 488 q 772 756 756 685 q 789 883 789 828 q 724 879 768 883 q 658 875 681 875 q 644 882 650 875 q 639 897 639 889 q 689 915 639 910 q 793 919 739 919 q 810 918 803 919 q 822 913 817 917 q 828 897 828 904 q 793 746 828 849 q 760 621 760 640 q 728 500 756 599 l 718 467 q 629 43 631 179 q 669 40 639 40 q 699 43 686 40 q 728 44 711 44 q 768 26 768 44 q 736 8 768 8 q 696 10 714 8 l 654 13 q 624 4 639 13 q 604 -3 607 -3 m 744 986 q 704 1035 732 986 q 653 1142 676 1083 q 628 1221 629 1200 l 654 1239 l 678 1207 q 689 1160 678 1196 q 716 1082 703 1121 q 736 1026 729 1043 q 775 1235 768 1147 l 794 1246 q 819 1229 819 1242 q 814 1214 819 1228 l 815 1207 l 804 1186 l 806 1178 l 790 1128 q 765 1015 765 1061 q 744 986 765 986 z "},"E":{"ha":346,"x_min":94,"x_max":297,"o":"m 158 -8 q 112 -2 125 -8 q 99 22 99 4 l 99 49 q 97 74 97 60 l 97 76 l 99 279 l 97 853 q 94 1007 97 942 q 101 1035 94 1024 q 119 1046 108 1046 l 206 1046 q 235 1043 225 1046 q 249 1019 249 1039 q 240 1001 249 1008 q 222 993 232 994 l 199 993 l 176 994 l 154 996 q 141 992 144 996 q 138 979 138 989 q 139 861 138 914 l 139 743 l 139 569 q 142 567 139 567 l 143 567 l 144 567 q 219 569 179 569 q 242 550 242 569 q 237 531 242 536 q 221 526 232 526 l 142 526 q 136 519 136 526 l 139 314 q 142 93 142 218 l 142 42 l 201 42 l 260 42 l 272 42 q 297 24 297 42 q 285 -3 297 1 q 217 -8 268 -8 l 158 -8 z "},"É":{"ha":346,"x_min":94,"x_max":349,"o":"m 158 -8 q 112 -2 125 -8 q 99 22 99 4 l 99 49 q 97 74 97 60 l 97 76 l 99 279 l 97 853 q 94 1007 97 942 q 101 1035 94 1024 q 119 1046 108 1046 l 206 1046 q 235 1043 225 1046 q 249 1019 249 1039 q 240 1001 249 1008 q 222 993 232 994 l 199 993 l 176 994 l 154 996 q 141 992 144 996 q 138 979 138 989 q 139 861 138 914 l 139 743 l 139 569 q 142 567 139 567 l 143 567 l 144 567 q 219 569 179 569 q 242 550 242 569 q 237 531 242 536 q 221 526 232 526 l 142 526 q 136 519 136 526 l 139 314 q 142 93 142 218 l 142 42 l 201 42 l 260 42 l 272 42 q 297 24 297 42 q 285 -3 297 1 q 217 -8 268 -8 l 158 -8 m 171 1113 q 153 1118 161 1113 q 146 1132 146 1124 q 185 1168 146 1136 l 229 1204 l 267 1233 q 318 1274 314 1269 q 349 1253 349 1274 l 344 1231 q 171 1113 272 1197 z "},"Ĕ":{"ha":346,"x_min":69,"x_max":297,"o":"m 158 -8 q 112 -2 125 -8 q 99 22 99 4 l 99 49 q 97 74 97 60 l 97 76 l 99 279 l 97 853 q 94 1007 97 942 q 101 1035 94 1024 q 119 1046 108 1046 l 206 1046 q 235 1043 225 1046 q 249 1019 249 1039 q 240 1001 249 1008 q 222 993 232 994 l 199 993 l 176 994 l 154 996 q 141 992 144 996 q 138 979 138 989 q 139 861 138 914 l 139 743 l 139 569 q 142 567 139 567 l 143 567 l 144 567 q 219 569 179 569 q 242 550 242 569 q 237 531 242 536 q 221 526 232 526 l 142 526 q 136 519 136 526 l 139 314 q 142 93 142 218 l 142 42 l 201 42 l 260 42 l 272 42 q 297 24 297 42 q 285 -3 297 1 q 217 -8 268 -8 l 158 -8 m 171 1100 q 90 1147 115 1100 q 69 1242 69 1192 l 85 1254 q 99 1232 94 1251 q 133 1143 110 1160 l 149 1132 l 183 1132 q 215 1156 200 1132 q 231 1203 231 1181 l 231 1213 q 229 1222 229 1217 q 254 1249 229 1249 q 268 1242 261 1249 q 275 1229 275 1236 l 272 1217 l 268 1207 l 271 1197 q 267 1187 269 1193 q 261 1174 264 1181 q 238 1131 247 1143 q 223 1114 231 1119 q 201 1104 215 1108 q 171 1100 186 1100 z "},"Ě":{"ha":346,"x_min":78,"x_max":297,"o":"m 158 -8 q 112 -2 125 -8 q 99 22 99 4 l 99 49 q 97 74 97 60 l 97 76 l 99 279 l 97 853 q 94 1007 97 942 q 101 1035 94 1024 q 119 1046 108 1046 l 206 1046 q 235 1043 225 1046 q 249 1019 249 1039 q 240 1001 249 1008 q 222 993 232 994 l 199 993 l 176 994 l 154 996 q 141 992 144 996 q 138 979 138 989 q 139 861 138 914 l 139 743 l 139 569 q 142 567 139 567 l 143 567 l 144 567 q 219 569 179 569 q 242 550 242 569 q 237 531 242 536 q 221 526 232 526 l 142 526 q 136 519 136 526 l 139 314 q 142 93 142 218 l 142 42 l 201 42 l 260 42 l 272 42 q 297 24 297 42 q 285 -3 297 1 q 217 -8 268 -8 l 158 -8 m 194 1089 q 154 1138 182 1089 q 103 1244 126 1186 q 78 1324 79 1303 l 104 1342 l 128 1310 q 139 1263 128 1299 q 166 1185 153 1224 q 186 1129 179 1146 q 225 1338 218 1250 l 244 1349 q 269 1332 269 1344 q 264 1317 269 1331 l 265 1310 l 254 1289 l 256 1281 l 240 1231 q 215 1118 215 1164 q 194 1089 215 1089 z "},"Ȩ":{"ha":346,"x_min":94,"x_max":297,"o":"m 158 -8 q 112 -2 125 -8 q 99 22 99 4 l 99 49 q 97 74 97 60 l 97 76 l 99 279 l 97 853 q 94 1007 97 942 q 101 1035 94 1024 q 119 1046 108 1046 l 206 1046 q 235 1043 225 1046 q 249 1019 249 1039 q 240 1001 249 1008 q 222 993 232 994 l 199 993 l 176 994 l 154 996 q 141 992 144 996 q 138 979 138 989 q 139 861 138 914 l 139 743 l 139 569 q 142 567 139 567 l 143 567 l 144 567 q 219 569 179 569 q 242 550 242 569 q 237 531 242 536 q 221 526 232 526 l 142 526 q 136 519 136 526 l 139 314 q 142 93 142 218 l 142 42 l 201 42 l 260 42 l 272 42 q 297 24 297 42 q 285 -3 297 1 q 217 -8 268 -8 l 158 -8 m 185 -304 q 144 -294 163 -304 q 125 -267 125 -283 q 140 -253 125 -253 q 163 -260 146 -253 q 185 -267 179 -267 q 224 -238 208 -267 q 239 -171 239 -210 q 218 -108 239 -125 l 200 -111 l 181 -114 q 143 -86 160 -114 q 154 -6 154 -57 l 154 10 l 194 15 q 189 -56 189 -26 q 290 -194 290 -61 q 276 -242 290 -217 q 236 -286 261 -268 q 185 -304 211 -304 z "},"Ê":{"ha":346,"x_min":71,"x_max":297,"o":"m 158 -8 q 112 -2 125 -8 q 99 22 99 4 l 99 49 q 97 74 97 60 l 97 76 l 99 279 l 97 853 q 94 1007 97 942 q 101 1035 94 1024 q 119 1046 108 1046 l 206 1046 q 235 1043 225 1046 q 249 1019 249 1039 q 240 1001 249 1008 q 222 993 232 994 l 199 993 l 176 994 l 154 996 q 141 992 144 996 q 138 979 138 989 q 139 861 138 914 l 139 743 l 139 569 q 142 567 139 567 l 143 567 l 144 567 q 219 569 179 569 q 242 550 242 569 q 237 531 242 536 q 221 526 232 526 l 142 526 q 136 519 136 526 l 139 314 q 142 93 142 218 l 142 42 l 201 42 l 260 42 l 272 42 q 297 24 297 42 q 285 -3 297 1 q 217 -8 268 -8 l 158 -8 m 218 1083 q 179 1292 211 1172 q 132 1158 174 1283 q 121 1111 121 1122 l 97 1079 l 71 1097 q 96 1176 72 1118 q 147 1283 119 1235 q 188 1332 175 1332 q 208 1303 208 1332 q 233 1190 208 1257 l 249 1140 l 247 1132 l 258 1111 l 257 1104 q 260 1095 258 1099 q 263 1089 263 1092 q 238 1072 263 1076 l 218 1083 z "},"Ế":{"ha":346,"x_min":78,"x_max":449,"o":"m 158 -8 q 112 -2 125 -8 q 99 22 99 4 l 99 49 q 97 74 97 60 l 97 76 l 99 279 l 97 853 q 94 1007 97 942 q 101 1035 94 1024 q 119 1046 108 1046 l 206 1046 q 235 1043 225 1046 q 249 1019 249 1039 q 240 1001 249 1008 q 222 993 232 994 l 199 993 l 176 994 l 154 996 q 141 992 144 996 q 138 979 138 989 q 139 861 138 914 l 139 743 l 139 569 q 142 567 139 567 l 143 567 l 144 567 q 219 569 179 569 q 242 550 242 569 q 237 531 242 536 q 221 526 232 526 l 142 526 q 136 519 136 526 l 139 314 q 142 93 142 218 l 142 42 l 201 42 l 260 42 l 272 42 q 297 24 297 42 q 285 -3 297 1 q 217 -8 268 -8 l 158 -8 m 225 1076 q 186 1285 218 1165 q 139 1151 181 1276 q 128 1104 128 1115 l 104 1072 l 78 1090 q 103 1169 79 1111 q 154 1276 126 1228 q 194 1325 182 1325 q 215 1296 215 1325 q 240 1183 215 1250 l 256 1133 l 254 1125 l 265 1104 l 264 1097 q 267 1088 265 1092 q 269 1082 269 1085 q 244 1065 269 1069 l 225 1076 m 271 1219 q 253 1225 261 1219 q 246 1239 246 1231 q 285 1275 246 1243 l 329 1311 l 367 1340 q 418 1381 414 1376 q 449 1360 449 1381 l 444 1338 q 271 1219 372 1304 z "},"Ệ":{"ha":346,"x_min":71,"x_max":297,"o":"m 158 -8 q 112 -2 125 -8 q 99 22 99 4 l 99 49 q 97 74 97 60 l 97 76 l 99 279 l 97 853 q 94 1007 97 942 q 101 1035 94 1024 q 119 1046 108 1046 l 206 1046 q 235 1043 225 1046 q 249 1019 249 1039 q 240 1001 249 1008 q 222 993 232 994 l 199 993 l 176 994 l 154 996 q 141 992 144 996 q 138 979 138 989 q 139 861 138 914 l 139 743 l 139 569 q 142 567 139 567 l 143 567 l 144 567 q 219 569 179 569 q 242 550 242 569 q 237 531 242 536 q 221 526 232 526 l 142 526 q 136 519 136 526 l 139 314 q 142 93 142 218 l 142 42 l 201 42 l 260 42 l 272 42 q 297 24 297 42 q 285 -3 297 1 q 217 -8 268 -8 l 158 -8 m 169 -162 q 148 -152 157 -162 q 139 -129 139 -142 q 150 -103 139 -115 q 175 -92 161 -92 q 198 -103 188 -92 q 208 -128 208 -115 q 169 -162 208 -162 m 218 1083 q 179 1292 211 1172 q 132 1158 174 1283 q 121 1111 121 1122 l 97 1079 l 71 1097 q 96 1176 72 1118 q 147 1283 119 1235 q 188 1332 175 1332 q 208 1303 208 1332 q 233 1190 208 1257 l 249 1140 l 247 1132 l 258 1111 l 257 1104 q 260 1095 258 1099 q 263 1089 263 1092 q 238 1072 263 1076 l 218 1083 z "},"Ề":{"ha":346,"x_min":-72,"x_max":297,"o":"m 158 -8 q 112 -2 125 -8 q 99 22 99 4 l 99 49 q 97 74 97 60 l 97 76 l 99 279 l 97 853 q 94 1007 97 942 q 101 1035 94 1024 q 119 1046 108 1046 l 206 1046 q 235 1043 225 1046 q 249 1019 249 1039 q 240 1001 249 1008 q 222 993 232 994 l 199 993 l 176 994 l 154 996 q 141 992 144 996 q 138 979 138 989 q 139 861 138 914 l 139 743 l 139 569 q 142 567 139 567 l 143 567 l 144 567 q 219 569 179 569 q 242 550 242 569 q 237 531 242 536 q 221 526 232 526 l 142 526 q 136 519 136 526 l 139 314 q 142 93 142 218 l 142 42 l 201 42 l 260 42 l 272 42 q 297 24 297 42 q 285 -3 297 1 q 217 -8 268 -8 l 158 -8 m 217 1078 q 178 1286 210 1167 q 131 1153 172 1278 q 119 1106 119 1117 l 96 1074 l 69 1092 q 94 1171 71 1113 q 146 1278 118 1229 q 186 1326 174 1326 q 207 1297 207 1326 q 232 1185 207 1251 l 247 1135 l 246 1126 l 257 1106 l 256 1099 q 259 1090 257 1093 q 261 1083 261 1086 q 236 1067 261 1071 l 217 1078 m -702 1455 q -783 1438 -725 1450 q -848 1428 -842 1427 q -866 1414 -854 1421 q -921 1415 -907 1391 q -929 1445 -934 1437 l -922 1450 q -867 1464 -886 1470 q -850 1467 -867 1462 q -792 1477 -836 1470 q -729 1482 -756 1481 q -693 1473 -699 1482 q -694 1463 -691 1469 q -702 1455 -697 1458 z "},"Ể":{"ha":346,"x_min":81,"x_max":419,"o":"m 158 -8 q 112 -2 125 -8 q 99 22 99 4 l 99 49 q 97 74 97 60 l 97 76 l 99 279 l 97 853 q 94 1007 97 942 q 101 1035 94 1024 q 119 1046 108 1046 l 206 1046 q 235 1043 225 1046 q 249 1019 249 1039 q 240 1001 249 1008 q 222 993 232 994 l 199 993 l 176 994 l 154 996 q 141 992 144 996 q 138 979 138 989 q 139 861 138 914 l 139 743 l 139 569 q 142 567 139 567 l 143 567 l 144 567 q 219 569 179 569 q 242 550 242 569 q 237 531 242 536 q 221 526 232 526 l 142 526 q 136 519 136 526 l 139 314 q 142 93 142 218 l 142 42 l 201 42 l 260 42 l 272 42 q 297 24 297 42 q 285 -3 297 1 q 217 -8 268 -8 l 158 -8 m 228 1081 q 189 1289 221 1169 q 142 1156 183 1281 q 131 1108 131 1119 l 107 1076 l 81 1094 q 106 1174 82 1115 q 157 1281 129 1232 q 197 1329 185 1329 q 218 1300 218 1329 q 243 1188 218 1254 l 258 1138 l 257 1129 l 268 1108 l 267 1101 q 270 1092 268 1096 q 272 1086 272 1089 q 247 1069 272 1074 l 228 1081 m 339 1211 q 324 1228 325 1211 l 324 1235 q 332 1253 324 1244 q 356 1271 340 1261 q 367 1279 358 1272 q 381 1292 376 1286 q 385 1303 385 1297 q 340 1329 385 1329 q 301 1323 314 1329 q 289 1300 289 1317 q 292 1282 289 1296 q 278 1279 283 1279 q 258 1303 258 1279 q 278 1341 258 1325 q 340 1357 299 1357 q 401 1343 383 1357 q 419 1303 419 1329 q 411 1281 419 1290 q 383 1258 403 1272 q 363 1242 369 1249 q 356 1229 356 1236 l 356 1219 q 339 1211 347 1211 z "},"Ễ":{"ha":346,"x_min":19,"x_max":313,"o":"m 158 -8 q 112 -2 125 -8 q 99 22 99 4 l 99 49 q 97 74 97 60 l 97 76 l 99 279 l 97 853 q 94 1007 97 942 q 101 1035 94 1024 q 119 1046 108 1046 l 206 1046 q 235 1043 225 1046 q 249 1019 249 1039 q 240 1001 249 1008 q 222 993 232 994 l 199 993 l 176 994 l 154 996 q 141 992 144 996 q 138 979 138 989 q 139 861 138 914 l 139 743 l 139 569 q 142 567 139 567 l 143 567 l 144 567 q 219 569 179 569 q 242 550 242 569 q 237 531 242 536 q 221 526 232 526 l 142 526 q 136 519 136 526 l 139 314 q 142 93 142 218 l 142 42 l 201 42 l 260 42 l 272 42 q 297 24 297 42 q 285 -3 297 1 q 217 -8 268 -8 l 158 -8 m 218 1083 q 179 1292 211 1172 q 132 1158 174 1283 q 121 1111 121 1122 l 97 1079 l 71 1097 q 96 1176 72 1118 q 147 1283 119 1235 q 188 1332 175 1332 q 208 1303 208 1332 q 233 1190 208 1257 l 249 1140 l 247 1132 l 258 1111 l 257 1104 q 260 1095 258 1099 q 263 1089 263 1092 q 238 1072 263 1076 l 218 1083 m 46 1375 q 28 1383 38 1375 q 19 1399 19 1390 q 43 1468 19 1442 q 101 1494 67 1494 q 160 1467 136 1494 q 194 1429 171 1446 q 239 1413 218 1413 q 275 1463 275 1413 l 272 1476 l 267 1489 q 281 1497 271 1497 q 304 1483 296 1497 q 313 1450 313 1469 q 290 1399 313 1421 q 239 1376 268 1376 q 192 1390 217 1376 q 151 1419 167 1404 q 115 1458 140 1429 l 106 1463 q 69 1451 85 1463 q 54 1425 54 1440 l 61 1396 l 46 1375 z "},"Ȅ":{"ha":346,"x_min":-146,"x_max":297,"o":"m 158 -8 q 112 -2 125 -8 q 99 22 99 4 l 99 49 q 97 74 97 60 l 97 76 l 99 279 l 97 853 q 94 1007 97 942 q 101 1035 94 1024 q 119 1046 108 1046 l 206 1046 q 235 1043 225 1046 q 249 1019 249 1039 q 240 1001 249 1008 q 222 993 232 994 l 199 993 l 176 994 l 154 996 q 141 992 144 996 q 138 979 138 989 q 139 861 138 914 l 139 743 l 139 569 q 142 567 139 567 l 143 567 l 144 567 q 219 569 179 569 q 242 550 242 569 q 237 531 242 536 q 221 526 232 526 l 142 526 q 136 519 136 526 l 139 314 q 142 93 142 218 l 142 42 l 201 42 l 260 42 l 272 42 q 297 24 297 42 q 285 -3 297 1 q 217 -8 268 -8 l 158 -8 m 290 1093 q 232 1124 267 1097 q 183 1154 201 1146 q 58 1253 144 1182 q 49 1267 49 1257 q 55 1280 49 1272 q 64 1288 61 1288 q 129 1244 72 1288 q 240 1156 186 1201 q 296 1100 294 1110 l 290 1093 m 114 1096 q 86 1111 110 1096 q 36 1144 61 1126 l 1 1165 l -74 1203 l -146 1243 q -134 1265 -143 1254 q -117 1276 -125 1276 q -39 1236 -107 1276 q 56 1168 -12 1219 q 122 1107 122 1117 q 114 1096 122 1096 z "},"Ë":{"ha":346,"x_min":53,"x_max":300,"o":"m 158 -8 q 112 -2 125 -8 q 99 22 99 4 l 99 49 q 97 74 97 60 l 97 76 l 99 279 l 97 853 q 94 1007 97 942 q 101 1035 94 1024 q 119 1046 108 1046 l 206 1046 q 235 1043 225 1046 q 249 1019 249 1039 q 240 1001 249 1008 q 222 993 232 994 l 199 993 l 176 994 l 154 996 q 141 992 144 996 q 138 979 138 989 q 139 861 138 914 l 139 743 l 139 569 q 142 567 139 567 l 143 567 l 144 567 q 219 569 179 569 q 242 550 242 569 q 237 531 242 536 q 221 526 232 526 l 142 526 q 136 519 136 526 l 139 314 q 142 93 142 218 l 142 42 l 201 42 l 260 42 l 272 42 q 297 24 297 42 q 285 -3 297 1 q 217 -8 268 -8 l 158 -8 m 264 1124 q 244 1133 253 1124 q 236 1154 236 1143 q 247 1178 236 1167 q 269 1189 257 1189 q 291 1178 282 1189 q 300 1156 300 1167 q 264 1124 300 1124 m 79 1118 q 60 1129 68 1118 q 53 1153 53 1140 q 63 1176 53 1165 q 86 1188 74 1188 q 107 1174 100 1188 q 114 1142 114 1160 q 103 1124 114 1131 q 79 1118 93 1118 z "},"Ė":{"ha":346,"x_min":94,"x_max":297,"o":"m 158 -8 q 112 -2 125 -8 q 99 22 99 4 l 99 49 q 97 74 97 60 l 97 76 l 99 279 l 97 853 q 94 1007 97 942 q 101 1035 94 1024 q 119 1046 108 1046 l 206 1046 q 235 1043 225 1046 q 249 1019 249 1039 q 240 1001 249 1008 q 222 993 232 994 l 199 993 l 176 994 l 154 996 q 141 992 144 996 q 138 979 138 989 q 139 861 138 914 l 139 743 l 139 569 q 142 567 139 567 l 143 567 l 144 567 q 219 569 179 569 q 242 550 242 569 q 237 531 242 536 q 221 526 232 526 l 142 526 q 136 519 136 526 l 139 314 q 142 93 142 218 l 142 42 l 201 42 l 260 42 l 272 42 q 297 24 297 42 q 285 -3 297 1 q 217 -8 268 -8 l 158 -8 m 169 1117 q 148 1127 157 1117 q 139 1150 139 1138 q 150 1176 139 1164 q 175 1188 161 1188 q 198 1176 188 1188 q 208 1151 208 1164 q 169 1117 208 1117 z "},"Ẹ":{"ha":346,"x_min":94,"x_max":297,"o":"m 158 -8 q 112 -2 125 -8 q 99 22 99 4 l 99 49 q 97 74 97 60 l 97 76 l 99 279 l 97 853 q 94 1007 97 942 q 101 1035 94 1024 q 119 1046 108 1046 l 206 1046 q 235 1043 225 1046 q 249 1019 249 1039 q 240 1001 249 1008 q 222 993 232 994 l 199 993 l 176 994 l 154 996 q 141 992 144 996 q 138 979 138 989 q 139 861 138 914 l 139 743 l 139 569 q 142 567 139 567 l 143 567 l 144 567 q 219 569 179 569 q 242 550 242 569 q 237 531 242 536 q 221 526 232 526 l 142 526 q 136 519 136 526 l 139 314 q 142 93 142 218 l 142 42 l 201 42 l 260 42 l 272 42 q 297 24 297 42 q 285 -3 297 1 q 217 -8 268 -8 l 158 -8 m 169 -162 q 148 -152 157 -162 q 139 -129 139 -142 q 150 -103 139 -115 q 175 -92 161 -92 q 198 -103 188 -92 q 208 -128 208 -115 q 169 -162 208 -162 z "},"È":{"ha":346,"x_min":31,"x_max":297,"o":"m 158 -8 q 112 -2 125 -8 q 99 22 99 4 l 99 49 q 97 74 97 60 l 97 76 l 99 279 l 97 853 q 94 1007 97 942 q 101 1035 94 1024 q 119 1046 108 1046 l 206 1046 q 235 1043 225 1046 q 249 1019 249 1039 q 240 1001 249 1008 q 222 993 232 994 l 199 993 l 176 994 l 154 996 q 141 992 144 996 q 138 979 138 989 q 139 861 138 914 l 139 743 l 139 569 q 142 567 139 567 l 143 567 l 144 567 q 219 569 179 569 q 242 550 242 569 q 237 531 242 536 q 221 526 232 526 l 142 526 q 136 519 136 526 l 139 314 q 142 93 142 218 l 142 42 l 201 42 l 260 42 l 272 42 q 297 24 297 42 q 285 -3 297 1 q 217 -8 268 -8 l 158 -8 m 225 1074 q 161 1109 204 1085 q 94 1147 118 1133 l 72 1149 q 31 1181 31 1157 q 44 1214 31 1204 l 53 1211 q 103 1188 94 1206 q 119 1179 103 1186 l 169 1149 q 221 1113 200 1129 q 243 1083 243 1094 q 225 1074 243 1074 z "},"Ẻ":{"ha":346,"x_min":94,"x_max":297,"o":"m 158 -8 q 112 -2 125 -8 q 99 22 99 4 l 99 49 q 97 74 97 60 l 97 76 l 99 279 l 97 853 q 94 1007 97 942 q 101 1035 94 1024 q 119 1046 108 1046 l 206 1046 q 235 1043 225 1046 q 249 1019 249 1039 q 240 1001 249 1008 q 222 993 232 994 l 199 993 l 176 994 l 154 996 q 141 992 144 996 q 138 979 138 989 q 139 861 138 914 l 139 743 l 139 569 q 142 567 139 567 l 143 567 l 144 567 q 219 569 179 569 q 242 550 242 569 q 237 531 242 536 q 221 526 232 526 l 142 526 q 136 519 136 526 l 139 314 q 142 93 142 218 l 142 42 l 201 42 l 260 42 l 272 42 q 297 24 297 42 q 285 -3 297 1 q 217 -8 268 -8 l 158 -8 m 181 1067 q 165 1083 167 1067 l 165 1090 q 174 1108 165 1100 q 197 1126 182 1117 q 209 1135 200 1128 q 222 1147 218 1142 q 226 1158 226 1153 q 182 1185 226 1185 q 143 1178 156 1185 q 131 1156 131 1172 q 133 1138 131 1151 q 119 1135 125 1135 q 100 1158 100 1135 q 120 1197 100 1181 q 182 1213 140 1213 q 243 1199 225 1213 q 261 1158 261 1185 q 253 1137 261 1146 q 225 1114 244 1128 q 204 1098 211 1104 q 197 1085 197 1092 l 197 1075 q 181 1067 189 1067 z "},"Ȇ":{"ha":346,"x_min":61,"x_max":297,"o":"m 158 -8 q 112 -2 125 -8 q 99 22 99 4 l 99 49 q 97 74 97 60 l 97 76 l 99 279 l 97 853 q 94 1007 97 942 q 101 1035 94 1024 q 119 1046 108 1046 l 206 1046 q 235 1043 225 1046 q 249 1019 249 1039 q 240 1001 249 1008 q 222 993 232 994 l 199 993 l 176 994 l 154 996 q 141 992 144 996 q 138 979 138 989 q 139 861 138 914 l 139 743 l 139 569 q 142 567 139 567 l 143 567 l 144 567 q 219 569 179 569 q 242 550 242 569 q 237 531 242 536 q 221 526 232 526 l 142 526 q 136 519 136 526 l 139 314 q 142 93 142 218 l 142 42 l 201 42 l 260 42 l 272 42 q 297 24 297 42 q 285 -3 297 1 q 217 -8 268 -8 l 158 -8 m 61 1085 q 82 1179 61 1135 q 163 1226 107 1226 q 214 1213 192 1226 q 242 1178 221 1208 q 253 1154 242 1175 q 263 1129 263 1126 l 260 1119 l 264 1110 l 267 1097 q 260 1083 267 1089 q 246 1078 254 1078 q 221 1104 221 1078 l 222 1115 l 222 1124 q 207 1169 222 1144 q 175 1194 192 1194 l 140 1194 l 125 1183 q 90 1094 101 1167 q 76 1072 86 1075 l 61 1085 z "},"Ē":{"ha":346,"x_min":40,"x_max":308,"o":"m 158 -8 q 112 -2 125 -8 q 99 22 99 4 l 99 49 q 97 74 97 60 l 97 76 l 99 279 l 97 853 q 94 1007 97 942 q 101 1035 94 1024 q 119 1046 108 1046 l 206 1046 q 235 1043 225 1046 q 249 1019 249 1039 q 240 1001 249 1008 q 222 993 232 994 l 199 993 l 176 994 l 154 996 q 141 992 144 996 q 138 979 138 989 q 139 861 138 914 l 139 743 l 139 569 q 142 567 139 567 l 143 567 l 144 567 q 219 569 179 569 q 242 550 242 569 q 237 531 242 536 q 221 526 232 526 l 142 526 q 136 519 136 526 l 139 314 q 142 93 142 218 l 142 42 l 201 42 l 260 42 l 272 42 q 297 24 297 42 q 285 -3 297 1 q 217 -8 268 -8 l 158 -8 m 114 1136 q 69 1139 79 1136 q 43 1149 49 1142 q 40 1158 40 1154 q 129 1169 40 1169 l 207 1169 q 278 1167 256 1169 q 301 1160 294 1165 q 308 1147 308 1156 q 219 1136 306 1136 l 140 1136 l 114 1136 z "},"Ę":{"ha":346,"x_min":94,"x_max":332,"o":"m 158 -8 q 112 -2 125 -8 q 99 22 99 4 l 99 49 q 97 74 97 60 l 97 76 l 99 279 l 97 853 q 94 1007 97 942 q 101 1035 94 1024 q 119 1046 108 1046 l 206 1046 q 235 1043 225 1046 q 249 1019 249 1039 q 240 1001 249 1008 q 222 993 232 994 l 199 993 l 176 994 l 154 996 q 141 992 144 996 q 138 979 138 989 q 139 861 138 914 l 139 743 l 139 569 q 142 567 139 567 l 143 567 l 144 567 q 219 569 179 569 q 242 550 242 569 q 237 531 242 536 q 221 526 232 526 l 142 526 q 136 519 136 526 l 139 314 q 142 93 142 218 l 142 42 l 201 42 l 260 42 l 272 42 q 297 24 297 42 q 285 -3 297 1 q 217 -8 268 -8 l 158 -8 m 274 -307 q 222 -289 247 -307 q 183 -245 197 -271 q 168 -197 168 -219 q 178 -132 168 -165 q 201 -72 188 -99 q 254 1 233 -17 l 264 13 l 303 7 l 306 7 q 294 -11 306 7 q 243 -99 261 -53 q 231 -151 231 -128 q 228 -183 231 -158 l 226 -197 l 226 -212 q 242 -250 226 -231 q 274 -269 257 -269 q 296 -262 279 -269 q 318 -256 310 -256 q 332 -269 332 -256 q 314 -297 332 -286 q 274 -307 296 -307 z "},"Ẽ":{"ha":346,"x_min":26,"x_max":319,"o":"m 158 -8 q 112 -2 125 -8 q 99 22 99 4 l 99 49 q 97 74 97 60 l 97 76 l 99 279 l 97 853 q 94 1007 97 942 q 101 1035 94 1024 q 119 1046 108 1046 l 206 1046 q 235 1043 225 1046 q 249 1019 249 1039 q 240 1001 249 1008 q 222 993 232 994 l 199 993 l 176 994 l 154 996 q 141 992 144 996 q 138 979 138 989 q 139 861 138 914 l 139 743 l 139 569 q 142 567 139 567 l 143 567 l 144 567 q 219 569 179 569 q 242 550 242 569 q 237 531 242 536 q 221 526 232 526 l 142 526 q 136 519 136 526 l 139 314 q 142 93 142 218 l 142 42 l 201 42 l 260 42 l 272 42 q 297 24 297 42 q 285 -3 297 1 q 217 -8 268 -8 l 158 -8 m 53 1090 q 35 1098 44 1090 q 26 1114 26 1106 q 50 1183 26 1157 q 108 1210 74 1210 q 167 1182 143 1210 q 201 1144 178 1161 q 246 1128 225 1128 q 282 1178 282 1128 l 279 1192 l 274 1204 q 288 1213 278 1213 q 311 1199 303 1213 q 319 1165 319 1185 q 297 1114 319 1136 q 246 1092 275 1092 q 199 1106 224 1092 q 158 1135 174 1119 q 122 1174 147 1144 l 113 1178 q 76 1167 92 1178 q 61 1140 61 1156 l 68 1111 l 53 1090 z "},"F":{"ha":356,"x_min":94,"x_max":274,"o":"m 154 -3 q 132 33 132 -3 l 132 136 l 128 221 q 115 556 115 449 q 100 919 115 614 q 96 1005 97 986 q 94 1025 94 1024 l 94 1035 q 108 1047 94 1044 q 157 1050 117 1050 l 188 1050 l 226 1050 q 243 1041 238 1050 q 249 1018 249 1032 q 224 1004 249 1004 l 192 1006 l 156 1006 q 142 1001 144 1006 q 139 979 139 997 q 149 776 139 951 q 158 572 158 601 q 206 581 175 572 q 253 589 238 589 q 267 579 261 589 q 274 561 274 569 q 251 541 274 546 q 188 533 229 536 q 158 517 158 529 q 172 283 158 454 q 185 49 185 128 l 181 42 q 185 24 185 32 q 154 -3 185 -3 z "},"Ḟ":{"ha":356,"x_min":94,"x_max":274,"o":"m 154 -3 q 132 33 132 -3 l 132 136 l 128 221 q 115 556 115 449 q 100 919 115 614 q 96 1005 97 986 q 94 1025 94 1024 l 94 1035 q 108 1047 94 1044 q 157 1050 117 1050 l 188 1050 l 226 1050 q 243 1041 238 1050 q 249 1018 249 1032 q 224 1004 249 1004 l 192 1006 l 156 1006 q 142 1001 144 1006 q 139 979 139 997 q 149 776 139 951 q 158 572 158 601 q 206 581 175 572 q 253 589 238 589 q 267 579 261 589 q 274 561 274 569 q 251 541 274 546 q 188 533 229 536 q 158 517 158 529 q 172 283 158 454 q 185 49 185 128 l 181 42 q 185 24 185 32 q 154 -3 185 -3 m 174 1117 q 152 1127 161 1117 q 143 1150 143 1138 q 154 1176 143 1164 q 179 1188 165 1188 q 202 1176 192 1188 q 213 1151 213 1164 q 174 1117 213 1117 z "},"G":{"ha":533,"x_min":85,"x_max":479,"o":"m 289 -22 q 135 128 185 -22 q 85 594 85 278 q 88 715 85 663 q 107 853 90 779 q 124 918 114 890 q 153 976 135 946 q 242 1054 185 1032 q 306 1065 272 1065 q 347 1042 347 1065 q 326 1025 347 1025 q 307 1029 321 1025 l 288 1032 q 208 994 242 1032 q 163 899 185 967 q 142 775 147 843 q 133 653 138 738 l 132 561 l 132 485 q 151 239 132 350 q 184 124 165 169 q 235 49 203 78 q 310 17 269 17 q 428 86 383 17 q 422 185 428 124 q 411 242 418 215 q 392 265 403 265 l 365 263 l 336 260 q 304 283 304 260 q 343 304 304 294 q 408 314 382 314 q 441 298 431 314 q 451 256 451 282 q 465 132 451 225 q 479 8 479 54 q 461 -14 479 -14 q 428 17 428 -14 l 429 21 l 429 24 q 289 -22 350 -22 z "},"Ǵ":{"ha":533,"x_min":85,"x_max":479,"o":"m 289 -22 q 135 128 185 -22 q 85 594 85 278 q 88 715 85 663 q 107 853 90 779 q 124 918 114 890 q 153 976 135 946 q 242 1054 185 1032 q 306 1065 272 1065 q 347 1042 347 1065 q 326 1025 347 1025 q 307 1029 321 1025 l 288 1032 q 208 994 242 1032 q 163 899 185 967 q 142 775 147 843 q 133 653 138 738 l 132 561 l 132 485 q 151 239 132 350 q 184 124 165 169 q 235 49 203 78 q 310 17 269 17 q 428 86 383 17 q 422 185 428 124 q 411 242 418 215 q 392 265 403 265 l 365 263 l 336 260 q 304 283 304 260 q 343 304 304 294 q 408 314 382 314 q 441 298 431 314 q 451 256 451 282 q 465 132 451 225 q 479 8 479 54 q 461 -14 479 -14 q 428 17 428 -14 l 429 21 l 429 24 q 289 -22 350 -22 m 258 1126 q 241 1132 249 1126 q 233 1146 233 1138 q 272 1182 233 1150 l 317 1218 l 354 1247 q 406 1288 401 1283 q 436 1267 436 1288 l 432 1244 q 258 1126 360 1211 z "},"Ğ":{"ha":533,"x_min":85,"x_max":479,"o":"m 289 -22 q 135 128 185 -22 q 85 594 85 278 q 88 715 85 663 q 107 853 90 779 q 124 918 114 890 q 153 976 135 946 q 242 1054 185 1032 q 306 1065 272 1065 q 347 1042 347 1065 q 326 1025 347 1025 q 307 1029 321 1025 l 288 1032 q 208 994 242 1032 q 163 899 185 967 q 142 775 147 843 q 133 653 138 738 l 132 561 l 132 485 q 151 239 132 350 q 184 124 165 169 q 235 49 203 78 q 310 17 269 17 q 428 86 383 17 q 422 185 428 124 q 411 242 418 215 q 392 265 403 265 l 365 263 l 336 260 q 304 283 304 260 q 343 304 304 294 q 408 314 382 314 q 441 298 431 314 q 451 256 451 282 q 465 132 451 225 q 479 8 479 54 q 461 -14 479 -14 q 428 17 428 -14 l 429 21 l 429 24 q 289 -22 350 -22 m 285 1114 q 204 1161 229 1114 q 183 1256 183 1206 l 199 1268 q 213 1246 208 1265 q 247 1157 224 1174 l 263 1146 l 297 1146 q 329 1170 314 1146 q 344 1217 344 1194 l 344 1226 q 343 1236 343 1231 q 368 1263 343 1263 q 382 1256 375 1263 q 389 1243 389 1250 l 386 1231 l 382 1221 l 385 1211 q 381 1201 383 1207 q 375 1188 378 1194 q 351 1144 361 1157 q 337 1128 344 1133 q 315 1118 329 1122 q 285 1114 300 1114 z "},"Ǧ":{"ha":533,"x_min":85,"x_max":479,"o":"m 289 -22 q 135 128 185 -22 q 85 594 85 278 q 88 715 85 663 q 107 853 90 779 q 124 918 114 890 q 153 976 135 946 q 242 1054 185 1032 q 306 1065 272 1065 q 347 1042 347 1065 q 326 1025 347 1025 q 307 1029 321 1025 l 288 1032 q 208 994 242 1032 q 163 899 185 967 q 142 775 147 843 q 133 653 138 738 l 132 561 l 132 485 q 151 239 132 350 q 184 124 165 169 q 235 49 203 78 q 310 17 269 17 q 428 86 383 17 q 422 185 428 124 q 411 242 418 215 q 392 265 403 265 l 365 263 l 336 260 q 304 283 304 260 q 343 304 304 294 q 408 314 382 314 q 441 298 431 314 q 451 256 451 282 q 465 132 451 225 q 479 8 479 54 q 461 -14 479 -14 q 428 17 428 -14 l 429 21 l 429 24 q 289 -22 350 -22 m 267 1103 q 226 1151 254 1103 q 175 1258 199 1200 q 150 1338 151 1317 l 176 1356 l 200 1324 q 211 1276 200 1313 q 238 1199 225 1238 q 258 1143 251 1160 q 297 1351 290 1264 l 317 1363 q 342 1346 342 1358 q 336 1331 342 1344 l 338 1324 l 326 1303 l 328 1294 l 313 1244 q 288 1132 288 1178 q 267 1103 288 1103 z "},"Ĝ":{"ha":533,"x_min":85,"x_max":479,"o":"m 289 -22 q 135 128 185 -22 q 85 594 85 278 q 88 715 85 663 q 107 853 90 779 q 124 918 114 890 q 153 976 135 946 q 242 1054 185 1032 q 306 1065 272 1065 q 347 1042 347 1065 q 326 1025 347 1025 q 307 1029 321 1025 l 288 1032 q 208 994 242 1032 q 163 899 185 967 q 142 775 147 843 q 133 653 138 738 l 132 561 l 132 485 q 151 239 132 350 q 184 124 165 169 q 235 49 203 78 q 310 17 269 17 q 428 86 383 17 q 422 185 428 124 q 411 242 418 215 q 392 265 403 265 l 365 263 l 336 260 q 304 283 304 260 q 343 304 304 294 q 408 314 382 314 q 441 298 431 314 q 451 256 451 282 q 465 132 451 225 q 479 8 479 54 q 461 -14 479 -14 q 428 17 428 -14 l 429 21 l 429 24 q 289 -22 350 -22 m 332 1097 q 293 1306 325 1186 q 246 1172 288 1297 q 235 1125 235 1136 l 211 1093 l 185 1111 q 210 1190 186 1132 q 261 1297 233 1249 q 301 1346 289 1346 q 322 1317 322 1346 q 347 1204 322 1271 l 363 1154 l 361 1146 l 372 1125 l 371 1118 q 374 1109 372 1113 q 376 1103 376 1106 q 351 1086 376 1090 l 332 1097 z "},"Ģ":{"ha":533,"x_min":85,"x_max":479,"o":"m 289 -22 q 135 128 185 -22 q 85 594 85 278 q 88 715 85 663 q 107 853 90 779 q 124 918 114 890 q 153 976 135 946 q 242 1054 185 1032 q 306 1065 272 1065 q 347 1042 347 1065 q 326 1025 347 1025 q 307 1029 321 1025 l 288 1032 q 208 994 242 1032 q 163 899 185 967 q 142 775 147 843 q 133 653 138 738 l 132 561 l 132 485 q 151 239 132 350 q 184 124 165 169 q 235 49 203 78 q 310 17 269 17 q 428 86 383 17 q 422 185 428 124 q 411 242 418 215 q 392 265 403 265 l 365 263 l 336 260 q 304 283 304 260 q 343 304 304 294 q 408 314 382 314 q 441 298 431 314 q 451 256 451 282 q 465 132 451 225 q 479 8 479 54 q 461 -14 479 -14 q 428 17 428 -14 l 429 21 l 429 24 q 289 -22 350 -22 m 235 -301 l 238 -289 q 276 -253 246 -283 q 306 -211 301 -224 q 310 -187 310 -201 q 281 -160 292 -176 q 269 -126 269 -143 q 285 -96 269 -108 q 322 -83 301 -83 q 368 -124 353 -83 l 365 -128 q 368 -144 368 -131 q 351 -208 368 -168 q 307 -279 333 -249 q 257 -312 282 -310 l 235 -301 z "},"Ġ":{"ha":533,"x_min":85,"x_max":479,"o":"m 289 -22 q 135 128 185 -22 q 85 594 85 278 q 88 715 85 663 q 107 853 90 779 q 124 918 114 890 q 153 976 135 946 q 242 1054 185 1032 q 306 1065 272 1065 q 347 1042 347 1065 q 326 1025 347 1025 q 307 1029 321 1025 l 288 1032 q 208 994 242 1032 q 163 899 185 967 q 142 775 147 843 q 133 653 138 738 l 132 561 l 132 485 q 151 239 132 350 q 184 124 165 169 q 235 49 203 78 q 310 17 269 17 q 428 86 383 17 q 422 185 428 124 q 411 242 418 215 q 392 265 403 265 l 365 263 l 336 260 q 304 283 304 260 q 343 304 304 294 q 408 314 382 314 q 441 298 431 314 q 451 256 451 282 q 465 132 451 225 q 479 8 479 54 q 461 -14 479 -14 q 428 17 428 -14 l 429 21 l 429 24 q 289 -22 350 -22 m 256 1129 q 234 1140 243 1129 q 225 1163 225 1150 q 236 1188 225 1176 q 261 1200 247 1200 q 284 1188 274 1200 q 294 1164 294 1176 q 256 1129 294 1129 z "},"H":{"ha":454,"x_min":88,"x_max":351,"o":"m 333 -14 q 318 -8 322 -14 q 314 8 314 -3 l 314 25 q 315 40 315 31 q 301 522 315 231 l 292 522 l 265 522 l 239 522 q 142 518 161 522 q 153 267 142 417 q 165 15 165 96 q 150 -6 165 -6 q 129 14 129 -6 q 123 202 128 82 q 114 406 118 322 q 88 1039 88 736 q 106 1053 88 1053 q 119 1048 114 1053 q 122 1035 124 1043 l 122 932 q 129 790 122 894 l 132 743 q 135 650 135 665 l 135 582 q 142 546 135 546 l 194 549 l 222 551 q 301 557 292 557 l 303 560 q 296 794 303 621 q 289 1031 289 971 q 308 1047 289 1047 q 325 1042 318 1047 q 332 1029 332 1038 q 342 433 332 758 q 351 33 351 107 l 351 14 q 347 -6 351 3 q 333 -14 342 -14 z "},"Ħ":{"ha":515,"x_min":89,"x_max":386,"o":"m 361 -22 q 342 8 342 -22 l 343 25 l 343 40 q 329 517 343 267 l 325 517 q 322 515 324 515 q 321 515 321 515 q 294 519 311 515 l 268 522 q 169 506 199 522 q 182 265 169 426 q 193 25 193 94 q 179 4 193 4 q 165 7 169 4 q 157 18 160 10 q 149 115 151 35 q 146 231 146 190 l 144 288 q 142 406 144 372 q 119 818 125 656 l 118 818 q 98 825 107 818 q 89 842 89 832 l 119 844 q 117 1039 117 901 l 139 1050 l 157 1035 q 151 932 151 989 q 154 846 151 883 l 322 849 q 318 1031 318 969 q 321 1050 318 1042 q 354 1014 346 1050 q 360 938 360 981 l 360 849 q 374 839 368 846 q 379 822 379 832 l 361 822 q 372 356 364 569 q 381 33 381 93 q 386 14 386 22 q 378 -10 386 3 q 361 -22 371 -22 m 167 546 q 249 551 176 546 l 276 554 l 329 557 l 331 560 q 324 822 331 610 q 156 818 260 822 q 163 650 163 682 l 163 622 q 161 594 161 610 q 167 546 161 574 z "},"Ȟ":{"ha":454,"x_min":88,"x_max":351,"o":"m 333 -14 q 318 -8 322 -14 q 314 8 314 -3 l 314 25 q 315 40 315 31 q 301 522 315 231 l 292 522 l 265 522 l 239 522 q 142 518 161 522 q 153 267 142 417 q 165 15 165 96 q 150 -6 165 -6 q 129 14 129 -6 q 123 202 128 82 q 114 406 118 322 q 88 1039 88 736 q 106 1053 88 1053 q 119 1048 114 1053 q 122 1035 124 1043 l 122 932 q 129 790 122 894 l 132 743 q 135 650 135 665 l 135 582 q 142 546 135 546 l 194 549 l 222 551 q 301 557 292 557 l 303 560 q 296 794 303 621 q 289 1031 289 971 q 308 1047 289 1047 q 325 1042 318 1047 q 332 1029 332 1038 q 342 433 332 758 q 351 33 351 107 l 351 14 q 347 -6 351 3 q 333 -14 342 -14 m 249 1089 q 208 1138 236 1089 q 157 1244 181 1186 q 132 1324 133 1303 l 158 1342 l 182 1310 q 193 1263 182 1299 q 220 1185 207 1224 q 240 1129 233 1146 q 279 1338 272 1250 l 299 1349 q 324 1332 324 1344 q 318 1317 324 1331 l 319 1310 l 308 1289 l 310 1281 l 294 1231 q 269 1118 269 1164 q 249 1089 269 1089 z "},"Ĥ":{"ha":454,"x_min":88,"x_max":351,"o":"m 333 -14 q 318 -8 322 -14 q 314 8 314 -3 l 314 25 q 315 40 315 31 q 301 522 315 231 l 292 522 l 265 522 l 239 522 q 142 518 161 522 q 153 267 142 417 q 165 15 165 96 q 150 -6 165 -6 q 129 14 129 -6 q 123 202 128 82 q 114 406 118 322 q 88 1039 88 736 q 106 1053 88 1053 q 119 1048 114 1053 q 122 1035 124 1043 l 122 932 q 129 790 122 894 l 132 743 q 135 650 135 665 l 135 582 q 142 546 135 546 l 194 549 l 222 551 q 301 557 292 557 l 303 560 q 296 794 303 621 q 289 1031 289 971 q 308 1047 289 1047 q 325 1042 318 1047 q 332 1029 332 1038 q 342 433 332 758 q 351 33 351 107 l 351 14 q 347 -6 351 3 q 333 -14 342 -14 m 272 1083 q 233 1292 265 1172 q 186 1158 228 1283 q 175 1111 175 1122 l 151 1079 l 125 1097 q 150 1176 126 1118 q 201 1283 174 1235 q 242 1332 229 1332 q 263 1303 263 1332 q 288 1190 263 1257 l 303 1140 l 301 1132 l 313 1111 l 311 1104 q 315 1095 313 1099 q 317 1089 317 1092 q 292 1072 317 1076 l 272 1083 z "},"I":{"ha":375,"x_min":82,"x_max":293,"o":"m 199 6 q 114 7 165 7 q 97 14 104 7 q 89 29 89 21 q 113 47 89 47 l 167 47 q 157 450 167 207 q 146 756 151 644 l 147 826 l 147 918 q 144 1007 147 988 l 96 1007 q 82 1026 82 1007 q 93 1046 82 1039 q 144 1050 103 1050 l 183 1050 q 236 1049 204 1049 q 254 1044 247 1049 q 261 1029 261 1039 q 257 1014 261 1021 q 244 1007 253 1007 q 228 1008 235 1007 l 211 1008 l 197 1008 q 181 1006 183 1008 l 178 1000 q 196 563 178 892 q 213 125 213 258 l 213 86 q 211 49 211 68 l 261 49 q 293 29 293 49 q 287 13 293 21 q 274 6 281 6 l 199 6 z "},"Ĳ":{"ha":697,"x_min":82,"x_max":615,"o":"m 199 6 q 114 7 165 7 q 97 14 104 7 q 89 29 89 21 q 113 47 89 47 l 167 47 q 157 450 167 207 q 146 756 151 644 l 147 826 l 147 918 q 144 1007 147 988 l 96 1007 q 82 1026 82 1007 q 93 1046 82 1039 q 144 1050 103 1050 l 183 1050 q 236 1049 204 1049 q 254 1044 247 1049 q 261 1029 261 1039 q 257 1014 261 1021 q 244 1007 253 1007 q 228 1008 235 1007 l 211 1008 l 197 1008 q 181 1006 183 1008 l 178 1000 q 196 563 178 892 q 213 125 213 258 l 213 86 q 211 49 211 68 l 261 49 q 293 29 293 49 q 287 13 293 21 q 274 6 281 6 l 199 6 m 451 -135 q 422 -108 422 -135 q 456 -75 424 -94 l 472 -62 q 533 150 533 -3 q 526 356 533 244 q 519 543 519 504 l 511 758 q 504 1010 504 942 q 463 1008 482 1010 l 421 1007 q 408 1013 413 1007 q 403 1028 403 1019 q 414 1049 403 1044 q 467 1054 425 1054 l 519 1053 l 593 1053 q 609 1046 603 1053 q 615 1031 615 1039 q 608 1014 615 1018 q 578 1010 600 1010 l 547 1010 q 563 542 547 822 q 568 414 565 504 q 578 207 578 240 q 576 115 578 149 q 567 43 574 82 q 547 -26 560 3 q 510 -82 533 -54 q 451 -135 486 -112 z "},"Í":{"ha":375,"x_min":82,"x_max":363,"o":"m 199 6 q 114 7 165 7 q 97 14 104 7 q 89 29 89 21 q 113 47 89 47 l 167 47 q 157 450 167 207 q 146 756 151 644 l 147 826 l 147 918 q 144 1007 147 988 l 96 1007 q 82 1026 82 1007 q 93 1046 82 1039 q 144 1050 103 1050 l 183 1050 q 236 1049 204 1049 q 254 1044 247 1049 q 261 1029 261 1039 q 257 1014 261 1021 q 244 1007 253 1007 q 228 1008 235 1007 l 211 1008 l 197 1008 q 181 1006 183 1008 l 178 1000 q 196 563 178 892 q 213 125 213 258 l 213 86 q 211 49 211 68 l 261 49 q 293 29 293 49 q 287 13 293 21 q 274 6 281 6 l 199 6 m 185 1113 q 167 1118 175 1113 q 160 1132 160 1124 q 199 1168 160 1136 l 243 1204 l 281 1233 q 332 1274 328 1269 q 363 1253 363 1274 l 358 1231 q 185 1113 286 1197 z "},"Ĭ":{"ha":375,"x_min":82,"x_max":293,"o":"m 199 6 q 114 7 165 7 q 97 14 104 7 q 89 29 89 21 q 113 47 89 47 l 167 47 q 157 450 167 207 q 146 756 151 644 l 147 826 l 147 918 q 144 1007 147 988 l 96 1007 q 82 1026 82 1007 q 93 1046 82 1039 q 144 1050 103 1050 l 183 1050 q 236 1049 204 1049 q 254 1044 247 1049 q 261 1029 261 1039 q 257 1014 261 1021 q 244 1007 253 1007 q 228 1008 235 1007 l 211 1008 l 197 1008 q 181 1006 183 1008 l 178 1000 q 196 563 178 892 q 213 125 213 258 l 213 86 q 211 49 211 68 l 261 49 q 293 29 293 49 q 287 13 293 21 q 274 6 281 6 l 199 6 m 185 1100 q 104 1147 129 1100 q 83 1242 83 1192 l 99 1254 q 113 1232 108 1251 q 147 1143 124 1160 l 163 1132 l 197 1132 q 229 1156 214 1132 q 244 1203 244 1181 l 244 1213 q 243 1222 243 1217 q 268 1249 243 1249 q 282 1242 275 1249 q 289 1229 289 1236 l 286 1217 l 282 1207 l 285 1197 q 281 1187 283 1193 q 275 1174 278 1181 q 251 1131 261 1143 q 237 1114 244 1119 q 215 1104 229 1108 q 185 1100 200 1100 z "},"Ǐ":{"ha":375,"x_min":82,"x_max":293,"o":"m 199 6 q 114 7 165 7 q 97 14 104 7 q 89 29 89 21 q 113 47 89 47 l 167 47 q 157 450 167 207 q 146 756 151 644 l 147 826 l 147 918 q 144 1007 147 988 l 96 1007 q 82 1026 82 1007 q 93 1046 82 1039 q 144 1050 103 1050 l 183 1050 q 236 1049 204 1049 q 254 1044 247 1049 q 261 1029 261 1039 q 257 1014 261 1021 q 244 1007 253 1007 q 228 1008 235 1007 l 211 1008 l 197 1008 q 181 1006 183 1008 l 178 1000 q 196 563 178 892 q 213 125 213 258 l 213 86 q 211 49 211 68 l 261 49 q 293 29 293 49 q 287 13 293 21 q 274 6 281 6 l 199 6 m 208 1089 q 168 1138 196 1089 q 117 1244 140 1186 q 92 1324 93 1303 l 118 1342 l 142 1310 q 153 1263 142 1299 q 180 1185 167 1224 q 200 1129 193 1146 q 239 1338 232 1250 l 258 1349 q 283 1332 283 1344 q 278 1317 283 1331 l 279 1310 l 268 1289 l 269 1281 l 254 1231 q 229 1118 229 1164 q 208 1089 229 1089 z "},"Î":{"ha":375,"x_min":82,"x_max":293,"o":"m 199 6 q 114 7 165 7 q 97 14 104 7 q 89 29 89 21 q 113 47 89 47 l 167 47 q 157 450 167 207 q 146 756 151 644 l 147 826 l 147 918 q 144 1007 147 988 l 96 1007 q 82 1026 82 1007 q 93 1046 82 1039 q 144 1050 103 1050 l 183 1050 q 236 1049 204 1049 q 254 1044 247 1049 q 261 1029 261 1039 q 257 1014 261 1021 q 244 1007 253 1007 q 228 1008 235 1007 l 211 1008 l 197 1008 q 181 1006 183 1008 l 178 1000 q 196 563 178 892 q 213 125 213 258 l 213 86 q 211 49 211 68 l 261 49 q 293 29 293 49 q 287 13 293 21 q 274 6 281 6 l 199 6 m 232 1083 q 193 1292 225 1172 q 146 1158 188 1283 q 135 1111 135 1122 l 111 1079 l 85 1097 q 110 1176 86 1118 q 161 1283 133 1235 q 201 1332 189 1332 q 222 1303 222 1332 q 247 1190 222 1257 l 263 1140 l 261 1132 l 272 1111 l 271 1104 q 274 1095 272 1099 q 276 1089 276 1092 q 251 1072 276 1076 l 232 1083 z "},"Ȉ":{"ha":375,"x_min":-132,"x_max":310,"o":"m 199 6 q 114 7 165 7 q 97 14 104 7 q 89 29 89 21 q 113 47 89 47 l 167 47 q 157 450 167 207 q 146 756 151 644 l 147 826 l 147 918 q 144 1007 147 988 l 96 1007 q 82 1026 82 1007 q 93 1046 82 1039 q 144 1050 103 1050 l 183 1050 q 236 1049 204 1049 q 254 1044 247 1049 q 261 1029 261 1039 q 257 1014 261 1021 q 244 1007 253 1007 q 228 1008 235 1007 l 211 1008 l 197 1008 q 181 1006 183 1008 l 178 1000 q 196 563 178 892 q 213 125 213 258 l 213 86 q 211 49 211 68 l 261 49 q 293 29 293 49 q 287 13 293 21 q 274 6 281 6 l 199 6 m 304 1093 q 246 1124 281 1097 q 197 1154 215 1146 q 72 1253 158 1182 q 63 1267 63 1257 q 69 1280 63 1272 q 78 1288 75 1288 q 143 1244 86 1288 q 254 1156 200 1201 q 310 1100 308 1110 l 304 1093 m 128 1096 q 100 1111 124 1096 q 50 1144 75 1126 l 15 1165 l -60 1203 l -132 1243 q -120 1265 -129 1254 q -103 1276 -111 1276 q -25 1236 -93 1276 q 69 1168 1 1219 q 136 1107 136 1117 q 128 1096 136 1096 z "},"Ï":{"ha":375,"x_min":67,"x_max":314,"o":"m 199 6 q 114 7 165 7 q 97 14 104 7 q 89 29 89 21 q 113 47 89 47 l 167 47 q 157 450 167 207 q 146 756 151 644 l 147 826 l 147 918 q 144 1007 147 988 l 96 1007 q 82 1026 82 1007 q 93 1046 82 1039 q 144 1050 103 1050 l 183 1050 q 236 1049 204 1049 q 254 1044 247 1049 q 261 1029 261 1039 q 257 1014 261 1021 q 244 1007 253 1007 q 228 1008 235 1007 l 211 1008 l 197 1008 q 181 1006 183 1008 l 178 1000 q 196 563 178 892 q 213 125 213 258 l 213 86 q 211 49 211 68 l 261 49 q 293 29 293 49 q 287 13 293 21 q 274 6 281 6 l 199 6 m 278 1124 q 258 1133 267 1124 q 250 1154 250 1143 q 260 1178 250 1167 q 283 1189 271 1189 q 305 1178 296 1189 q 314 1156 314 1167 q 278 1124 314 1124 m 93 1118 q 74 1129 82 1118 q 67 1153 67 1140 q 77 1176 67 1165 q 100 1188 88 1188 q 121 1174 114 1188 q 128 1142 128 1160 q 117 1124 128 1131 q 93 1118 107 1118 z "},"İ":{"ha":375,"x_min":82,"x_max":293,"o":"m 199 6 q 114 7 165 7 q 97 14 104 7 q 89 29 89 21 q 113 47 89 47 l 167 47 q 157 450 167 207 q 146 756 151 644 l 147 826 l 147 918 q 144 1007 147 988 l 96 1007 q 82 1026 82 1007 q 93 1046 82 1039 q 144 1050 103 1050 l 183 1050 q 236 1049 204 1049 q 254 1044 247 1049 q 261 1029 261 1039 q 257 1014 261 1021 q 244 1007 253 1007 q 228 1008 235 1007 l 211 1008 l 197 1008 q 181 1006 183 1008 l 178 1000 q 196 563 178 892 q 213 125 213 258 l 213 86 q 211 49 211 68 l 261 49 q 293 29 293 49 q 287 13 293 21 q 274 6 281 6 l 199 6 m 183 1117 q 162 1127 171 1117 q 153 1150 153 1138 q 164 1176 153 1164 q 189 1188 175 1188 q 212 1176 201 1188 q 222 1151 222 1164 q 183 1117 222 1117 z "},"Ị":{"ha":375,"x_min":82,"x_max":293,"o":"m 199 6 q 114 7 165 7 q 97 14 104 7 q 89 29 89 21 q 113 47 89 47 l 167 47 q 157 450 167 207 q 146 756 151 644 l 147 826 l 147 918 q 144 1007 147 988 l 96 1007 q 82 1026 82 1007 q 93 1046 82 1039 q 144 1050 103 1050 l 183 1050 q 236 1049 204 1049 q 254 1044 247 1049 q 261 1029 261 1039 q 257 1014 261 1021 q 244 1007 253 1007 q 228 1008 235 1007 l 211 1008 l 197 1008 q 181 1006 183 1008 l 178 1000 q 196 563 178 892 q 213 125 213 258 l 213 86 q 211 49 211 68 l 261 49 q 293 29 293 49 q 287 13 293 21 q 274 6 281 6 l 199 6 m 183 -162 q 162 -152 171 -162 q 153 -129 153 -142 q 164 -103 153 -115 q 189 -92 175 -92 q 212 -103 201 -92 q 222 -128 222 -115 q 183 -162 222 -162 z "},"Ì":{"ha":375,"x_min":44,"x_max":293,"o":"m 199 6 q 114 7 165 7 q 97 14 104 7 q 89 29 89 21 q 113 47 89 47 l 167 47 q 157 450 167 207 q 146 756 151 644 l 147 826 l 147 918 q 144 1007 147 988 l 96 1007 q 82 1026 82 1007 q 93 1046 82 1039 q 144 1050 103 1050 l 183 1050 q 236 1049 204 1049 q 254 1044 247 1049 q 261 1029 261 1039 q 257 1014 261 1021 q 244 1007 253 1007 q 228 1008 235 1007 l 211 1008 l 197 1008 q 181 1006 183 1008 l 178 1000 q 196 563 178 892 q 213 125 213 258 l 213 86 q 211 49 211 68 l 261 49 q 293 29 293 49 q 287 13 293 21 q 274 6 281 6 l 199 6 m 239 1074 q 175 1109 218 1085 q 108 1147 132 1133 l 86 1149 q 44 1181 44 1157 q 58 1214 44 1204 l 67 1211 q 117 1188 108 1206 q 133 1179 117 1186 l 183 1149 q 235 1113 214 1129 q 257 1083 257 1094 q 239 1074 257 1074 z "},"Ỉ":{"ha":375,"x_min":82,"x_max":293,"o":"m 199 6 q 114 7 165 7 q 97 14 104 7 q 89 29 89 21 q 113 47 89 47 l 167 47 q 157 450 167 207 q 146 756 151 644 l 147 826 l 147 918 q 144 1007 147 988 l 96 1007 q 82 1026 82 1007 q 93 1046 82 1039 q 144 1050 103 1050 l 183 1050 q 236 1049 204 1049 q 254 1044 247 1049 q 261 1029 261 1039 q 257 1014 261 1021 q 244 1007 253 1007 q 228 1008 235 1007 l 211 1008 l 197 1008 q 181 1006 183 1008 l 178 1000 q 196 563 178 892 q 213 125 213 258 l 213 86 q 211 49 211 68 l 261 49 q 293 29 293 49 q 287 13 293 21 q 274 6 281 6 l 199 6 m 194 1067 q 179 1083 181 1067 l 179 1090 q 188 1108 179 1100 q 211 1126 196 1117 q 223 1135 214 1128 q 236 1147 232 1142 q 240 1158 240 1153 q 196 1185 240 1185 q 157 1178 169 1185 q 144 1156 144 1172 q 147 1138 144 1151 q 133 1135 139 1135 q 114 1158 114 1135 q 134 1197 114 1181 q 196 1213 154 1213 q 257 1199 239 1213 q 275 1158 275 1185 q 267 1137 275 1146 q 239 1114 258 1128 q 218 1098 225 1104 q 211 1085 211 1092 l 211 1075 q 194 1067 203 1067 z "},"Ȋ":{"ha":375,"x_min":75,"x_max":293,"o":"m 199 6 q 114 7 165 7 q 97 14 104 7 q 89 29 89 21 q 113 47 89 47 l 167 47 q 157 450 167 207 q 146 756 151 644 l 147 826 l 147 918 q 144 1007 147 988 l 96 1007 q 82 1026 82 1007 q 93 1046 82 1039 q 144 1050 103 1050 l 183 1050 q 236 1049 204 1049 q 254 1044 247 1049 q 261 1029 261 1039 q 257 1014 261 1021 q 244 1007 253 1007 q 228 1008 235 1007 l 211 1008 l 197 1008 q 181 1006 183 1008 l 178 1000 q 196 563 178 892 q 213 125 213 258 l 213 86 q 211 49 211 68 l 261 49 q 293 29 293 49 q 287 13 293 21 q 274 6 281 6 l 199 6 m 75 1085 q 96 1179 75 1135 q 176 1226 121 1226 q 228 1213 206 1226 q 256 1178 235 1208 q 267 1154 256 1175 q 276 1129 276 1126 l 274 1119 l 278 1110 l 281 1097 q 274 1083 281 1089 q 260 1078 268 1078 q 235 1104 235 1078 l 236 1115 l 236 1124 q 221 1169 236 1144 q 189 1194 206 1194 l 154 1194 l 139 1183 q 104 1094 115 1167 q 90 1072 100 1075 l 75 1085 z "},"Ī":{"ha":375,"x_min":54,"x_max":322,"o":"m 199 6 q 114 7 165 7 q 97 14 104 7 q 89 29 89 21 q 113 47 89 47 l 167 47 q 157 450 167 207 q 146 756 151 644 l 147 826 l 147 918 q 144 1007 147 988 l 96 1007 q 82 1026 82 1007 q 93 1046 82 1039 q 144 1050 103 1050 l 183 1050 q 236 1049 204 1049 q 254 1044 247 1049 q 261 1029 261 1039 q 257 1014 261 1021 q 244 1007 253 1007 q 228 1008 235 1007 l 211 1008 l 197 1008 q 181 1006 183 1008 l 178 1000 q 196 563 178 892 q 213 125 213 258 l 213 86 q 211 49 211 68 l 261 49 q 293 29 293 49 q 287 13 293 21 q 274 6 281 6 l 199 6 m 128 1136 q 83 1139 93 1136 q 57 1149 63 1142 q 54 1158 54 1154 q 143 1169 54 1169 l 221 1169 q 292 1167 269 1169 q 315 1160 308 1165 q 322 1147 322 1156 q 233 1136 319 1136 l 154 1136 l 128 1136 z "},"Į":{"ha":375,"x_min":82,"x_max":386,"o":"m 199 6 q 114 7 165 7 q 97 14 104 7 q 89 29 89 21 q 113 47 89 47 l 167 47 q 157 450 167 207 q 146 756 151 644 l 147 826 l 147 918 q 144 1007 147 988 l 96 1007 q 82 1026 82 1007 q 93 1046 82 1039 q 144 1050 103 1050 l 183 1050 q 236 1049 204 1049 q 254 1044 247 1049 q 261 1029 261 1039 q 257 1014 261 1021 q 244 1007 253 1007 q 228 1008 235 1007 l 211 1008 l 197 1008 q 181 1006 183 1008 l 178 1000 q 196 563 178 892 q 213 125 213 258 l 213 86 q 211 49 211 68 l 261 49 q 293 29 293 49 q 287 13 293 21 q 274 6 281 6 l 199 6 m 328 -307 q 276 -289 301 -307 q 237 -245 251 -271 q 222 -197 222 -219 q 232 -132 222 -165 q 256 -72 242 -99 q 308 1 288 -17 l 318 13 l 357 7 l 360 7 q 349 -11 360 7 q 297 -99 315 -53 q 285 -151 285 -128 q 282 -183 285 -158 l 281 -197 l 281 -212 q 296 -250 281 -231 q 328 -269 311 -269 q 350 -262 333 -269 q 372 -256 364 -256 q 386 -269 386 -256 q 368 -297 386 -286 q 328 -307 350 -307 z "},"Ĩ":{"ha":375,"x_min":40,"x_max":333,"o":"m 199 6 q 114 7 165 7 q 97 14 104 7 q 89 29 89 21 q 113 47 89 47 l 167 47 q 157 450 167 207 q 146 756 151 644 l 147 826 l 147 918 q 144 1007 147 988 l 96 1007 q 82 1026 82 1007 q 93 1046 82 1039 q 144 1050 103 1050 l 183 1050 q 236 1049 204 1049 q 254 1044 247 1049 q 261 1029 261 1039 q 257 1014 261 1021 q 244 1007 253 1007 q 228 1008 235 1007 l 211 1008 l 197 1008 q 181 1006 183 1008 l 178 1000 q 196 563 178 892 q 213 125 213 258 l 213 86 q 211 49 211 68 l 261 49 q 293 29 293 49 q 287 13 293 21 q 274 6 281 6 l 199 6 m 67 1090 q 49 1098 58 1090 q 40 1114 40 1106 q 64 1183 40 1157 q 122 1210 88 1210 q 181 1182 157 1210 q 215 1144 192 1161 q 260 1128 239 1128 q 296 1178 296 1128 l 293 1192 l 288 1204 q 301 1213 292 1213 q 325 1199 317 1213 q 333 1165 333 1185 q 311 1114 333 1136 q 260 1092 289 1092 q 213 1106 238 1092 q 172 1135 188 1119 q 136 1174 161 1144 l 126 1178 q 90 1167 106 1178 q 75 1140 75 1156 l 82 1111 l 67 1090 z "},"J":{"ha":322,"x_min":28,"x_max":240,"o":"m 76 -135 q 47 -108 47 -135 q 81 -75 49 -94 l 97 -62 q 158 150 158 -3 q 151 356 158 244 q 144 543 144 504 l 136 758 q 129 1010 129 942 q 88 1008 107 1010 l 46 1007 q 33 1013 38 1007 q 28 1028 28 1019 q 39 1049 28 1044 q 92 1054 50 1054 l 144 1053 l 218 1053 q 234 1046 228 1053 q 240 1031 240 1039 q 233 1014 240 1018 q 203 1010 225 1010 l 172 1010 q 188 542 172 822 q 193 414 190 504 q 203 207 203 240 q 201 115 203 149 q 192 43 199 82 q 172 -26 185 3 q 135 -82 158 -54 q 76 -135 111 -112 z "},"Ĵ":{"ha":322,"x_min":28,"x_max":250,"o":"m 76 -135 q 47 -108 47 -135 q 81 -75 49 -94 l 97 -62 q 158 150 158 -3 q 151 356 158 244 q 144 543 144 504 l 136 758 q 129 1010 129 942 q 88 1008 107 1010 l 46 1007 q 33 1013 38 1007 q 28 1028 28 1019 q 39 1049 28 1044 q 92 1054 50 1054 l 144 1053 l 218 1053 q 234 1046 228 1053 q 240 1031 240 1039 q 233 1014 240 1018 q 203 1010 225 1010 l 172 1010 q 188 542 172 822 q 193 414 190 504 q 203 207 203 240 q 201 115 203 149 q 192 43 199 82 q 172 -26 185 3 q 135 -82 158 -54 q 76 -135 111 -112 m 206 1083 q 167 1292 199 1172 q 119 1158 161 1283 q 108 1111 108 1122 l 85 1079 l 58 1097 q 83 1176 60 1118 q 135 1283 107 1235 q 175 1332 163 1332 q 196 1303 196 1332 q 221 1190 196 1257 l 236 1140 l 235 1132 l 246 1111 l 244 1104 q 248 1095 246 1099 q 250 1089 250 1092 q 225 1072 250 1076 l 206 1083 z "},"K":{"ha":438,"x_min":88,"x_max":428,"o":"m 403 -22 q 386 -12 390 -22 q 353 104 385 -4 l 304 274 q 206 600 228 538 l 197 624 q 192 615 196 621 q 181 597 189 610 q 153 550 164 567 l 133 518 l 133 24 q 129 -9 133 0 q 111 -18 125 -18 q 92 -8 97 -18 q 88 26 88 1 l 88 446 q 92 713 88 528 l 94 979 q 97 1028 94 1006 q 113 1044 101 1044 q 138 1035 133 1044 q 143 985 143 1025 l 140 754 l 138 586 l 139 586 q 214 761 165 644 l 265 890 q 364 1083 343 1083 q 381 1078 374 1083 q 388 1063 388 1072 q 365 1007 383 1036 l 351 982 q 282 815 328 926 q 222 674 226 681 q 224 657 221 664 q 286 482 251 586 q 343 301 321 378 q 391 132 367 218 q 425 8 415 46 q 428 -1 428 0 q 420 -17 428 -11 q 403 -22 413 -22 z "},"Ǩ":{"ha":438,"x_min":88,"x_max":428,"o":"m 403 -22 q 386 -12 390 -22 q 353 104 385 -4 l 304 274 q 206 600 228 538 l 197 624 q 192 615 196 621 q 181 597 189 610 q 153 550 164 567 l 133 518 l 133 24 q 129 -9 133 0 q 111 -18 125 -18 q 92 -8 97 -18 q 88 26 88 1 l 88 446 q 92 713 88 528 l 94 979 q 97 1028 94 1006 q 113 1044 101 1044 q 138 1035 133 1044 q 143 985 143 1025 l 140 754 l 138 586 l 139 586 q 214 761 165 644 l 265 890 q 364 1083 343 1083 q 381 1078 374 1083 q 388 1063 388 1072 q 365 1007 383 1036 l 351 982 q 282 815 328 926 q 222 674 226 681 q 224 657 221 664 q 286 482 251 586 q 343 301 321 378 q 391 132 367 218 q 425 8 415 46 q 428 -1 428 0 q 420 -17 428 -11 q 403 -22 413 -22 m 240 1089 q 200 1138 228 1089 q 149 1244 172 1186 q 124 1324 125 1303 l 150 1342 l 174 1310 q 185 1263 174 1299 q 212 1185 199 1224 q 232 1129 225 1146 q 271 1338 264 1250 l 290 1349 q 315 1332 315 1344 q 310 1317 315 1331 l 311 1310 l 300 1289 l 301 1281 l 286 1231 q 261 1118 261 1164 q 240 1089 261 1089 z "},"Ķ":{"ha":438,"x_min":88,"x_max":428,"o":"m 403 -22 q 386 -12 390 -22 q 353 104 385 -4 l 304 274 q 206 600 228 538 l 197 624 q 192 615 196 621 q 181 597 189 610 q 153 550 164 567 l 133 518 l 133 24 q 129 -9 133 0 q 111 -18 125 -18 q 92 -8 97 -18 q 88 26 88 1 l 88 446 q 92 713 88 528 l 94 979 q 97 1028 94 1006 q 113 1044 101 1044 q 138 1035 133 1044 q 143 985 143 1025 l 140 754 l 138 586 l 139 586 q 214 761 165 644 l 265 890 q 364 1083 343 1083 q 381 1078 374 1083 q 388 1063 388 1072 q 365 1007 383 1036 l 351 982 q 282 815 328 926 q 222 674 226 681 q 224 657 221 664 q 286 482 251 586 q 343 301 321 378 q 391 132 367 218 q 425 8 415 46 q 428 -1 428 0 q 420 -17 428 -11 q 403 -22 413 -22 m 153 -287 l 156 -275 q 194 -239 164 -269 q 224 -197 219 -210 q 228 -174 228 -187 q 199 -146 210 -162 q 188 -112 188 -129 q 203 -82 188 -94 q 240 -69 219 -69 q 286 -110 271 -69 l 283 -114 q 286 -131 286 -117 q 269 -194 286 -154 q 225 -265 251 -235 q 175 -299 200 -296 l 153 -287 z "},"L":{"ha":343,"x_min":94,"x_max":294,"o":"m 144 -8 q 128 0 135 -8 q 122 21 122 8 l 122 43 l 122 76 q 115 274 122 164 q 110 471 110 390 q 103 761 110 546 q 94 1051 94 956 q 101 1063 94 1058 q 115 1068 107 1068 q 140 1047 140 1068 q 144 663 140 790 l 151 414 q 160 224 151 356 l 168 51 q 172 47 168 47 q 190 46 174 46 l 276 46 q 294 21 294 46 q 290 2 294 10 q 278 -6 286 -6 l 268 -7 l 257 -7 q 144 -8 228 -8 z "},"Ǉ":{"ha":665,"x_min":94,"x_max":583,"o":"m 144 -8 q 128 0 135 -8 q 122 21 122 8 l 122 43 l 122 76 q 115 274 122 164 q 110 471 110 390 q 103 761 110 546 q 94 1051 94 956 q 101 1063 94 1058 q 115 1068 107 1068 q 140 1047 140 1068 q 144 663 140 790 l 151 414 q 160 224 151 356 l 168 51 q 172 47 168 47 q 190 46 174 46 l 276 46 q 294 21 294 46 q 290 2 294 10 q 278 -6 286 -6 l 268 -7 l 257 -7 q 144 -8 228 -8 m 419 -135 q 390 -108 390 -135 q 424 -75 392 -94 l 440 -62 q 501 150 501 -3 q 494 356 501 244 q 488 543 488 504 l 479 758 q 472 1010 472 942 q 431 1008 450 1010 l 389 1007 q 376 1013 381 1007 q 371 1028 371 1019 q 382 1049 371 1044 q 435 1054 393 1054 l 488 1053 l 561 1053 q 577 1046 571 1053 q 583 1031 583 1039 q 576 1014 583 1018 q 546 1010 568 1010 l 515 1010 q 531 542 515 822 q 536 414 533 504 q 546 207 546 240 q 544 115 546 149 q 535 43 542 82 q 515 -26 528 3 q 478 -82 501 -54 q 419 -135 454 -112 z "},"Ĺ":{"ha":343,"x_min":89,"x_max":294,"o":"m 144 -8 q 128 0 135 -8 q 122 21 122 8 l 122 43 l 122 76 q 115 274 122 164 q 110 471 110 390 q 103 761 110 546 q 94 1051 94 956 q 101 1063 94 1058 q 115 1068 107 1068 q 140 1047 140 1068 q 144 663 140 790 l 151 414 q 160 224 151 356 l 168 51 q 172 47 168 47 q 190 46 174 46 l 276 46 q 294 21 294 46 q 290 2 294 10 q 278 -6 286 -6 l 268 -7 l 257 -7 q 144 -8 228 -8 m 114 1113 q 97 1118 104 1113 q 89 1132 89 1124 q 128 1168 89 1136 l 172 1204 l 210 1233 q 261 1274 257 1269 q 292 1253 292 1274 l 288 1231 q 114 1113 215 1197 z "},"Ľ":{"ha":343,"x_min":21,"x_max":294,"o":"m 144 -8 q 128 0 135 -8 q 122 21 122 8 l 122 43 l 122 76 q 115 274 122 164 q 110 471 110 390 q 103 761 110 546 q 94 1051 94 956 q 101 1063 94 1058 q 115 1068 107 1068 q 140 1047 140 1068 q 144 663 140 790 l 151 414 q 160 224 151 356 l 168 51 q 172 47 168 47 q 190 46 174 46 l 276 46 q 294 21 294 46 q 290 2 294 10 q 278 -6 286 -6 l 268 -7 l 257 -7 q 144 -8 228 -8 m 138 1089 q 97 1138 125 1089 q 46 1244 69 1186 q 21 1324 22 1303 l 47 1342 l 71 1310 q 82 1263 71 1299 q 109 1185 96 1224 q 129 1129 122 1146 q 168 1338 161 1250 l 188 1349 q 213 1332 213 1344 q 207 1317 213 1331 l 208 1310 l 197 1289 l 199 1281 l 183 1231 q 158 1118 158 1164 q 138 1089 158 1089 z "},"Ļ":{"ha":343,"x_min":94,"x_max":294,"o":"m 144 -8 q 128 0 135 -8 q 122 21 122 8 l 122 43 l 122 76 q 115 274 122 164 q 110 471 110 390 q 103 761 110 546 q 94 1051 94 956 q 101 1063 94 1058 q 115 1068 107 1068 q 140 1047 140 1068 q 144 663 140 790 l 151 414 q 160 224 151 356 l 168 51 q 172 47 168 47 q 190 46 174 46 l 276 46 q 294 21 294 46 q 290 2 294 10 q 278 -6 286 -6 l 268 -7 l 257 -7 q 144 -8 228 -8 m 106 -287 l 108 -275 q 147 -239 117 -269 q 176 -197 172 -210 q 181 -174 181 -187 q 151 -146 163 -162 q 140 -112 140 -129 q 156 -82 140 -94 q 193 -69 172 -69 q 239 -110 224 -69 l 236 -114 q 239 -131 239 -117 q 222 -194 239 -154 q 178 -265 204 -235 q 128 -299 153 -296 l 106 -287 z "},"Ŀ":{"ha":431,"x_min":94,"x_max":397,"o":"m 144 -8 q 128 0 135 -8 q 122 21 122 8 l 122 43 l 122 76 q 115 274 122 164 q 110 471 110 390 q 103 761 110 546 q 94 1051 94 956 q 101 1063 94 1058 q 115 1068 107 1068 q 140 1047 140 1068 q 144 663 140 790 l 151 414 q 160 224 151 356 l 168 51 q 172 47 168 47 q 190 46 174 46 l 276 46 q 294 21 294 46 q 290 2 294 10 q 278 -6 286 -6 l 268 -7 l 257 -7 q 144 -8 228 -8 m 358 472 q 337 483 346 472 q 328 506 328 493 q 339 531 328 519 q 364 543 350 543 q 386 531 375 543 q 397 507 397 519 q 358 472 397 472 z "},"ǈ":{"ha":676,"x_min":94,"x_max":642,"o":"m 144 -8 q 128 0 135 -8 q 122 21 122 8 l 122 43 l 122 76 q 115 274 122 164 q 110 471 110 390 q 103 761 110 546 q 94 1051 94 956 q 101 1063 94 1058 q 115 1068 107 1068 q 140 1047 140 1068 q 144 663 140 790 l 151 414 q 160 224 151 356 l 168 51 q 172 47 168 47 q 190 46 174 46 l 276 46 q 294 21 294 46 q 290 2 294 10 q 278 -6 286 -6 l 268 -7 l 257 -7 q 144 -8 228 -8 m 354 -139 l 354 -136 l 353 -133 q 376 -114 353 -129 q 426 -81 399 -97 q 458 -57 457 -60 q 491 17 479 -33 q 503 117 503 68 q 497 486 503 265 q 490 854 490 692 l 482 869 q 449 876 472 872 q 401 888 422 878 q 381 906 381 894 q 392 917 381 911 q 410 922 403 922 q 494 913 436 922 q 597 889 551 903 q 642 864 642 875 q 635 851 642 856 q 619 846 629 846 q 582 853 610 846 q 544 860 561 860 q 532 832 532 860 q 539 543 532 756 q 546 256 546 383 l 546 103 q 538 44 538 85 q 504 -87 538 -14 q 458 -148 486 -125 q 396 -171 429 -171 l 386 -171 l 354 -139 z "},"Ł":{"ha":364,"x_min":8,"x_max":317,"o":"m 297 46 q 317 21 317 46 q 312 2 317 10 q 299 -6 307 -6 l 289 -7 l 278 -7 q 167 -8 249 -8 q 150 0 157 -8 q 143 21 143 8 l 144 43 l 144 76 q 138 274 144 128 q 131 471 131 383 l 131 535 l 88 515 l 44 496 q 31 493 39 493 q 16 497 24 493 q 8 507 8 501 q 129 582 8 522 l 124 761 q 115 1051 115 956 q 122 1063 115 1058 q 136 1068 128 1068 q 161 1047 161 1068 q 167 663 161 775 l 168 601 q 264 646 194 615 q 278 649 272 649 q 294 644 286 649 q 301 635 301 640 q 169 554 301 619 l 174 414 q 181 224 174 333 l 189 51 q 193 47 189 47 q 211 46 194 46 l 297 46 z "},"M":{"ha":636,"x_min":101,"x_max":533,"o":"m 514 -32 q 490 -23 496 -32 q 483 7 483 -14 l 483 133 q 478 363 483 228 q 476 435 476 388 q 472 590 472 533 l 474 668 q 475 746 475 703 q 474 813 475 783 q 472 847 472 833 q 469 869 471 861 l 467 860 q 421 593 451 758 q 371 328 390 428 q 346 201 351 239 q 334 172 343 183 q 314 161 325 161 q 294 172 303 161 q 285 204 286 183 q 214 576 275 271 q 146 893 153 882 q 142 613 142 768 q 143 392 142 490 q 144 171 144 293 q 149 106 144 150 l 151 39 q 142 3 151 13 q 101 75 101 3 l 101 307 l 103 447 q 104 589 104 510 q 106 753 104 681 l 108 918 l 108 1040 q 115 1053 108 1047 q 128 1058 121 1058 q 143 1047 139 1058 q 206 801 156 1006 q 281 486 256 597 q 321 256 293 421 l 331 310 q 343 379 335 335 q 364 501 360 488 l 428 842 l 440 914 l 456 992 l 463 1033 q 471 1055 464 1047 q 486 1063 478 1063 q 499 1056 493 1063 q 504 1036 504 1049 l 504 899 q 517 583 504 794 q 526 271 526 389 q 531 156 526 233 q 533 17 533 56 q 529 -24 533 -14 q 514 -32 524 -32 z "},"Ṁ":{"ha":665,"x_min":101,"x_max":533,"o":"m 514 -32 q 490 -23 496 -32 q 483 7 483 -14 l 483 133 q 478 363 483 228 q 476 435 476 388 q 472 590 472 533 l 474 668 q 475 746 475 703 q 474 813 475 783 q 472 847 472 833 q 469 869 471 861 l 467 860 q 421 593 451 758 q 371 328 390 428 q 346 201 351 239 q 334 172 343 183 q 314 161 325 161 q 294 172 303 161 q 285 204 286 183 q 214 576 275 271 q 146 893 153 882 q 142 613 142 768 q 143 392 142 490 q 144 171 144 293 q 149 106 144 150 l 151 39 q 142 3 151 13 q 101 75 101 3 l 101 307 l 103 447 q 104 589 104 510 q 106 753 104 681 l 108 918 l 108 1040 q 115 1053 108 1047 q 128 1058 121 1058 q 143 1047 139 1058 q 206 801 156 1006 q 281 486 256 597 q 321 256 293 421 l 331 310 q 343 379 335 335 q 364 501 360 488 l 428 842 l 440 914 l 456 992 l 463 1033 q 471 1055 464 1047 q 486 1063 478 1063 q 499 1056 493 1063 q 504 1036 504 1049 l 504 899 q 517 583 504 794 q 526 271 526 389 q 531 156 526 233 q 533 17 533 56 q 529 -24 533 -14 q 514 -32 524 -32 m 168 782 q 147 792 156 782 q 138 815 138 803 q 149 841 138 829 q 174 853 160 853 q 197 841 186 853 q 207 817 207 829 q 168 782 207 782 z "},"N":{"ha":528,"x_min":68,"x_max":426,"o":"m 378 -15 q 360 -6 368 -15 q 349 17 351 4 l 344 43 q 340 64 340 60 q 169 689 185 621 q 113 967 157 739 q 111 910 111 958 l 111 407 l 114 208 l 117 11 l 108 0 l 76 0 l 72 11 q 75 67 75 25 l 74 308 l 71 550 l 71 732 l 71 864 q 69 994 69 922 q 68 1010 69 1003 l 68 1024 q 77 1047 68 1040 q 106 1053 86 1053 q 124 1044 114 1053 q 138 1026 135 1036 l 167 890 q 200 743 186 793 q 300 365 229 628 q 372 101 340 193 q 381 168 381 122 q 383 410 381 303 l 386 651 q 388 760 386 711 l 388 867 l 386 1063 q 415 1082 393 1082 q 426 1042 426 1082 q 425 1013 426 1024 q 424 997 425 1001 q 424 990 424 992 l 424 901 q 422 572 424 717 q 421 244 421 426 q 417 135 421 210 l 414 25 q 378 -15 414 -15 z "},"Ǌ":{"ha":850,"x_min":68,"x_max":768,"o":"m 378 -15 q 360 -6 368 -15 q 349 17 351 4 l 344 43 q 340 64 340 60 q 169 689 185 621 q 113 967 157 739 q 111 910 111 958 l 111 407 l 114 208 l 117 11 l 108 0 l 76 0 l 72 11 q 75 67 75 25 l 74 308 l 71 550 l 71 732 l 71 864 q 69 994 69 922 q 68 1010 69 1003 l 68 1024 q 77 1047 68 1040 q 106 1053 86 1053 q 124 1044 114 1053 q 138 1026 135 1036 l 167 890 q 200 743 186 793 q 300 365 229 628 q 372 101 340 193 q 381 168 381 122 q 383 410 381 303 l 386 651 q 388 760 386 711 l 388 867 l 386 1063 q 415 1082 393 1082 q 426 1042 426 1082 q 425 1013 426 1024 q 424 997 425 1001 q 424 990 424 992 l 424 901 q 422 572 424 717 q 421 244 421 426 q 417 135 421 210 l 414 25 q 378 -15 414 -15 m 604 -135 q 575 -108 575 -135 q 608 -75 576 -94 l 625 -62 q 686 150 686 -3 q 679 356 686 244 q 672 543 672 504 l 664 758 q 657 1010 657 942 q 615 1008 635 1010 l 574 1007 q 560 1013 565 1007 q 556 1028 556 1019 q 567 1049 556 1044 q 619 1054 578 1054 l 672 1053 l 746 1053 q 762 1046 756 1053 q 768 1031 768 1039 q 760 1014 768 1018 q 731 1010 753 1010 l 700 1010 q 715 542 700 822 q 721 414 718 504 q 731 207 731 240 q 728 115 731 149 q 719 43 726 82 q 699 -26 713 3 q 663 -82 686 -54 q 604 -135 639 -112 z "},"Ń":{"ha":528,"x_min":68,"x_max":439,"o":"m 378 -15 q 360 -6 368 -15 q 349 17 351 4 l 344 43 q 340 64 340 60 q 169 689 185 621 q 113 967 157 739 q 111 910 111 958 l 111 407 l 114 208 l 117 11 l 108 0 l 76 0 l 72 11 q 75 67 75 25 l 74 308 l 71 550 l 71 732 l 71 864 q 69 994 69 922 q 68 1010 69 1003 l 68 1024 q 77 1047 68 1040 q 106 1053 86 1053 q 124 1044 114 1053 q 138 1026 135 1036 l 167 890 q 200 743 186 793 q 300 365 229 628 q 372 101 340 193 q 381 168 381 122 q 383 410 381 303 l 386 651 q 388 760 386 711 l 388 867 l 386 1063 q 415 1082 393 1082 q 426 1042 426 1082 q 425 1013 426 1024 q 424 997 425 1001 q 424 990 424 992 l 424 901 q 422 572 424 717 q 421 244 421 426 q 417 135 421 210 l 414 25 q 378 -15 414 -15 m 261 1113 q 244 1118 251 1113 q 236 1132 236 1124 q 275 1168 236 1136 l 319 1204 l 357 1233 q 408 1274 404 1269 q 439 1253 439 1274 l 435 1231 q 261 1113 363 1197 z "},"Ň":{"ha":528,"x_min":68,"x_max":426,"o":"m 378 -15 q 360 -6 368 -15 q 349 17 351 4 l 344 43 q 340 64 340 60 q 169 689 185 621 q 113 967 157 739 q 111 910 111 958 l 111 407 l 114 208 l 117 11 l 108 0 l 76 0 l 72 11 q 75 67 75 25 l 74 308 l 71 550 l 71 732 l 71 864 q 69 994 69 922 q 68 1010 69 1003 l 68 1024 q 77 1047 68 1040 q 106 1053 86 1053 q 124 1044 114 1053 q 138 1026 135 1036 l 167 890 q 200 743 186 793 q 300 365 229 628 q 372 101 340 193 q 381 168 381 122 q 383 410 381 303 l 386 651 q 388 760 386 711 l 388 867 l 386 1063 q 415 1082 393 1082 q 426 1042 426 1082 q 425 1013 426 1024 q 424 997 425 1001 q 424 990 424 992 l 424 901 q 422 572 424 717 q 421 244 421 426 q 417 135 421 210 l 414 25 q 378 -15 414 -15 m 285 1089 q 244 1138 272 1089 q 193 1244 217 1186 q 168 1324 169 1303 l 194 1342 l 218 1310 q 229 1263 218 1299 q 256 1185 243 1224 q 276 1129 269 1146 q 315 1338 308 1250 l 335 1349 q 360 1332 360 1344 q 354 1317 360 1331 l 356 1310 l 344 1289 l 346 1281 l 331 1231 q 306 1118 306 1164 q 285 1089 306 1089 z "},"Ņ":{"ha":528,"x_min":68,"x_max":426,"o":"m 378 -15 q 360 -6 368 -15 q 349 17 351 4 l 344 43 q 340 64 340 60 q 169 689 185 621 q 113 967 157 739 q 111 910 111 958 l 111 407 l 114 208 l 117 11 l 108 0 l 76 0 l 72 11 q 75 67 75 25 l 74 308 l 71 550 l 71 732 l 71 864 q 69 994 69 922 q 68 1010 69 1003 l 68 1024 q 77 1047 68 1040 q 106 1053 86 1053 q 124 1044 114 1053 q 138 1026 135 1036 l 167 890 q 200 743 186 793 q 300 365 229 628 q 372 101 340 193 q 381 168 381 122 q 383 410 381 303 l 386 651 q 388 760 386 711 l 388 867 l 386 1063 q 415 1082 393 1082 q 426 1042 426 1082 q 425 1013 426 1024 q 424 997 425 1001 q 424 990 424 992 l 424 901 q 422 572 424 717 q 421 244 421 426 q 417 135 421 210 l 414 25 q 378 -15 414 -15 m 197 -287 l 200 -275 q 239 -239 208 -269 q 268 -197 264 -210 q 272 -174 272 -187 q 243 -146 254 -162 q 232 -112 232 -129 q 248 -82 232 -94 q 285 -69 264 -69 q 331 -110 315 -69 l 328 -114 q 331 -131 331 -117 q 313 -194 331 -154 q 269 -265 296 -235 q 219 -299 244 -296 l 197 -287 z "},"Ṇ":{"ha":528,"x_min":68,"x_max":426,"o":"m 378 -15 q 360 -6 368 -15 q 349 17 351 4 l 344 43 q 340 64 340 60 q 169 689 185 621 q 113 967 157 739 q 111 910 111 958 l 111 407 l 114 208 l 117 11 l 108 0 l 76 0 l 72 11 q 75 67 75 25 l 74 308 l 71 550 l 71 732 l 71 864 q 69 994 69 922 q 68 1010 69 1003 l 68 1024 q 77 1047 68 1040 q 106 1053 86 1053 q 124 1044 114 1053 q 138 1026 135 1036 l 167 890 q 200 743 186 793 q 300 365 229 628 q 372 101 340 193 q 381 168 381 122 q 383 410 381 303 l 386 651 q 388 760 386 711 l 388 867 l 386 1063 q 415 1082 393 1082 q 426 1042 426 1082 q 425 1013 426 1024 q 424 997 425 1001 q 424 990 424 992 l 424 901 q 422 572 424 717 q 421 244 421 426 q 417 135 421 210 l 414 25 q 378 -15 414 -15 m 260 -162 q 238 -152 247 -162 q 229 -129 229 -142 q 240 -103 229 -115 q 265 -92 251 -92 q 288 -103 278 -92 q 299 -128 299 -115 q 260 -162 299 -162 z "},"Ǹ":{"ha":528,"x_min":68,"x_max":426,"o":"m 378 -15 q 360 -6 368 -15 q 349 17 351 4 l 344 43 q 340 64 340 60 q 169 689 185 621 q 113 967 157 739 q 111 910 111 958 l 111 407 l 114 208 l 117 11 l 108 0 l 76 0 l 72 11 q 75 67 75 25 l 74 308 l 71 550 l 71 732 l 71 864 q 69 994 69 922 q 68 1010 69 1003 l 68 1024 q 77 1047 68 1040 q 106 1053 86 1053 q 124 1044 114 1053 q 138 1026 135 1036 l 167 890 q 200 743 186 793 q 300 365 229 628 q 372 101 340 193 q 381 168 381 122 q 383 410 381 303 l 386 651 q 388 760 386 711 l 388 867 l 386 1063 q 415 1082 393 1082 q 426 1042 426 1082 q 425 1013 426 1024 q 424 997 425 1001 q 424 990 424 992 l 424 901 q 422 572 424 717 q 421 244 421 426 q 417 135 421 210 l 414 25 q 378 -15 414 -15 m 315 1074 q 251 1109 294 1085 q 185 1147 208 1133 l 163 1149 q 121 1181 121 1157 q 135 1214 121 1204 l 143 1211 q 193 1188 185 1206 q 210 1179 193 1186 l 260 1149 q 311 1113 290 1129 q 333 1083 333 1094 q 315 1074 333 1074 z "},"Ŋ":{"ha":624,"x_min":121,"x_max":500,"o":"m 350 -317 q 321 -290 321 -317 q 354 -257 322 -278 q 372 -244 367 -250 q 433 -32 433 -181 l 433 -19 q 418 15 425 -8 q 390 103 419 10 q 337 274 360 196 q 286 454 314 353 q 232 689 249 593 q 231 698 231 693 q 229 708 231 703 q 217 747 229 735 l 219 754 l 204 836 l 196 871 q 172 950 186 915 l 168 922 l 168 910 q 171 883 168 889 q 161 788 161 854 l 161 407 q 171 208 161 331 q 179 11 179 78 l 171 0 l 139 0 l 135 11 q 138 67 138 25 q 129 308 138 149 q 121 550 121 469 l 121 732 l 124 821 l 126 864 q 132 994 132 942 q 131 1010 132 1003 l 131 1024 q 140 1047 131 1040 q 168 1053 149 1053 q 189 1044 178 1053 q 200 1026 200 1036 q 206 978 200 1000 q 224 929 211 956 q 242 876 236 899 q 253 810 247 854 l 261 743 q 329 483 281 657 l 343 435 q 378 294 364 364 q 397 213 392 225 l 436 78 q 443 168 443 157 q 446 410 443 303 l 449 651 l 446 760 q 444 867 444 807 q 446 894 444 882 l 449 919 q 444 938 449 933 l 449 949 l 449 981 q 443 1063 449 1026 q 478 1082 447 1082 q 500 1036 500 1082 q 492 990 492 1022 l 492 967 l 492 943 q 488 901 492 914 l 485 682 q 483 463 483 585 q 486 425 483 442 l 483 419 l 483 244 q 479 135 483 210 l 476 25 q 472 -26 476 10 q 468 -89 468 -62 q 436 -218 468 -158 q 350 -317 404 -278 z "},"Ɲ":{"ha":528,"x_min":-36,"x_max":426,"o":"m -7 -317 q -36 -290 -36 -317 q -3 -257 -36 -275 l 14 -244 q 75 -32 75 -181 l 75 -19 l 74 308 l 71 550 l 71 732 l 71 864 q 69 994 69 922 q 68 1010 69 1003 l 68 1024 q 77 1047 68 1040 q 106 1053 86 1053 q 124 1044 114 1053 q 138 1026 135 1036 l 167 890 q 200 743 186 793 q 300 365 229 628 q 372 101 340 193 q 381 168 381 122 q 383 410 381 303 l 386 651 q 388 760 386 711 l 388 867 l 386 1063 q 415 1082 393 1082 q 426 1042 426 1082 q 425 1013 426 1024 q 424 997 425 1001 q 424 990 424 992 l 424 901 q 422 572 424 717 q 421 244 421 426 q 417 135 421 210 l 414 25 q 378 -15 414 -15 q 360 -6 368 -15 q 349 17 351 4 l 344 43 q 340 64 340 60 q 169 689 185 621 q 113 967 157 739 q 111 910 111 958 l 111 407 l 114 208 q 115 -26 115 121 q 111 -89 111 -62 q 78 -217 111 -158 q -7 -317 46 -276 z "},"ǋ":{"ha":861,"x_min":68,"x_max":826,"o":"m 378 -15 q 360 -6 368 -15 q 349 17 351 4 l 344 43 q 340 64 340 60 q 169 689 185 621 q 113 967 157 739 q 111 910 111 958 l 111 407 l 114 208 l 117 11 l 108 0 l 76 0 l 72 11 q 75 67 75 25 l 74 308 l 71 550 l 71 732 l 71 864 q 69 994 69 922 q 68 1010 69 1003 l 68 1024 q 77 1047 68 1040 q 106 1053 86 1053 q 124 1044 114 1053 q 138 1026 135 1036 l 167 890 q 200 743 186 793 q 300 365 229 628 q 372 101 340 193 q 381 168 381 122 q 383 410 381 303 l 386 651 q 388 760 386 711 l 388 867 l 386 1063 q 415 1082 393 1082 q 426 1042 426 1082 q 425 1013 426 1024 q 424 997 425 1001 q 424 990 424 992 l 424 901 q 422 572 424 717 q 421 244 421 426 q 417 135 421 210 l 414 25 q 378 -15 414 -15 m 539 -139 l 539 -136 l 538 -133 q 561 -114 538 -129 q 611 -81 583 -97 q 643 -57 642 -60 q 676 17 664 -33 q 688 117 688 68 q 682 486 688 265 q 675 854 675 692 l 667 869 q 633 876 657 872 q 586 888 607 878 q 565 906 565 894 q 576 917 565 911 q 594 922 588 922 q 678 913 621 922 q 781 889 736 903 q 826 864 826 875 q 820 851 826 856 q 804 846 814 846 q 767 853 794 846 q 729 860 746 860 q 717 832 717 860 q 724 543 717 756 q 731 256 731 383 l 731 103 q 722 44 722 85 q 689 -87 722 -14 q 642 -148 671 -125 q 581 -171 614 -171 l 571 -171 l 539 -139 z "},"Ñ":{"ha":528,"x_min":68,"x_max":426,"o":"m 378 -15 q 360 -6 368 -15 q 349 17 351 4 l 344 43 q 340 64 340 60 q 169 689 185 621 q 113 967 157 739 q 111 910 111 958 l 111 407 l 114 208 l 117 11 l 108 0 l 76 0 l 72 11 q 75 67 75 25 l 74 308 l 71 550 l 71 732 l 71 864 q 69 994 69 922 q 68 1010 69 1003 l 68 1024 q 77 1047 68 1040 q 106 1053 86 1053 q 124 1044 114 1053 q 138 1026 135 1036 l 167 890 q 200 743 186 793 q 300 365 229 628 q 372 101 340 193 q 381 168 381 122 q 383 410 381 303 l 386 651 q 388 760 386 711 l 388 867 l 386 1063 q 415 1082 393 1082 q 426 1042 426 1082 q 425 1013 426 1024 q 424 997 425 1001 q 424 990 424 992 l 424 901 q 422 572 424 717 q 421 244 421 426 q 417 135 421 210 l 414 25 q 378 -15 414 -15 m 143 1090 q 126 1098 135 1090 q 117 1114 117 1106 q 140 1183 117 1157 q 199 1210 164 1210 q 257 1182 233 1210 q 292 1144 268 1161 q 336 1128 315 1128 q 372 1178 372 1128 l 369 1192 l 364 1204 q 378 1213 368 1213 q 401 1199 393 1213 q 410 1165 410 1185 q 388 1114 410 1136 q 336 1092 365 1092 q 289 1106 314 1092 q 249 1135 264 1119 q 213 1174 238 1144 l 203 1178 q 167 1167 182 1178 q 151 1140 151 1156 l 158 1111 l 143 1090 z "},"O":{"ha":511,"x_min":85,"x_max":421,"o":"m 278 -29 q 85 639 85 -29 l 85 694 q 99 897 85 811 q 122 986 107 951 q 161 1042 136 1021 q 222 1065 185 1065 q 283 1052 256 1065 q 329 1018 311 1039 q 357 967 344 999 q 376 906 369 935 l 388 840 q 421 419 421 603 l 421 415 q 418 288 421 346 q 403 142 415 218 q 387 76 397 104 q 360 21 376 49 q 278 -29 331 -29 m 281 10 q 321 35 303 10 q 349 107 339 61 q 376 297 371 204 q 379 443 379 372 l 379 449 l 378 588 q 361 782 375 663 q 315 956 350 867 q 278 1010 301 990 q 229 1029 256 1029 q 188 1007 206 1029 q 158 944 169 985 q 131 772 133 851 q 126 632 126 704 l 126 564 q 144 328 126 471 q 172 171 156 238 q 217 58 189 104 q 281 10 244 10 z "},"Ó":{"ha":511,"x_min":85,"x_max":421,"o":"m 278 -29 q 85 639 85 -29 l 85 694 q 99 897 85 811 q 122 986 107 951 q 161 1042 136 1021 q 222 1065 185 1065 q 283 1052 256 1065 q 329 1018 311 1039 q 357 967 344 999 q 376 906 369 935 l 388 840 q 421 419 421 603 l 421 415 q 418 288 421 346 q 403 142 415 218 q 387 76 397 104 q 360 21 376 49 q 278 -29 331 -29 m 281 10 q 321 35 303 10 q 349 107 339 61 q 376 297 371 204 q 379 443 379 372 l 379 449 l 378 588 q 361 782 375 663 q 315 956 350 867 q 278 1010 301 990 q 229 1029 256 1029 q 188 1007 206 1029 q 158 944 169 985 q 131 772 133 851 q 126 632 126 704 l 126 564 q 144 328 126 471 q 172 171 156 238 q 217 58 189 104 q 281 10 244 10 m 219 1133 q 202 1139 210 1133 q 194 1153 194 1144 q 233 1189 194 1157 l 278 1225 l 315 1254 q 367 1294 363 1290 q 397 1274 397 1294 l 393 1251 q 219 1133 321 1218 z "},"Ŏ":{"ha":511,"x_min":85,"x_max":421,"o":"m 278 -29 q 85 639 85 -29 l 85 694 q 99 897 85 811 q 122 986 107 951 q 161 1042 136 1021 q 222 1065 185 1065 q 283 1052 256 1065 q 329 1018 311 1039 q 357 967 344 999 q 376 906 369 935 l 388 840 q 421 419 421 603 l 421 415 q 418 288 421 346 q 403 142 415 218 q 387 76 397 104 q 360 21 376 49 q 278 -29 331 -29 m 281 10 q 321 35 303 10 q 349 107 339 61 q 376 297 371 204 q 379 443 379 372 l 379 449 l 378 588 q 361 782 375 663 q 315 956 350 867 q 278 1010 301 990 q 229 1029 256 1029 q 188 1007 206 1029 q 158 944 169 985 q 131 772 133 851 q 126 632 126 704 l 126 564 q 144 328 126 471 q 172 171 156 238 q 217 58 189 104 q 281 10 244 10 m 219 1121 q 139 1168 164 1121 q 118 1263 118 1213 l 133 1275 q 147 1253 143 1272 q 182 1164 158 1181 l 197 1153 l 232 1153 q 264 1177 249 1153 q 279 1224 279 1201 l 279 1233 q 278 1243 278 1238 q 303 1269 278 1269 q 317 1263 310 1269 q 324 1250 324 1257 l 321 1238 l 317 1228 l 319 1218 q 315 1208 318 1214 q 310 1194 313 1201 q 286 1151 296 1164 q 272 1135 279 1140 q 250 1125 264 1129 q 219 1121 235 1121 z "},"Ǒ":{"ha":511,"x_min":85,"x_max":421,"o":"m 278 -29 q 85 639 85 -29 l 85 694 q 99 897 85 811 q 122 986 107 951 q 161 1042 136 1021 q 222 1065 185 1065 q 283 1052 256 1065 q 329 1018 311 1039 q 357 967 344 999 q 376 906 369 935 l 388 840 q 421 419 421 603 l 421 415 q 418 288 421 346 q 403 142 415 218 q 387 76 397 104 q 360 21 376 49 q 278 -29 331 -29 m 281 10 q 321 35 303 10 q 349 107 339 61 q 376 297 371 204 q 379 443 379 372 l 379 449 l 378 588 q 361 782 375 663 q 315 956 350 867 q 278 1010 301 990 q 229 1029 256 1029 q 188 1007 206 1029 q 158 944 169 985 q 131 772 133 851 q 126 632 126 704 l 126 564 q 144 328 126 471 q 172 171 156 238 q 217 58 189 104 q 281 10 244 10 m 243 1110 q 203 1158 231 1110 q 151 1265 175 1207 q 126 1344 128 1324 l 153 1363 l 176 1331 q 188 1283 176 1319 q 215 1206 201 1244 q 235 1150 228 1167 q 274 1358 267 1271 l 293 1369 q 318 1353 318 1365 q 313 1338 318 1351 l 314 1331 l 303 1310 l 304 1301 l 289 1251 q 264 1139 264 1185 q 243 1110 264 1110 z "},"Ô":{"ha":511,"x_min":85,"x_max":421,"o":"m 278 -29 q 85 639 85 -29 l 85 694 q 99 897 85 811 q 122 986 107 951 q 161 1042 136 1021 q 222 1065 185 1065 q 283 1052 256 1065 q 329 1018 311 1039 q 357 967 344 999 q 376 906 369 935 l 388 840 q 421 419 421 603 l 421 415 q 418 288 421 346 q 403 142 415 218 q 387 76 397 104 q 360 21 376 49 q 278 -29 331 -29 m 281 10 q 321 35 303 10 q 349 107 339 61 q 376 297 371 204 q 379 443 379 372 l 379 449 l 378 588 q 361 782 375 663 q 315 956 350 867 q 278 1010 301 990 q 229 1029 256 1029 q 188 1007 206 1029 q 158 944 169 985 q 131 772 133 851 q 126 632 126 704 l 126 564 q 144 328 126 471 q 172 171 156 238 q 217 58 189 104 q 281 10 244 10 m 267 1104 q 228 1313 260 1193 q 181 1179 222 1304 q 169 1132 169 1143 l 146 1100 l 119 1118 q 144 1197 121 1139 q 196 1304 168 1256 q 236 1353 224 1353 q 257 1324 257 1353 q 282 1211 257 1278 l 297 1161 l 296 1153 l 307 1132 l 306 1125 q 309 1116 307 1119 q 311 1110 311 1113 q 286 1093 311 1097 l 267 1104 z "},"Ố":{"ha":511,"x_min":85,"x_max":497,"o":"m 278 -29 q 85 639 85 -29 l 85 694 q 99 897 85 811 q 122 986 107 951 q 161 1042 136 1021 q 222 1065 185 1065 q 283 1052 256 1065 q 329 1018 311 1039 q 357 967 344 999 q 376 906 369 935 l 388 840 q 421 419 421 603 l 421 415 q 418 288 421 346 q 403 142 415 218 q 387 76 397 104 q 360 21 376 49 q 278 -29 331 -29 m 281 10 q 321 35 303 10 q 349 107 339 61 q 376 297 371 204 q 379 443 379 372 l 379 449 l 378 588 q 361 782 375 663 q 315 956 350 867 q 278 1010 301 990 q 229 1029 256 1029 q 188 1007 206 1029 q 158 944 169 985 q 131 772 133 851 q 126 632 126 704 l 126 564 q 144 328 126 471 q 172 171 156 238 q 217 58 189 104 q 281 10 244 10 m 274 1097 q 235 1306 267 1186 q 188 1172 229 1297 q 176 1125 176 1136 l 153 1093 l 126 1111 q 151 1190 128 1132 q 203 1297 175 1249 q 243 1346 231 1346 q 264 1317 264 1346 q 289 1204 264 1271 l 304 1154 l 303 1146 l 314 1125 l 313 1118 q 316 1109 314 1113 q 318 1103 318 1106 q 293 1086 318 1090 l 274 1097 m 319 1240 q 302 1246 310 1240 q 294 1260 294 1251 q 333 1296 294 1264 l 378 1332 l 415 1361 q 467 1401 463 1397 q 497 1381 497 1401 l 493 1358 q 319 1240 421 1325 z "},"Ộ":{"ha":511,"x_min":85,"x_max":421,"o":"m 278 -29 q 85 639 85 -29 l 85 694 q 99 897 85 811 q 122 986 107 951 q 161 1042 136 1021 q 222 1065 185 1065 q 283 1052 256 1065 q 329 1018 311 1039 q 357 967 344 999 q 376 906 369 935 l 388 840 q 421 419 421 603 l 421 415 q 418 288 421 346 q 403 142 415 218 q 387 76 397 104 q 360 21 376 49 q 278 -29 331 -29 m 281 10 q 321 35 303 10 q 349 107 339 61 q 376 297 371 204 q 379 443 379 372 l 379 449 l 378 588 q 361 782 375 663 q 315 956 350 867 q 278 1010 301 990 q 229 1029 256 1029 q 188 1007 206 1029 q 158 944 169 985 q 131 772 133 851 q 126 632 126 704 l 126 564 q 144 328 126 471 q 172 171 156 238 q 217 58 189 104 q 281 10 244 10 m 253 -162 q 231 -152 240 -162 q 222 -129 222 -142 q 233 -103 222 -115 q 258 -92 244 -92 q 281 -103 271 -92 q 292 -128 292 -115 q 253 -162 292 -162 m 267 1104 q 228 1313 260 1193 q 181 1179 222 1304 q 169 1132 169 1143 l 146 1100 l 119 1118 q 144 1197 121 1139 q 196 1304 168 1256 q 236 1353 224 1353 q 257 1324 257 1353 q 282 1211 257 1278 l 297 1161 l 296 1153 l 307 1132 l 306 1125 q 309 1116 307 1119 q 311 1110 311 1113 q 286 1093 311 1097 l 267 1104 z "},"Ồ":{"ha":511,"x_min":-24,"x_max":421,"o":"m 278 -29 q 85 639 85 -29 l 85 694 q 99 897 85 811 q 122 986 107 951 q 161 1042 136 1021 q 222 1065 185 1065 q 283 1052 256 1065 q 329 1018 311 1039 q 357 967 344 999 q 376 906 369 935 l 388 840 q 421 419 421 603 l 421 415 q 418 288 421 346 q 403 142 415 218 q 387 76 397 104 q 360 21 376 49 q 278 -29 331 -29 m 281 10 q 321 35 303 10 q 349 107 339 61 q 376 297 371 204 q 379 443 379 372 l 379 449 l 378 588 q 361 782 375 663 q 315 956 350 867 q 278 1010 301 990 q 229 1029 256 1029 q 188 1007 206 1029 q 158 944 169 985 q 131 772 133 851 q 126 632 126 704 l 126 564 q 144 328 126 471 q 172 171 156 238 q 217 58 189 104 q 281 10 244 10 m 265 1099 q 226 1307 258 1188 q 179 1174 221 1299 q 168 1126 168 1138 l 144 1094 l 118 1113 q 143 1192 119 1133 q 194 1299 167 1250 q 235 1347 222 1347 q 256 1318 256 1347 q 281 1206 256 1272 l 296 1156 l 294 1147 l 306 1126 l 304 1119 q 308 1110 306 1114 q 310 1104 310 1107 q 285 1088 310 1092 l 265 1099 m -653 1476 q -734 1459 -676 1471 q -800 1449 -793 1448 q -818 1435 -806 1442 q -872 1436 -859 1412 q -880 1466 -885 1457 l -873 1470 q -819 1484 -837 1491 q -802 1488 -818 1483 q -743 1498 -787 1491 q -680 1503 -707 1502 q -644 1494 -650 1503 q -645 1484 -642 1490 q -653 1476 -648 1478 z "},"Ổ":{"ha":511,"x_min":85,"x_max":468,"o":"m 278 -29 q 85 639 85 -29 l 85 694 q 99 897 85 811 q 122 986 107 951 q 161 1042 136 1021 q 222 1065 185 1065 q 283 1052 256 1065 q 329 1018 311 1039 q 357 967 344 999 q 376 906 369 935 l 388 840 q 421 419 421 603 l 421 415 q 418 288 421 346 q 403 142 415 218 q 387 76 397 104 q 360 21 376 49 q 278 -29 331 -29 m 281 10 q 321 35 303 10 q 349 107 339 61 q 376 297 371 204 q 379 443 379 372 l 379 449 l 378 588 q 361 782 375 663 q 315 956 350 867 q 278 1010 301 990 q 229 1029 256 1029 q 188 1007 206 1029 q 158 944 169 985 q 131 772 133 851 q 126 632 126 704 l 126 564 q 144 328 126 471 q 172 171 156 238 q 217 58 189 104 q 281 10 244 10 m 276 1101 q 238 1310 269 1190 q 190 1176 232 1301 q 179 1129 179 1140 l 156 1097 l 129 1115 q 154 1194 131 1136 q 206 1301 178 1253 q 246 1350 233 1350 q 267 1321 267 1350 q 292 1208 267 1275 l 307 1158 l 306 1150 l 317 1129 l 315 1122 q 319 1113 317 1117 q 321 1107 321 1110 q 296 1090 321 1094 l 276 1101 m 388 1232 q 372 1249 374 1232 l 372 1256 q 381 1274 372 1265 q 404 1292 389 1282 q 416 1300 407 1293 q 429 1313 425 1307 q 433 1324 433 1318 q 389 1350 433 1350 q 350 1344 363 1350 q 338 1321 338 1338 q 340 1303 338 1317 q 326 1300 332 1300 q 307 1324 307 1300 q 327 1362 307 1346 q 389 1378 347 1378 q 450 1364 432 1378 q 468 1324 468 1350 q 460 1302 468 1311 q 432 1279 451 1293 q 411 1263 418 1269 q 404 1250 404 1257 l 404 1240 q 388 1232 396 1232 z "},"Ỗ":{"ha":511,"x_min":68,"x_max":421,"o":"m 278 -29 q 85 639 85 -29 l 85 694 q 99 897 85 811 q 122 986 107 951 q 161 1042 136 1021 q 222 1065 185 1065 q 283 1052 256 1065 q 329 1018 311 1039 q 357 967 344 999 q 376 906 369 935 l 388 840 q 421 419 421 603 l 421 415 q 418 288 421 346 q 403 142 415 218 q 387 76 397 104 q 360 21 376 49 q 278 -29 331 -29 m 281 10 q 321 35 303 10 q 349 107 339 61 q 376 297 371 204 q 379 443 379 372 l 379 449 l 378 588 q 361 782 375 663 q 315 956 350 867 q 278 1010 301 990 q 229 1029 256 1029 q 188 1007 206 1029 q 158 944 169 985 q 131 772 133 851 q 126 632 126 704 l 126 564 q 144 328 126 471 q 172 171 156 238 q 217 58 189 104 q 281 10 244 10 m 267 1104 q 228 1313 260 1193 q 181 1179 222 1304 q 169 1132 169 1143 l 146 1100 l 119 1118 q 144 1197 121 1139 q 196 1304 168 1256 q 236 1353 224 1353 q 257 1324 257 1353 q 282 1211 257 1278 l 297 1161 l 296 1153 l 307 1132 l 306 1125 q 309 1116 307 1119 q 311 1110 311 1113 q 286 1093 311 1097 l 267 1104 m 94 1396 q 77 1403 86 1396 q 68 1419 68 1411 q 92 1489 68 1463 q 150 1515 115 1515 q 208 1488 185 1515 q 243 1450 219 1467 q 288 1433 267 1433 q 324 1483 324 1433 l 321 1497 l 315 1510 q 329 1518 319 1518 q 353 1504 344 1518 q 361 1471 361 1490 q 339 1419 361 1442 q 288 1397 317 1397 q 240 1411 265 1397 q 200 1440 215 1425 q 164 1479 189 1450 l 154 1483 q 118 1472 133 1483 q 103 1446 103 1461 l 110 1417 l 94 1396 z "},"Ȍ":{"ha":511,"x_min":-97,"x_max":421,"o":"m 278 -29 q 85 639 85 -29 l 85 694 q 99 897 85 811 q 122 986 107 951 q 161 1042 136 1021 q 222 1065 185 1065 q 283 1052 256 1065 q 329 1018 311 1039 q 357 967 344 999 q 376 906 369 935 l 388 840 q 421 419 421 603 l 421 415 q 418 288 421 346 q 403 142 415 218 q 387 76 397 104 q 360 21 376 49 q 278 -29 331 -29 m 281 10 q 321 35 303 10 q 349 107 339 61 q 376 297 371 204 q 379 443 379 372 l 379 449 l 378 588 q 361 782 375 663 q 315 956 350 867 q 278 1010 301 990 q 229 1029 256 1029 q 188 1007 206 1029 q 158 944 169 985 q 131 772 133 851 q 126 632 126 704 l 126 564 q 144 328 126 471 q 172 171 156 238 q 217 58 189 104 q 281 10 244 10 m 339 1114 q 281 1144 315 1118 q 232 1175 250 1167 q 107 1274 193 1203 q 97 1288 97 1278 q 103 1301 97 1293 q 113 1308 110 1308 q 178 1265 121 1308 q 289 1176 235 1222 q 344 1121 343 1131 l 339 1114 m 163 1117 q 135 1132 158 1117 q 85 1165 110 1147 l 50 1186 l -25 1224 l -97 1264 q -85 1286 -94 1275 q -68 1297 -76 1297 q 10 1257 -58 1297 q 104 1189 36 1240 q 171 1128 171 1138 q 163 1117 171 1117 z "},"Ö":{"ha":511,"x_min":85,"x_max":421,"o":"m 278 -29 q 85 639 85 -29 l 85 694 q 99 897 85 811 q 122 986 107 951 q 161 1042 136 1021 q 222 1065 185 1065 q 283 1052 256 1065 q 329 1018 311 1039 q 357 967 344 999 q 376 906 369 935 l 388 840 q 421 419 421 603 l 421 415 q 418 288 421 346 q 403 142 415 218 q 387 76 397 104 q 360 21 376 49 q 278 -29 331 -29 m 281 10 q 321 35 303 10 q 349 107 339 61 q 376 297 371 204 q 379 443 379 372 l 379 449 l 378 588 q 361 782 375 663 q 315 956 350 867 q 278 1010 301 990 q 229 1029 256 1029 q 188 1007 206 1029 q 158 944 169 985 q 131 772 133 851 q 126 632 126 704 l 126 564 q 144 328 126 471 q 172 171 156 238 q 217 58 189 104 q 281 10 244 10 m 313 1144 q 293 1154 301 1144 q 285 1175 285 1164 q 295 1199 285 1188 q 318 1210 306 1210 q 340 1199 331 1210 q 349 1176 349 1188 q 313 1144 349 1144 m 128 1139 q 109 1150 117 1139 q 101 1174 101 1161 q 112 1197 101 1186 q 135 1208 122 1208 q 156 1194 149 1208 q 163 1163 163 1181 q 152 1145 163 1151 q 128 1139 142 1139 z "},"Ȫ":{"ha":511,"x_min":85,"x_max":421,"o":"m 278 -29 q 85 639 85 -29 l 85 694 q 99 897 85 811 q 122 986 107 951 q 161 1042 136 1021 q 222 1065 185 1065 q 283 1052 256 1065 q 329 1018 311 1039 q 357 967 344 999 q 376 906 369 935 l 388 840 q 421 419 421 603 l 421 415 q 418 288 421 346 q 403 142 415 218 q 387 76 397 104 q 360 21 376 49 q 278 -29 331 -29 m 281 10 q 321 35 303 10 q 349 107 339 61 q 376 297 371 204 q 379 443 379 372 l 379 449 l 378 588 q 361 782 375 663 q 315 956 350 867 q 278 1010 301 990 q 229 1029 256 1029 q 188 1007 206 1029 q 158 944 169 985 q 131 772 133 851 q 126 632 126 704 l 126 564 q 144 328 126 471 q 172 171 156 238 q 217 58 189 104 q 281 10 244 10 m 313 1144 q 293 1154 301 1144 q 285 1175 285 1164 q 295 1199 285 1188 q 318 1210 306 1210 q 340 1199 331 1210 q 349 1176 349 1188 q 313 1144 349 1144 m 128 1139 q 109 1150 117 1139 q 101 1174 101 1161 q 112 1197 101 1186 q 135 1208 122 1208 q 156 1194 149 1208 q 163 1163 163 1181 q 152 1145 163 1151 q 128 1139 142 1139 m 163 1299 q 118 1301 128 1299 q 92 1311 97 1304 q 89 1321 89 1317 q 178 1332 89 1332 l 256 1332 q 326 1329 304 1332 q 350 1323 343 1328 q 357 1310 357 1318 q 268 1299 354 1299 l 189 1299 l 163 1299 z "},"Ȯ":{"ha":511,"x_min":85,"x_max":421,"o":"m 278 -29 q 85 639 85 -29 l 85 694 q 99 897 85 811 q 122 986 107 951 q 161 1042 136 1021 q 222 1065 185 1065 q 283 1052 256 1065 q 329 1018 311 1039 q 357 967 344 999 q 376 906 369 935 l 388 840 q 421 419 421 603 l 421 415 q 418 288 421 346 q 403 142 415 218 q 387 76 397 104 q 360 21 376 49 q 278 -29 331 -29 m 281 10 q 321 35 303 10 q 349 107 339 61 q 376 297 371 204 q 379 443 379 372 l 379 449 l 378 588 q 361 782 375 663 q 315 956 350 867 q 278 1010 301 990 q 229 1029 256 1029 q 188 1007 206 1029 q 158 944 169 985 q 131 772 133 851 q 126 632 126 704 l 126 564 q 144 328 126 471 q 172 171 156 238 q 217 58 189 104 q 281 10 244 10 m 218 1138 q 197 1148 206 1138 q 188 1171 188 1158 q 199 1197 188 1185 q 224 1208 210 1208 q 247 1197 236 1208 q 257 1172 257 1185 q 218 1138 257 1138 z "},"Ȱ":{"ha":511,"x_min":85,"x_max":421,"o":"m 278 -29 q 85 639 85 -29 l 85 694 q 99 897 85 811 q 122 986 107 951 q 161 1042 136 1021 q 222 1065 185 1065 q 283 1052 256 1065 q 329 1018 311 1039 q 357 967 344 999 q 376 906 369 935 l 388 840 q 421 419 421 603 l 421 415 q 418 288 421 346 q 403 142 415 218 q 387 76 397 104 q 360 21 376 49 q 278 -29 331 -29 m 281 10 q 321 35 303 10 q 349 107 339 61 q 376 297 371 204 q 379 443 379 372 l 379 449 l 378 588 q 361 782 375 663 q 315 956 350 867 q 278 1010 301 990 q 229 1029 256 1029 q 188 1007 206 1029 q 158 944 169 985 q 131 772 133 851 q 126 632 126 704 l 126 564 q 144 328 126 471 q 172 171 156 238 q 217 58 189 104 q 281 10 244 10 m 218 1138 q 197 1148 206 1138 q 188 1171 188 1158 q 199 1197 188 1185 q 224 1208 210 1208 q 247 1197 236 1208 q 257 1172 257 1185 q 218 1138 257 1138 m 163 1297 q 118 1300 128 1297 q 92 1310 97 1303 q 89 1319 89 1315 q 178 1331 89 1331 l 256 1331 q 326 1328 304 1331 q 350 1322 343 1326 q 357 1308 357 1317 q 268 1297 354 1297 l 189 1297 l 163 1297 z "},"Ọ":{"ha":511,"x_min":85,"x_max":421,"o":"m 278 -29 q 85 639 85 -29 l 85 694 q 99 897 85 811 q 122 986 107 951 q 161 1042 136 1021 q 222 1065 185 1065 q 283 1052 256 1065 q 329 1018 311 1039 q 357 967 344 999 q 376 906 369 935 l 388 840 q 421 419 421 603 l 421 415 q 418 288 421 346 q 403 142 415 218 q 387 76 397 104 q 360 21 376 49 q 278 -29 331 -29 m 281 10 q 321 35 303 10 q 349 107 339 61 q 376 297 371 204 q 379 443 379 372 l 379 449 l 378 588 q 361 782 375 663 q 315 956 350 867 q 278 1010 301 990 q 229 1029 256 1029 q 188 1007 206 1029 q 158 944 169 985 q 131 772 133 851 q 126 632 126 704 l 126 564 q 144 328 126 471 q 172 171 156 238 q 217 58 189 104 q 281 10 244 10 m 253 -162 q 231 -152 240 -162 q 222 -129 222 -142 q 233 -103 222 -115 q 258 -92 244 -92 q 281 -103 271 -92 q 292 -128 292 -115 q 253 -162 292 -162 z "},"Ò":{"ha":511,"x_min":79,"x_max":421,"o":"m 278 -29 q 85 639 85 -29 l 85 694 q 99 897 85 811 q 122 986 107 951 q 161 1042 136 1021 q 222 1065 185 1065 q 283 1052 256 1065 q 329 1018 311 1039 q 357 967 344 999 q 376 906 369 935 l 388 840 q 421 419 421 603 l 421 415 q 418 288 421 346 q 403 142 415 218 q 387 76 397 104 q 360 21 376 49 q 278 -29 331 -29 m 281 10 q 321 35 303 10 q 349 107 339 61 q 376 297 371 204 q 379 443 379 372 l 379 449 l 378 588 q 361 782 375 663 q 315 956 350 867 q 278 1010 301 990 q 229 1029 256 1029 q 188 1007 206 1029 q 158 944 169 985 q 131 772 133 851 q 126 632 126 704 l 126 564 q 144 328 126 471 q 172 171 156 238 q 217 58 189 104 q 281 10 244 10 m 274 1094 q 210 1130 253 1106 q 143 1168 167 1154 l 121 1169 q 79 1201 79 1178 q 93 1235 79 1225 l 101 1232 q 151 1208 143 1226 q 168 1200 151 1207 l 218 1169 q 269 1133 249 1150 q 292 1104 292 1115 q 274 1094 292 1094 z "},"Ỏ":{"ha":511,"x_min":85,"x_max":421,"o":"m 278 -29 q 85 639 85 -29 l 85 694 q 99 897 85 811 q 122 986 107 951 q 161 1042 136 1021 q 222 1065 185 1065 q 283 1052 256 1065 q 329 1018 311 1039 q 357 967 344 999 q 376 906 369 935 l 388 840 q 421 419 421 603 l 421 415 q 418 288 421 346 q 403 142 415 218 q 387 76 397 104 q 360 21 376 49 q 278 -29 331 -29 m 281 10 q 321 35 303 10 q 349 107 339 61 q 376 297 371 204 q 379 443 379 372 l 379 449 l 378 588 q 361 782 375 663 q 315 956 350 867 q 278 1010 301 990 q 229 1029 256 1029 q 188 1007 206 1029 q 158 944 169 985 q 131 772 133 851 q 126 632 126 704 l 126 564 q 144 328 126 471 q 172 171 156 238 q 217 58 189 104 q 281 10 244 10 m 229 1088 q 214 1104 215 1088 l 214 1111 q 222 1129 214 1121 q 246 1147 231 1138 q 258 1156 249 1149 q 271 1168 267 1163 q 275 1179 275 1174 q 231 1206 275 1206 q 192 1199 204 1206 q 179 1176 179 1193 q 182 1158 179 1172 q 168 1156 174 1156 q 149 1179 149 1156 q 169 1217 149 1201 q 231 1233 189 1233 q 292 1219 274 1233 q 310 1179 310 1206 q 301 1158 310 1167 q 274 1135 293 1149 q 253 1119 260 1125 q 246 1106 246 1113 l 246 1096 q 229 1088 238 1088 z "},"Ơ":{"ha":511,"x_min":85,"x_max":426,"o":"m 278 -29 q 85 639 85 -29 l 85 694 q 99 897 85 811 q 122 986 107 951 q 161 1042 136 1021 q 222 1065 185 1065 q 283 1052 256 1065 q 329 1018 311 1039 q 357 967 344 999 q 376 906 369 935 l 388 840 q 421 419 421 603 l 421 415 q 418 288 421 346 q 403 142 415 218 q 387 76 397 104 q 360 21 376 49 q 278 -29 331 -29 m 281 10 q 321 35 303 10 q 349 107 339 61 q 376 297 371 204 q 379 443 379 372 l 379 449 l 378 588 q 361 782 375 663 q 315 956 350 867 q 278 1010 301 990 q 229 1029 256 1029 q 188 1007 206 1029 q 158 944 169 985 q 131 772 133 851 q 126 632 126 704 l 126 564 q 144 328 126 471 q 172 171 156 238 q 217 58 189 104 q 281 10 244 10 m 346 1001 q 301 1013 315 1001 l 301 1042 q 333 1033 315 1033 q 363 1046 351 1033 q 374 1078 374 1058 q 368 1108 374 1090 q 363 1131 363 1125 q 388 1156 363 1156 q 426 1099 426 1156 q 401 1028 426 1054 q 346 1001 376 1001 z "},"Ớ":{"ha":511,"x_min":85,"x_max":426,"o":"m 278 -29 q 85 639 85 -29 l 85 694 q 99 897 85 811 q 122 986 107 951 q 161 1042 136 1021 q 222 1065 185 1065 q 283 1052 256 1065 q 329 1018 311 1039 q 357 967 344 999 q 376 906 369 935 l 388 840 q 421 419 421 603 l 421 415 q 418 288 421 346 q 403 142 415 218 q 387 76 397 104 q 360 21 376 49 q 278 -29 331 -29 m 281 10 q 321 35 303 10 q 349 107 339 61 q 376 297 371 204 q 379 443 379 372 l 379 449 l 378 588 q 361 782 375 663 q 315 956 350 867 q 278 1010 301 990 q 229 1029 256 1029 q 188 1007 206 1029 q 158 944 169 985 q 131 772 133 851 q 126 632 126 704 l 126 564 q 144 328 126 471 q 172 171 156 238 q 217 58 189 104 q 281 10 244 10 m 346 1001 q 301 1013 315 1001 l 301 1042 q 333 1033 315 1033 q 363 1046 351 1033 q 374 1078 374 1058 q 368 1108 374 1090 q 363 1131 363 1125 q 388 1156 363 1156 q 426 1099 426 1156 q 401 1028 426 1054 q 346 1001 376 1001 m 219 1133 q 202 1139 210 1133 q 194 1153 194 1144 q 233 1189 194 1157 l 278 1225 l 315 1254 q 367 1294 363 1290 q 397 1274 397 1294 l 393 1251 q 219 1133 321 1218 z "},"Ợ":{"ha":511,"x_min":85,"x_max":426,"o":"m 278 -29 q 85 639 85 -29 l 85 694 q 99 897 85 811 q 122 986 107 951 q 161 1042 136 1021 q 222 1065 185 1065 q 283 1052 256 1065 q 329 1018 311 1039 q 357 967 344 999 q 376 906 369 935 l 388 840 q 421 419 421 603 l 421 415 q 418 288 421 346 q 403 142 415 218 q 387 76 397 104 q 360 21 376 49 q 278 -29 331 -29 m 281 10 q 321 35 303 10 q 349 107 339 61 q 376 297 371 204 q 379 443 379 372 l 379 449 l 378 588 q 361 782 375 663 q 315 956 350 867 q 278 1010 301 990 q 229 1029 256 1029 q 188 1007 206 1029 q 158 944 169 985 q 131 772 133 851 q 126 632 126 704 l 126 564 q 144 328 126 471 q 172 171 156 238 q 217 58 189 104 q 281 10 244 10 m 346 1001 q 301 1013 315 1001 l 301 1042 q 333 1033 315 1033 q 363 1046 351 1033 q 374 1078 374 1058 q 368 1108 374 1090 q 363 1131 363 1125 q 388 1156 363 1156 q 426 1099 426 1156 q 401 1028 426 1054 q 346 1001 376 1001 m 253 -162 q 231 -152 240 -162 q 222 -129 222 -142 q 233 -103 222 -115 q 258 -92 244 -92 q 281 -103 271 -92 q 292 -128 292 -115 q 253 -162 292 -162 z "},"Ờ":{"ha":511,"x_min":79,"x_max":426,"o":"m 278 -29 q 85 639 85 -29 l 85 694 q 99 897 85 811 q 122 986 107 951 q 161 1042 136 1021 q 222 1065 185 1065 q 283 1052 256 1065 q 329 1018 311 1039 q 357 967 344 999 q 376 906 369 935 l 388 840 q 421 419 421 603 l 421 415 q 418 288 421 346 q 403 142 415 218 q 387 76 397 104 q 360 21 376 49 q 278 -29 331 -29 m 281 10 q 321 35 303 10 q 349 107 339 61 q 376 297 371 204 q 379 443 379 372 l 379 449 l 378 588 q 361 782 375 663 q 315 956 350 867 q 278 1010 301 990 q 229 1029 256 1029 q 188 1007 206 1029 q 158 944 169 985 q 131 772 133 851 q 126 632 126 704 l 126 564 q 144 328 126 471 q 172 171 156 238 q 217 58 189 104 q 281 10 244 10 m 346 1001 q 301 1013 315 1001 l 301 1042 q 333 1033 315 1033 q 363 1046 351 1033 q 374 1078 374 1058 q 368 1108 374 1090 q 363 1131 363 1125 q 388 1156 363 1156 q 426 1099 426 1156 q 401 1028 426 1054 q 346 1001 376 1001 m 274 1094 q 210 1130 253 1106 q 143 1168 167 1154 l 121 1169 q 79 1201 79 1178 q 93 1235 79 1225 l 101 1232 q 151 1208 143 1226 q 168 1200 151 1207 l 218 1169 q 269 1133 249 1150 q 292 1104 292 1115 q 274 1094 292 1094 z "},"Ở":{"ha":511,"x_min":85,"x_max":426,"o":"m 278 -29 q 85 639 85 -29 l 85 694 q 99 897 85 811 q 122 986 107 951 q 161 1042 136 1021 q 222 1065 185 1065 q 283 1052 256 1065 q 329 1018 311 1039 q 357 967 344 999 q 376 906 369 935 l 388 840 q 421 419 421 603 l 421 415 q 418 288 421 346 q 403 142 415 218 q 387 76 397 104 q 360 21 376 49 q 278 -29 331 -29 m 281 10 q 321 35 303 10 q 349 107 339 61 q 376 297 371 204 q 379 443 379 372 l 379 449 l 378 588 q 361 782 375 663 q 315 956 350 867 q 278 1010 301 990 q 229 1029 256 1029 q 188 1007 206 1029 q 158 944 169 985 q 131 772 133 851 q 126 632 126 704 l 126 564 q 144 328 126 471 q 172 171 156 238 q 217 58 189 104 q 281 10 244 10 m 346 1001 q 301 1013 315 1001 l 301 1042 q 333 1033 315 1033 q 363 1046 351 1033 q 374 1078 374 1058 q 368 1108 374 1090 q 363 1131 363 1125 q 388 1156 363 1156 q 426 1099 426 1156 q 401 1028 426 1054 q 346 1001 376 1001 m 229 1088 q 214 1104 215 1088 l 214 1111 q 222 1129 214 1121 q 246 1147 231 1138 q 258 1156 249 1149 q 271 1168 267 1163 q 275 1179 275 1174 q 231 1206 275 1206 q 192 1199 204 1206 q 179 1176 179 1193 q 182 1158 179 1172 q 168 1156 174 1156 q 149 1179 149 1156 q 169 1217 149 1201 q 231 1233 189 1233 q 292 1219 274 1233 q 310 1179 310 1206 q 301 1158 310 1167 q 274 1135 293 1149 q 253 1119 260 1125 q 246 1106 246 1113 l 246 1096 q 229 1088 238 1088 z "},"Ỡ":{"ha":511,"x_min":75,"x_max":426,"o":"m 278 -29 q 85 639 85 -29 l 85 694 q 99 897 85 811 q 122 986 107 951 q 161 1042 136 1021 q 222 1065 185 1065 q 283 1052 256 1065 q 329 1018 311 1039 q 357 967 344 999 q 376 906 369 935 l 388 840 q 421 419 421 603 l 421 415 q 418 288 421 346 q 403 142 415 218 q 387 76 397 104 q 360 21 376 49 q 278 -29 331 -29 m 281 10 q 321 35 303 10 q 349 107 339 61 q 376 297 371 204 q 379 443 379 372 l 379 449 l 378 588 q 361 782 375 663 q 315 956 350 867 q 278 1010 301 990 q 229 1029 256 1029 q 188 1007 206 1029 q 158 944 169 985 q 131 772 133 851 q 126 632 126 704 l 126 564 q 144 328 126 471 q 172 171 156 238 q 217 58 189 104 q 281 10 244 10 m 346 1001 q 301 1013 315 1001 l 301 1042 q 333 1033 315 1033 q 363 1046 351 1033 q 374 1078 374 1058 q 368 1108 374 1090 q 363 1131 363 1125 q 388 1156 363 1156 q 426 1099 426 1156 q 401 1028 426 1054 q 346 1001 376 1001 m 101 1111 q 84 1119 93 1111 q 75 1135 75 1126 q 99 1204 75 1178 q 157 1231 122 1231 q 215 1203 192 1231 q 250 1165 226 1182 q 294 1149 274 1149 q 331 1199 331 1149 l 328 1213 l 322 1225 q 336 1233 326 1233 q 360 1219 351 1233 q 368 1186 368 1206 q 346 1135 368 1157 q 294 1113 324 1113 q 247 1126 272 1113 q 207 1156 222 1140 q 171 1194 196 1165 l 161 1199 q 125 1188 140 1199 q 110 1161 110 1176 l 117 1132 l 101 1111 z "},"Ő":{"ha":511,"x_min":85,"x_max":576,"o":"m 278 -29 q 85 639 85 -29 l 85 694 q 99 897 85 811 q 122 986 107 951 q 161 1042 136 1021 q 222 1065 185 1065 q 283 1052 256 1065 q 329 1018 311 1039 q 357 967 344 999 q 376 906 369 935 l 388 840 q 421 419 421 603 l 421 415 q 418 288 421 346 q 403 142 415 218 q 387 76 397 104 q 360 21 376 49 q 278 -29 331 -29 m 281 10 q 321 35 303 10 q 349 107 339 61 q 376 297 371 204 q 379 443 379 372 l 379 449 l 378 588 q 361 782 375 663 q 315 956 350 867 q 278 1010 301 990 q 229 1029 256 1029 q 188 1007 206 1029 q 158 944 169 985 q 131 772 133 851 q 126 632 126 704 l 126 564 q 144 328 126 471 q 172 171 156 238 q 217 58 189 104 q 281 10 244 10 m 90 1104 q 208 1206 94 1118 q 333 1294 321 1294 q 343 1288 338 1294 q 349 1274 349 1281 q 340 1260 349 1267 q 203 1158 229 1176 q 156 1126 182 1149 q 97 1096 122 1103 l 90 1104 m 307 1100 q 300 1111 300 1100 q 364 1169 300 1121 q 471 1244 428 1217 q 549 1285 543 1285 q 565 1274 556 1285 q 576 1251 574 1263 l 506 1210 q 429 1174 489 1206 l 394 1150 l 339 1115 q 307 1100 311 1100 z "},"Ȏ":{"ha":511,"x_min":85,"x_max":421,"o":"m 278 -29 q 85 639 85 -29 l 85 694 q 99 897 85 811 q 122 986 107 951 q 161 1042 136 1021 q 222 1065 185 1065 q 283 1052 256 1065 q 329 1018 311 1039 q 357 967 344 999 q 376 906 369 935 l 388 840 q 421 419 421 603 l 421 415 q 418 288 421 346 q 403 142 415 218 q 387 76 397 104 q 360 21 376 49 q 278 -29 331 -29 m 281 10 q 321 35 303 10 q 349 107 339 61 q 376 297 371 204 q 379 443 379 372 l 379 449 l 378 588 q 361 782 375 663 q 315 956 350 867 q 278 1010 301 990 q 229 1029 256 1029 q 188 1007 206 1029 q 158 944 169 985 q 131 772 133 851 q 126 632 126 704 l 126 564 q 144 328 126 471 q 172 171 156 238 q 217 58 189 104 q 281 10 244 10 m 110 1106 q 131 1200 110 1156 q 211 1247 156 1247 q 263 1233 240 1247 q 290 1199 269 1229 q 301 1175 290 1196 q 311 1150 311 1147 l 308 1140 l 313 1131 l 315 1118 q 309 1104 315 1110 q 294 1099 303 1099 q 269 1125 269 1099 l 271 1136 l 271 1144 q 256 1190 271 1165 q 224 1215 240 1215 l 189 1215 l 174 1204 q 139 1115 150 1188 q 125 1093 135 1096 l 110 1106 z "},"Ō":{"ha":511,"x_min":85,"x_max":421,"o":"m 278 -29 q 85 639 85 -29 l 85 694 q 99 897 85 811 q 122 986 107 951 q 161 1042 136 1021 q 222 1065 185 1065 q 283 1052 256 1065 q 329 1018 311 1039 q 357 967 344 999 q 376 906 369 935 l 388 840 q 421 419 421 603 l 421 415 q 418 288 421 346 q 403 142 415 218 q 387 76 397 104 q 360 21 376 49 q 278 -29 331 -29 m 281 10 q 321 35 303 10 q 349 107 339 61 q 376 297 371 204 q 379 443 379 372 l 379 449 l 378 588 q 361 782 375 663 q 315 956 350 867 q 278 1010 301 990 q 229 1029 256 1029 q 188 1007 206 1029 q 158 944 169 985 q 131 772 133 851 q 126 632 126 704 l 126 564 q 144 328 126 471 q 172 171 156 238 q 217 58 189 104 q 281 10 244 10 m 163 1157 q 118 1160 128 1157 q 92 1169 97 1163 q 89 1179 89 1175 q 178 1190 89 1190 l 256 1190 q 326 1188 304 1190 q 350 1181 343 1186 q 357 1168 357 1176 q 268 1157 354 1157 l 189 1157 l 163 1157 z "},"Ǫ":{"ha":511,"x_min":85,"x_max":421,"o":"m 278 -29 q 85 639 85 -29 l 85 694 q 99 897 85 811 q 122 986 107 951 q 161 1042 136 1021 q 222 1065 185 1065 q 283 1052 256 1065 q 329 1018 311 1039 q 357 967 344 999 q 376 906 369 935 l 388 840 q 421 419 421 603 l 421 415 q 418 288 421 346 q 403 142 415 218 q 387 76 397 104 q 360 21 376 49 q 278 -29 331 -29 m 281 10 q 321 35 303 10 q 349 107 339 61 q 376 297 371 204 q 379 443 379 372 l 379 449 l 378 588 q 361 782 375 663 q 315 956 350 867 q 278 1010 301 990 q 229 1029 256 1029 q 188 1007 206 1029 q 158 944 169 985 q 131 772 133 851 q 126 632 126 704 l 126 564 q 144 328 126 471 q 172 171 156 238 q 217 58 189 104 q 281 10 244 10 m 322 -307 q 271 -289 296 -307 q 231 -245 246 -271 q 217 -197 217 -219 q 226 -132 217 -165 q 250 -72 236 -99 q 303 1 282 -17 l 313 13 l 351 7 l 354 7 q 343 -11 354 7 q 292 -99 310 -53 q 279 -151 279 -128 q 276 -183 279 -158 l 275 -197 l 275 -212 q 290 -250 275 -231 q 322 -269 306 -269 q 344 -262 328 -269 q 367 -256 358 -256 q 381 -269 381 -256 q 363 -297 381 -286 q 322 -307 344 -307 z "},"Ø":{"ha":442,"x_min":85,"x_max":350,"o":"m 86 -162 q 92 -115 88 -142 q 107 -44 97 -87 q 126 75 113 -21 q 121 101 126 86 q 114 125 118 110 q 85 646 85 307 l 85 733 q 186 1064 85 1064 q 207 1057 193 1064 q 226 1049 221 1049 l 232 1051 l 239 1044 q 263 1146 253 1082 q 271 1194 268 1175 q 275 1219 274 1213 l 300 1219 l 299 1179 l 269 1011 q 290 971 269 994 l 289 968 q 303 938 290 956 q 310 926 310 928 q 325 833 325 888 l 322 832 q 333 704 322 797 q 343 576 343 625 l 343 568 l 346 564 l 349 432 q 350 301 350 374 q 349 213 350 253 q 333 108 346 163 q 292 24 324 61 q 213 -14 265 -14 q 144 14 165 -14 l 143 14 q 107 -179 136 -33 l 86 -162 m 143 186 q 156 251 147 190 q 179 461 164 318 l 192 575 l 194 606 q 201 664 197 631 q 207 739 204 697 l 213 801 l 215 832 l 222 881 q 232 988 232 956 q 218 1015 232 1004 q 188 1026 204 1026 l 182 1025 l 172 1021 l 165 1018 l 157 1021 q 114 578 114 994 l 114 569 q 126 478 114 507 q 135 332 126 431 q 143 186 143 235 m 224 15 q 314 271 314 15 q 264 942 314 844 q 222 554 246 824 q 172 146 200 286 q 163 81 163 85 q 176 31 163 46 q 224 15 190 15 z "},"Ǿ":{"ha":442,"x_min":85,"x_max":350,"o":"m 86 -162 q 92 -115 88 -142 q 107 -44 97 -87 q 126 75 113 -21 q 121 101 126 86 q 114 125 118 110 q 85 646 85 307 l 85 733 q 186 1064 85 1064 q 207 1057 193 1064 q 226 1049 221 1049 l 232 1051 l 239 1044 q 263 1146 253 1082 q 271 1194 268 1175 q 275 1219 274 1213 l 300 1219 l 299 1179 l 269 1011 q 290 971 269 994 l 289 968 q 303 938 290 956 q 310 926 310 928 q 325 833 325 888 l 322 832 q 333 704 322 797 q 343 576 343 625 l 343 568 l 346 564 l 349 432 q 350 301 350 374 q 349 213 350 253 q 333 108 346 163 q 292 24 324 61 q 213 -14 265 -14 q 144 14 165 -14 l 143 14 q 107 -179 136 -33 l 86 -162 m 143 186 q 156 251 147 190 q 179 461 164 318 l 192 575 l 194 606 q 201 664 197 631 q 207 739 204 697 l 213 801 l 215 832 l 222 881 q 232 988 232 956 q 218 1015 232 1004 q 188 1026 204 1026 l 182 1025 l 172 1021 l 165 1018 l 157 1021 q 114 578 114 994 l 114 569 q 126 478 114 507 q 135 332 126 431 q 143 186 143 235 m 224 15 q 314 271 314 15 q 264 942 314 844 q 222 554 246 824 q 172 146 200 286 q 163 81 163 85 q 176 31 163 46 q 224 15 190 15 m 150 1153 q 133 1158 140 1153 q 125 1172 125 1164 q 164 1208 125 1176 l 208 1244 l 246 1274 q 297 1314 293 1310 q 328 1293 328 1314 l 324 1271 q 150 1153 251 1238 z "},"Õ":{"ha":511,"x_min":75,"x_max":421,"o":"m 278 -29 q 85 639 85 -29 l 85 694 q 99 897 85 811 q 122 986 107 951 q 161 1042 136 1021 q 222 1065 185 1065 q 283 1052 256 1065 q 329 1018 311 1039 q 357 967 344 999 q 376 906 369 935 l 388 840 q 421 419 421 603 l 421 415 q 418 288 421 346 q 403 142 415 218 q 387 76 397 104 q 360 21 376 49 q 278 -29 331 -29 m 281 10 q 321 35 303 10 q 349 107 339 61 q 376 297 371 204 q 379 443 379 372 l 379 449 l 378 588 q 361 782 375 663 q 315 956 350 867 q 278 1010 301 990 q 229 1029 256 1029 q 188 1007 206 1029 q 158 944 169 985 q 131 772 133 851 q 126 632 126 704 l 126 564 q 144 328 126 471 q 172 171 156 238 q 217 58 189 104 q 281 10 244 10 m 101 1111 q 84 1119 93 1111 q 75 1135 75 1126 q 99 1204 75 1178 q 157 1231 122 1231 q 215 1203 192 1231 q 250 1165 226 1182 q 294 1149 274 1149 q 331 1199 331 1149 l 328 1213 l 322 1225 q 336 1233 326 1233 q 360 1219 351 1233 q 368 1186 368 1206 q 346 1135 368 1157 q 294 1113 324 1113 q 247 1126 272 1113 q 207 1156 222 1140 q 171 1194 196 1165 l 161 1199 q 125 1188 140 1199 q 110 1161 110 1176 l 117 1132 l 101 1111 z "},"Ȭ":{"ha":511,"x_min":75,"x_max":421,"o":"m 278 -29 q 85 639 85 -29 l 85 694 q 99 897 85 811 q 122 986 107 951 q 161 1042 136 1021 q 222 1065 185 1065 q 283 1052 256 1065 q 329 1018 311 1039 q 357 967 344 999 q 376 906 369 935 l 388 840 q 421 419 421 603 l 421 415 q 418 288 421 346 q 403 142 415 218 q 387 76 397 104 q 360 21 376 49 q 278 -29 331 -29 m 281 10 q 321 35 303 10 q 349 107 339 61 q 376 297 371 204 q 379 443 379 372 l 379 449 l 378 588 q 361 782 375 663 q 315 956 350 867 q 278 1010 301 990 q 229 1029 256 1029 q 188 1007 206 1029 q 158 944 169 985 q 131 772 133 851 q 126 632 126 704 l 126 564 q 144 328 126 471 q 172 171 156 238 q 217 58 189 104 q 281 10 244 10 m 101 1111 q 84 1119 93 1111 q 75 1135 75 1126 q 99 1204 75 1178 q 157 1231 122 1231 q 215 1203 192 1231 q 250 1165 226 1182 q 294 1149 274 1149 q 331 1199 331 1149 l 328 1213 l 322 1225 q 336 1233 326 1233 q 360 1219 351 1233 q 368 1186 368 1206 q 346 1135 368 1157 q 294 1113 324 1113 q 247 1126 272 1113 q 207 1156 222 1140 q 171 1194 196 1165 l 161 1199 q 125 1188 140 1199 q 110 1161 110 1176 l 117 1132 l 101 1111 m 163 1322 q 118 1325 128 1322 q 92 1335 97 1328 q 89 1344 89 1340 q 178 1356 89 1356 l 256 1356 q 326 1353 304 1356 q 350 1347 343 1351 q 357 1333 357 1342 q 268 1322 354 1322 l 189 1322 l 163 1322 z "},"Œ":{"ha":771,"x_min":85,"x_max":757,"o":"m 538 -14 q 504 7 507 -14 l 513 29 q 465 17 499 28 q 414 7 435 7 q 276 35 338 7 q 174 114 214 63 q 92 369 92 213 q 88 513 92 417 l 85 654 q 100 813 85 726 q 160 976 117 903 q 215 1033 182 1013 q 286 1053 247 1053 q 486 999 439 1053 l 482 1014 l 503 1043 q 531 1039 513 1043 q 557 1035 547 1035 l 660 1035 l 675 1036 q 690 1038 682 1038 q 704 1024 697 1032 q 711 1013 711 1017 q 686 997 711 997 l 604 1000 q 522 1003 568 1003 q 532 849 522 946 q 542 694 542 753 q 540 658 542 674 l 539 622 q 546 565 539 590 l 600 564 q 618 565 610 564 q 636 567 626 567 q 669 550 657 567 q 665 533 669 538 q 647 528 661 528 q 617 529 631 528 l 585 532 q 544 519 544 532 q 550 272 544 418 q 554 24 554 106 l 604 28 q 661 29 629 29 q 757 3 757 29 l 749 -10 q 643 -11 690 -10 l 538 -14 m 381 49 q 463 58 415 49 q 503 75 488 63 q 518 104 518 88 q 508 443 518 233 q 499 782 499 706 q 494 867 499 811 q 490 950 490 921 q 417 999 465 983 q 310 1015 369 1015 q 237 998 269 1015 q 185 950 204 981 q 129 804 143 888 q 118 656 118 728 l 118 606 q 119 557 119 583 l 118 507 l 121 503 q 138 300 121 433 q 163 186 146 233 q 203 133 179 138 q 381 49 283 49 z "},"P":{"ha":383,"x_min":88,"x_max":315,"o":"m 122 -8 q 106 40 106 -8 q 104 164 106 110 l 101 289 l 101 401 q 100 514 100 451 q 93 858 100 700 l 92 908 q 88 1042 88 990 l 92 1047 q 97 1054 93 1050 q 104 1060 99 1058 q 114 1061 107 1061 q 202 1039 163 1061 q 267 978 242 1017 q 315 804 315 901 q 295 676 315 742 q 235 558 275 611 q 142 492 193 501 l 144 338 l 147 263 q 153 35 153 129 q 147 2 153 13 q 122 -8 140 -8 m 142 543 q 167 554 154 544 q 176 565 169 556 q 186 575 176 565 q 276 801 276 665 q 246 946 276 879 q 197 1001 229 981 q 122 1021 165 1021 q 131 783 122 942 q 139 546 139 625 l 142 543 z "},"Ṗ":{"ha":383,"x_min":88,"x_max":315,"o":"m 122 -8 q 106 40 106 -8 q 104 164 106 110 l 101 289 l 101 401 q 100 514 100 451 q 93 858 100 700 l 92 908 q 88 1042 88 990 l 92 1047 q 97 1054 93 1050 q 104 1060 99 1058 q 114 1061 107 1061 q 202 1039 163 1061 q 267 978 242 1017 q 315 804 315 901 q 295 676 315 742 q 235 558 275 611 q 142 492 193 501 l 144 338 l 147 263 q 153 35 153 129 q 147 2 153 13 q 122 -8 140 -8 m 142 543 q 167 554 154 544 q 176 565 169 556 q 186 575 176 565 q 276 801 276 665 q 246 946 276 879 q 197 1001 229 981 q 122 1021 165 1021 q 131 783 122 942 q 139 546 139 625 l 142 543 m 140 1117 q 119 1127 128 1117 q 110 1150 110 1138 q 121 1176 110 1164 q 146 1188 132 1188 q 169 1176 158 1188 q 179 1151 179 1164 q 140 1117 179 1117 z "},"Þ":{"ha":442,"x_min":94,"x_max":375,"o":"m 138 -8 q 119 40 119 -8 q 121 128 119 97 l 121 215 q 119 300 121 268 l 118 386 q 111 635 118 464 q 108 701 111 663 l 107 746 q 104 793 107 746 l 101 826 q 96 926 96 883 l 94 946 q 95 957 94 949 q 96 983 96 965 l 97 1028 l 97 1035 l 96 1038 q 107 1049 96 1044 q 126 1044 110 1049 q 129 1044 129 1044 q 133 953 132 1026 q 136 860 133 885 l 136 858 q 228 843 186 858 q 299 801 271 828 q 343 743 325 776 q 368 674 361 710 q 375 601 375 636 q 344 449 375 532 q 271 331 314 365 q 253 321 260 324 q 235 311 239 315 q 160 289 221 303 q 164 163 160 213 q 168 35 168 111 q 162 2 168 13 q 138 -8 156 -8 m 160 340 q 207 353 178 343 q 246 372 236 364 q 336 599 336 465 q 142 818 336 818 l 142 782 q 150 558 142 707 q 160 340 160 389 z "},"Q":{"ha":513,"x_min":85,"x_max":458,"o":"m 406 -192 q 383 -183 400 -192 q 364 -174 368 -174 q 325 -133 339 -162 q 303 -49 311 -104 q 289 18 294 6 q 218 31 250 18 q 164 68 186 44 q 104 188 126 107 q 92 256 96 215 q 88 326 88 296 q 86 389 86 344 l 86 451 q 85 519 85 481 q 89 708 85 603 q 107 886 93 800 q 150 1017 121 967 q 229 1069 179 1069 q 326 1030 278 1069 q 381 943 374 990 q 419 403 419 721 q 333 36 419 160 q 340 10 333 28 l 347 -10 l 351 -47 q 359 -100 356 -85 q 374 -131 363 -115 q 408 -147 386 -147 l 414 -147 q 458 -165 458 -147 q 406 -192 458 -192 m 274 54 q 347 185 325 54 q 371 601 371 319 l 371 638 l 369 725 l 368 763 q 361 827 367 796 q 350 890 356 858 q 307 990 340 943 q 226 1031 279 1031 q 188 1000 204 1031 q 142 806 160 951 q 126 569 129 708 q 125 483 125 539 l 125 400 q 142 240 125 321 q 167 147 151 185 q 210 82 183 108 q 274 54 238 54 z "},"R":{"ha":393,"x_min":88,"x_max":358,"o":"m 339 -14 q 304 14 311 -14 l 288 75 q 231 293 249 204 q 203 428 219 342 q 167 590 183 528 l 153 582 l 135 574 l 138 39 l 138 18 q 113 -10 138 -10 q 94 -3 101 -10 q 88 14 88 4 l 88 35 l 90 315 l 93 450 q 99 864 99 693 l 99 1043 q 124 1056 99 1056 q 191 1036 160 1056 q 240 983 222 1017 q 278 835 278 915 q 250 696 278 771 q 229 648 242 675 q 207 611 217 621 q 292 282 236 504 l 357 32 q 358 17 358 28 q 353 -5 358 4 q 339 -14 349 -14 m 133 619 q 171 646 144 619 q 208 690 197 672 q 225 749 218 710 q 232 818 232 788 q 213 935 232 875 q 183 991 203 969 q 140 1013 164 1013 l 138 1013 q 133 1011 136 1011 l 133 619 z "},"Ŕ":{"ha":393,"x_min":88,"x_max":358,"o":"m 339 -14 q 304 14 311 -14 l 288 75 q 231 293 249 204 q 203 428 219 342 q 167 590 183 528 l 153 582 l 135 574 l 138 39 l 138 18 q 113 -10 138 -10 q 94 -3 101 -10 q 88 14 88 4 l 88 35 l 90 315 l 93 450 q 99 864 99 693 l 99 1043 q 124 1056 99 1056 q 191 1036 160 1056 q 240 983 222 1017 q 278 835 278 915 q 250 696 278 771 q 229 648 242 675 q 207 611 217 621 q 292 282 236 504 l 357 32 q 358 17 358 28 q 353 -5 358 4 q 339 -14 349 -14 m 133 619 q 171 646 144 619 q 208 690 197 672 q 225 749 218 710 q 232 818 232 788 q 213 935 232 875 q 183 991 203 969 q 140 1013 164 1013 l 138 1013 q 133 1011 136 1011 l 133 619 m 146 1113 q 128 1118 136 1113 q 121 1132 121 1124 q 160 1168 121 1136 l 204 1204 l 242 1233 q 293 1274 289 1269 q 324 1253 324 1274 l 319 1231 q 146 1113 247 1197 z "},"Ř":{"ha":393,"x_min":53,"x_max":358,"o":"m 339 -14 q 304 14 311 -14 l 288 75 q 231 293 249 204 q 203 428 219 342 q 167 590 183 528 l 153 582 l 135 574 l 138 39 l 138 18 q 113 -10 138 -10 q 94 -3 101 -10 q 88 14 88 4 l 88 35 l 90 315 l 93 450 q 99 864 99 693 l 99 1043 q 124 1056 99 1056 q 191 1036 160 1056 q 240 983 222 1017 q 278 835 278 915 q 250 696 278 771 q 229 648 242 675 q 207 611 217 621 q 292 282 236 504 l 357 32 q 358 17 358 28 q 353 -5 358 4 q 339 -14 349 -14 m 133 619 q 171 646 144 619 q 208 690 197 672 q 225 749 218 710 q 232 818 232 788 q 213 935 232 875 q 183 991 203 969 q 140 1013 164 1013 l 138 1013 q 133 1011 136 1011 l 133 619 m 169 1089 q 129 1138 157 1089 q 78 1244 101 1186 q 53 1324 54 1303 l 79 1342 l 103 1310 q 114 1263 103 1299 q 141 1185 128 1224 q 161 1129 154 1146 q 200 1338 193 1250 l 219 1349 q 244 1332 244 1344 q 239 1317 244 1331 l 240 1310 l 229 1289 l 231 1281 l 215 1231 q 190 1118 190 1164 q 169 1089 190 1089 z "},"Ŗ":{"ha":393,"x_min":88,"x_max":358,"o":"m 339 -14 q 304 14 311 -14 l 288 75 q 231 293 249 204 q 203 428 219 342 q 167 590 183 528 l 153 582 l 135 574 l 138 39 l 138 18 q 113 -10 138 -10 q 94 -3 101 -10 q 88 14 88 4 l 88 35 l 90 315 l 93 450 q 99 864 99 693 l 99 1043 q 124 1056 99 1056 q 191 1036 160 1056 q 240 983 222 1017 q 278 835 278 915 q 250 696 278 771 q 229 648 242 675 q 207 611 217 621 q 292 282 236 504 l 357 32 q 358 17 358 28 q 353 -5 358 4 q 339 -14 349 -14 m 133 619 q 171 646 144 619 q 208 690 197 672 q 225 749 218 710 q 232 818 232 788 q 213 935 232 875 q 183 991 203 969 q 140 1013 164 1013 l 138 1013 q 133 1011 136 1011 l 133 619 m 131 -287 l 133 -275 q 172 -239 142 -269 q 201 -197 197 -210 q 206 -174 206 -187 q 176 -146 188 -162 q 165 -112 165 -129 q 181 -82 165 -94 q 218 -69 197 -69 q 264 -110 249 -69 l 261 -114 q 264 -131 264 -117 q 247 -194 264 -154 q 203 -265 229 -235 q 153 -299 178 -296 l 131 -287 z "},"Ȑ":{"ha":393,"x_min":-171,"x_max":358,"o":"m 339 -14 q 304 14 311 -14 l 288 75 q 231 293 249 204 q 203 428 219 342 q 167 590 183 528 l 153 582 l 135 574 l 138 39 l 138 18 q 113 -10 138 -10 q 94 -3 101 -10 q 88 14 88 4 l 88 35 l 90 315 l 93 450 q 99 864 99 693 l 99 1043 q 124 1056 99 1056 q 191 1036 160 1056 q 240 983 222 1017 q 278 835 278 915 q 250 696 278 771 q 229 648 242 675 q 207 611 217 621 q 292 282 236 504 l 357 32 q 358 17 358 28 q 353 -5 358 4 q 339 -14 349 -14 m 133 619 q 171 646 144 619 q 208 690 197 672 q 225 749 218 710 q 232 818 232 788 q 213 935 232 875 q 183 991 203 969 q 140 1013 164 1013 l 138 1013 q 133 1011 136 1011 l 133 619 m 265 1093 q 207 1124 242 1097 q 158 1154 176 1146 q 33 1253 119 1182 q 24 1267 24 1257 q 30 1280 24 1272 q 39 1288 36 1288 q 104 1244 47 1288 q 215 1156 161 1201 q 271 1100 269 1110 l 265 1093 m 89 1096 q 61 1111 85 1096 q 11 1144 36 1126 l -24 1165 l -99 1203 l -171 1243 q -159 1265 -168 1254 q -142 1276 -150 1276 q -64 1236 -132 1276 q 31 1168 -37 1219 q 97 1107 97 1117 q 89 1096 97 1096 z "},"Ȓ":{"ha":393,"x_min":36,"x_max":358,"o":"m 339 -14 q 304 14 311 -14 l 288 75 q 231 293 249 204 q 203 428 219 342 q 167 590 183 528 l 153 582 l 135 574 l 138 39 l 138 18 q 113 -10 138 -10 q 94 -3 101 -10 q 88 14 88 4 l 88 35 l 90 315 l 93 450 q 99 864 99 693 l 99 1043 q 124 1056 99 1056 q 191 1036 160 1056 q 240 983 222 1017 q 278 835 278 915 q 250 696 278 771 q 229 648 242 675 q 207 611 217 621 q 292 282 236 504 l 357 32 q 358 17 358 28 q 353 -5 358 4 q 339 -14 349 -14 m 133 619 q 171 646 144 619 q 208 690 197 672 q 225 749 218 710 q 232 818 232 788 q 213 935 232 875 q 183 991 203 969 q 140 1013 164 1013 l 138 1013 q 133 1011 136 1011 l 133 619 m 36 1085 q 57 1179 36 1135 q 138 1226 82 1226 q 189 1213 167 1226 q 217 1178 196 1208 q 228 1154 217 1175 q 238 1129 238 1126 l 235 1119 l 239 1110 l 242 1097 q 235 1083 242 1089 q 221 1078 229 1078 q 196 1104 196 1078 l 197 1115 l 197 1124 q 182 1169 197 1144 q 150 1194 167 1194 l 115 1194 l 100 1183 q 65 1094 76 1167 q 51 1072 61 1075 l 36 1085 z "},"S":{"ha":421,"x_min":68,"x_max":333,"o":"m 160 -31 q 122 -28 135 -31 q 93 -19 108 -26 q 68 4 76 -11 q 83 21 68 21 q 122 11 99 21 q 160 0 144 0 q 216 25 190 0 q 256 90 242 50 q 283 231 283 169 q 264 368 283 299 q 213 499 244 438 q 189 544 206 514 q 136 653 154 614 q 104 739 118 692 q 85 874 85 801 q 99 962 85 919 q 146 1035 114 1004 q 224 1067 181 1067 q 264 1053 240 1067 q 288 1028 288 1040 q 279 1017 288 1017 q 257 1024 271 1017 q 233 1031 244 1031 q 177 1007 201 1031 q 142 949 153 983 q 132 885 132 919 q 146 773 132 831 q 183 665 160 715 l 232 564 l 246 535 q 291 436 275 475 q 318 349 307 397 q 333 224 333 283 q 292 60 333 143 q 236 -6 271 19 q 160 -31 201 -31 z "},"Ś":{"ha":421,"x_min":68,"x_max":386,"o":"m 160 -31 q 122 -28 135 -31 q 93 -19 108 -26 q 68 4 76 -11 q 83 21 68 21 q 122 11 99 21 q 160 0 144 0 q 216 25 190 0 q 256 90 242 50 q 283 231 283 169 q 264 368 283 299 q 213 499 244 438 q 189 544 206 514 q 136 653 154 614 q 104 739 118 692 q 85 874 85 801 q 99 962 85 919 q 146 1035 114 1004 q 224 1067 181 1067 q 264 1053 240 1067 q 288 1028 288 1040 q 279 1017 288 1017 q 257 1024 271 1017 q 233 1031 244 1031 q 177 1007 201 1031 q 142 949 153 983 q 132 885 132 919 q 146 773 132 831 q 183 665 160 715 l 232 564 l 246 535 q 291 436 275 475 q 318 349 307 397 q 333 224 333 283 q 292 60 333 143 q 236 -6 271 19 q 160 -31 201 -31 m 208 1113 q 191 1118 199 1113 q 183 1132 183 1124 q 222 1168 183 1136 l 267 1204 l 304 1233 q 356 1274 351 1269 q 386 1253 386 1274 l 382 1231 q 208 1113 310 1197 z "},"Š":{"ha":421,"x_min":68,"x_max":333,"o":"m 160 -31 q 122 -28 135 -31 q 93 -19 108 -26 q 68 4 76 -11 q 83 21 68 21 q 122 11 99 21 q 160 0 144 0 q 216 25 190 0 q 256 90 242 50 q 283 231 283 169 q 264 368 283 299 q 213 499 244 438 q 189 544 206 514 q 136 653 154 614 q 104 739 118 692 q 85 874 85 801 q 99 962 85 919 q 146 1035 114 1004 q 224 1067 181 1067 q 264 1053 240 1067 q 288 1028 288 1040 q 279 1017 288 1017 q 257 1024 271 1017 q 233 1031 244 1031 q 177 1007 201 1031 q 142 949 153 983 q 132 885 132 919 q 146 773 132 831 q 183 665 160 715 l 232 564 l 246 535 q 291 436 275 475 q 318 349 307 397 q 333 224 333 283 q 292 60 333 143 q 236 -6 271 19 q 160 -31 201 -31 m 232 1089 q 192 1138 219 1089 q 140 1244 164 1186 q 115 1324 117 1303 l 142 1342 l 165 1310 q 176 1263 165 1299 q 203 1185 190 1224 q 224 1129 217 1146 q 263 1338 256 1250 l 282 1349 q 307 1332 307 1344 q 301 1317 307 1331 l 303 1310 l 292 1289 l 293 1281 l 278 1231 q 253 1118 253 1164 q 232 1089 253 1089 z "},"Ş":{"ha":421,"x_min":68,"x_max":333,"o":"m 160 -31 q 122 -28 135 -31 q 93 -19 108 -26 q 68 4 76 -11 q 83 21 68 21 q 122 11 99 21 q 160 0 144 0 q 216 25 190 0 q 256 90 242 50 q 283 231 283 169 q 264 368 283 299 q 213 499 244 438 q 189 544 206 514 q 136 653 154 614 q 104 739 118 692 q 85 874 85 801 q 99 962 85 919 q 146 1035 114 1004 q 224 1067 181 1067 q 264 1053 240 1067 q 288 1028 288 1040 q 279 1017 288 1017 q 257 1024 271 1017 q 233 1031 244 1031 q 177 1007 201 1031 q 142 949 153 983 q 132 885 132 919 q 146 773 132 831 q 183 665 160 715 l 232 564 l 246 535 q 291 436 275 475 q 318 349 307 397 q 333 224 333 283 q 292 60 333 143 q 236 -6 271 19 q 160 -31 201 -31 m 188 -325 q 147 -315 165 -325 q 128 -287 128 -304 q 143 -274 128 -274 q 165 -281 149 -274 q 188 -287 182 -287 q 226 -259 211 -287 q 242 -192 242 -231 q 221 -129 242 -146 l 203 -132 l 183 -135 q 146 -107 163 -135 q 157 -26 157 -78 l 157 -11 l 197 -6 q 192 -76 192 -47 q 293 -215 293 -82 q 278 -263 293 -237 q 239 -307 264 -289 q 188 -325 214 -325 z "},"Ŝ":{"ha":421,"x_min":68,"x_max":333,"o":"m 160 -31 q 122 -28 135 -31 q 93 -19 108 -26 q 68 4 76 -11 q 83 21 68 21 q 122 11 99 21 q 160 0 144 0 q 216 25 190 0 q 256 90 242 50 q 283 231 283 169 q 264 368 283 299 q 213 499 244 438 q 189 544 206 514 q 136 653 154 614 q 104 739 118 692 q 85 874 85 801 q 99 962 85 919 q 146 1035 114 1004 q 224 1067 181 1067 q 264 1053 240 1067 q 288 1028 288 1040 q 279 1017 288 1017 q 257 1024 271 1017 q 233 1031 244 1031 q 177 1007 201 1031 q 142 949 153 983 q 132 885 132 919 q 146 773 132 831 q 183 665 160 715 l 232 564 l 246 535 q 291 436 275 475 q 318 349 307 397 q 333 224 333 283 q 292 60 333 143 q 236 -6 271 19 q 160 -31 201 -31 m 256 1083 q 217 1292 249 1172 q 169 1158 211 1283 q 158 1111 158 1122 l 135 1079 l 108 1097 q 133 1176 110 1118 q 185 1283 157 1235 q 225 1332 213 1332 q 246 1303 246 1332 q 271 1190 246 1257 l 286 1140 l 285 1132 l 296 1111 l 294 1104 q 298 1095 296 1099 q 300 1089 300 1092 q 275 1072 300 1076 l 256 1083 z "},"Ș":{"ha":421,"x_min":68,"x_max":333,"o":"m 160 -31 q 122 -28 135 -31 q 93 -19 108 -26 q 68 4 76 -11 q 83 21 68 21 q 122 11 99 21 q 160 0 144 0 q 216 25 190 0 q 256 90 242 50 q 283 231 283 169 q 264 368 283 299 q 213 499 244 438 q 189 544 206 514 q 136 653 154 614 q 104 739 118 692 q 85 874 85 801 q 99 962 85 919 q 146 1035 114 1004 q 224 1067 181 1067 q 264 1053 240 1067 q 288 1028 288 1040 q 279 1017 288 1017 q 257 1024 271 1017 q 233 1031 244 1031 q 177 1007 201 1031 q 142 949 153 983 q 132 885 132 919 q 146 773 132 831 q 183 665 160 715 l 232 564 l 246 535 q 291 436 275 475 q 318 349 307 397 q 333 224 333 283 q 292 60 333 143 q 236 -6 271 19 q 160 -31 201 -31 m 110 -308 l 113 -296 q 151 -260 121 -290 q 181 -218 176 -231 q 185 -194 185 -208 q 156 -167 167 -183 q 144 -133 144 -150 q 160 -103 144 -115 q 197 -90 176 -90 q 243 -131 228 -90 l 240 -135 q 243 -151 243 -137 q 226 -215 243 -175 q 182 -286 208 -256 q 132 -319 157 -317 l 110 -308 z "},"Ṡ":{"ha":421,"x_min":68,"x_max":333,"o":"m 160 -31 q 122 -28 135 -31 q 93 -19 108 -26 q 68 4 76 -11 q 83 21 68 21 q 122 11 99 21 q 160 0 144 0 q 216 25 190 0 q 256 90 242 50 q 283 231 283 169 q 264 368 283 299 q 213 499 244 438 q 189 544 206 514 q 136 653 154 614 q 104 739 118 692 q 85 874 85 801 q 99 962 85 919 q 146 1035 114 1004 q 224 1067 181 1067 q 264 1053 240 1067 q 288 1028 288 1040 q 279 1017 288 1017 q 257 1024 271 1017 q 233 1031 244 1031 q 177 1007 201 1031 q 142 949 153 983 q 132 885 132 919 q 146 773 132 831 q 183 665 160 715 l 232 564 l 246 535 q 291 436 275 475 q 318 349 307 397 q 333 224 333 283 q 292 60 333 143 q 236 -6 271 19 q 160 -31 201 -31 m 207 1117 q 185 1127 194 1117 q 176 1150 176 1138 q 188 1176 176 1164 q 213 1188 199 1188 q 235 1176 225 1188 q 246 1151 246 1164 q 207 1117 246 1117 z "},"ẞ":{"ha":489,"x_min":122,"x_max":383,"o":"m 150 -8 q 125 11 125 -8 l 128 188 q 132 363 132 304 q 126 611 132 465 q 122 858 122 776 q 228 1042 122 1042 q 310 981 281 1042 q 339 824 339 921 q 317 685 339 749 q 250 579 294 621 q 349 478 314 546 q 383 321 383 411 l 383 289 q 380 204 383 236 q 365 136 376 172 q 261 18 342 58 l 250 15 q 230 22 239 15 q 221 36 221 28 q 238 60 221 47 q 292 94 264 72 q 325 133 321 117 q 344 244 344 169 l 344 251 q 319 421 344 338 q 281 500 307 465 q 222 550 256 535 q 206 564 213 554 q 200 582 200 574 q 203 594 200 589 q 211 600 206 600 q 221 603 214 603 q 276 681 249 611 q 303 807 303 751 q 281 942 303 886 q 229 994 260 994 q 165 851 165 994 q 168 726 165 782 l 171 601 l 171 549 l 174 290 l 176 33 q 151 -8 176 -8 l 150 -8 z "},"Ə":{"ha":619,"x_min":86,"x_max":532,"o":"m 296 -4 q 135 69 185 -4 q 86 297 86 142 l 86 339 q 133 516 86 454 q 274 578 181 578 l 479 578 q 481 699 481 618 q 434 912 481 833 q 303 990 388 990 q 131 928 226 990 q 108 935 115 928 q 108 944 103 940 q 224 1013 176 990 q 314 1035 271 1035 q 432 987 381 1035 q 508 857 483 939 q 532 676 532 782 l 532 424 q 526 272 532 346 q 517 198 524 229 q 496 135 510 167 q 464 73 481 97 q 419 32 447 49 q 360 1 386 11 q 296 -4 332 -4 m 315 46 q 390 87 357 46 q 442 193 422 128 q 475 390 475 308 l 475 396 q 478 533 475 444 l 269 533 q 240 532 253 533 q 213 526 226 531 q 188 513 197 522 q 167 482 179 503 q 151 440 156 465 q 142 367 146 415 q 138 272 138 324 q 176 97 138 149 q 315 46 215 46 z "},"T":{"ha":443,"x_min":7,"x_max":410,"o":"m 229 -8 q 208 2 215 -8 q 201 28 201 13 l 201 151 l 201 275 l 199 497 q 194 719 194 646 l 196 760 l 196 850 q 193 1000 196 1000 l 36 1000 q 16 1006 25 1000 q 7 1021 7 1011 q 11 1036 7 1032 q 33 1043 15 1040 q 89 1047 53 1047 l 228 1047 l 381 1049 q 403 1043 397 1049 q 410 1025 410 1038 q 383 1004 410 1004 l 321 1004 l 260 1004 l 247 1003 l 249 922 l 249 814 l 249 250 l 249 135 l 250 32 l 250 29 q 249 10 250 18 q 243 -1 247 3 q 229 -8 239 -8 z "},"Ŧ":{"ha":489,"x_min":89,"x_max":376,"o":"m 257 -8 q 235 10 243 -8 q 228 47 228 28 l 231 119 l 233 158 l 236 196 l 239 275 q 231 469 239 340 q 147 465 185 465 q 127 471 136 465 q 118 485 118 476 q 228 508 118 499 q 219 719 219 640 l 219 760 q 221 850 221 782 q 197 993 221 993 q 157 989 182 993 q 118 985 132 985 q 98 992 107 985 q 89 1008 89 999 q 178 1035 89 1022 q 328 1049 267 1049 q 348 1042 339 1049 q 357 1025 357 1035 q 331 1004 357 1004 l 304 1007 l 279 1008 q 250 994 254 1008 q 260 814 260 913 l 260 729 q 258 646 258 693 q 261 511 258 572 q 356 517 315 517 q 369 512 363 517 q 376 501 376 507 q 265 474 376 489 q 278 410 269 439 q 274 369 274 389 l 276 207 q 281 46 281 99 q 257 -8 281 -8 z "},"Ť":{"ha":443,"x_min":7,"x_max":410,"o":"m 229 -8 q 208 2 215 -8 q 201 28 201 13 l 201 151 l 201 275 l 199 497 q 194 719 194 646 l 196 760 l 196 850 q 193 1000 196 1000 l 36 1000 q 16 1006 25 1000 q 7 1021 7 1011 q 11 1036 7 1032 q 33 1043 15 1040 q 89 1047 53 1047 l 228 1047 l 381 1049 q 403 1043 397 1049 q 410 1025 410 1038 q 383 1004 410 1004 l 321 1004 l 260 1004 l 247 1003 l 249 922 l 249 814 l 249 250 l 249 135 l 250 32 l 250 29 q 249 10 250 18 q 243 -1 247 3 q 229 -8 239 -8 m 243 1089 q 203 1138 231 1089 q 151 1244 175 1186 q 126 1324 128 1303 l 153 1342 l 176 1310 q 188 1263 176 1299 q 215 1185 201 1224 q 235 1129 228 1146 q 274 1338 267 1250 l 293 1349 q 318 1332 318 1344 q 313 1317 318 1331 l 314 1310 l 303 1289 l 304 1281 l 289 1231 q 264 1118 264 1164 q 243 1089 264 1089 z "},"Ţ":{"ha":443,"x_min":7,"x_max":410,"o":"m 229 -8 q 208 2 215 -8 q 201 28 201 13 l 201 151 l 201 275 l 199 497 q 194 719 194 646 l 196 760 l 196 850 q 193 1000 196 1000 l 36 1000 q 16 1006 25 1000 q 7 1021 7 1011 q 11 1036 7 1032 q 33 1043 15 1040 q 89 1047 53 1047 l 228 1047 l 381 1049 q 403 1043 397 1049 q 410 1025 410 1038 q 383 1004 410 1004 l 321 1004 l 260 1004 l 247 1003 l 249 922 l 249 814 l 249 250 l 249 135 l 250 32 l 250 29 q 249 10 250 18 q 243 -1 247 3 q 229 -8 239 -8 m 233 -304 q 192 -294 211 -304 q 174 -267 174 -283 q 189 -253 174 -253 q 211 -260 194 -253 q 233 -267 228 -267 q 272 -238 257 -267 q 288 -171 288 -210 q 267 -108 288 -125 l 249 -111 l 229 -114 q 192 -86 208 -114 q 203 -6 203 -57 l 203 10 l 243 15 q 238 -56 238 -26 q 339 -194 339 -61 q 324 -242 339 -217 q 285 -286 310 -268 q 233 -304 260 -304 z "},"Ț":{"ha":443,"x_min":7,"x_max":410,"o":"m 229 -8 q 208 2 215 -8 q 201 28 201 13 l 201 151 l 201 275 l 199 497 q 194 719 194 646 l 196 760 l 196 850 q 193 1000 196 1000 l 36 1000 q 16 1006 25 1000 q 7 1021 7 1011 q 11 1036 7 1032 q 33 1043 15 1040 q 89 1047 53 1047 l 228 1047 l 381 1049 q 403 1043 397 1049 q 410 1025 410 1038 q 383 1004 410 1004 l 321 1004 l 260 1004 l 247 1003 l 249 922 l 249 814 l 249 250 l 249 135 l 250 32 l 250 29 q 249 10 250 18 q 243 -1 247 3 q 229 -8 239 -8 m 156 -287 l 158 -275 q 197 -239 167 -269 q 226 -197 222 -210 q 231 -174 231 -187 q 201 -146 213 -162 q 190 -112 190 -129 q 206 -82 190 -94 q 243 -69 222 -69 q 289 -110 274 -69 l 286 -114 q 289 -131 289 -117 q 272 -194 289 -154 q 228 -265 254 -235 q 178 -299 203 -296 l 156 -287 z "},"Ṫ":{"ha":443,"x_min":7,"x_max":410,"o":"m 229 -8 q 208 2 215 -8 q 201 28 201 13 l 201 151 l 201 275 l 199 497 q 194 719 194 646 l 196 760 l 196 850 q 193 1000 196 1000 l 36 1000 q 16 1006 25 1000 q 7 1021 7 1011 q 11 1036 7 1032 q 33 1043 15 1040 q 89 1047 53 1047 l 228 1047 l 381 1049 q 403 1043 397 1049 q 410 1025 410 1038 q 383 1004 410 1004 l 321 1004 l 260 1004 l 247 1003 l 249 922 l 249 814 l 249 250 l 249 135 l 250 32 l 250 29 q 249 10 250 18 q 243 -1 247 3 q 229 -8 239 -8 m 218 1117 q 197 1127 206 1117 q 188 1150 188 1138 q 199 1176 188 1164 q 224 1188 210 1188 q 247 1176 236 1188 q 257 1151 257 1164 q 218 1117 257 1117 z "},"U":{"ha":517,"x_min":75,"x_max":421,"o":"m 288 -26 q 228 -12 256 -26 q 182 24 200 1 q 150 75 164 44 q 128 136 136 106 q 107 254 114 183 l 104 297 q 103 315 104 311 q 103 321 103 319 q 85 621 96 389 q 75 982 75 853 l 75 992 l 75 1003 q 96 1039 75 1039 q 125 1006 125 1039 l 125 996 l 124 985 q 133 603 124 824 q 153 286 143 383 q 176 161 160 225 q 201 89 188 118 q 235 40 214 60 q 283 18 260 18 q 326 29 307 18 q 354 58 344 40 q 370 98 364 74 q 378 144 376 122 q 379 190 379 158 l 379 349 q 374 608 379 454 l 368 786 l 365 904 q 361 1022 361 982 q 369 1046 361 1038 q 389 1054 378 1054 q 408 1046 400 1054 q 415 1022 415 1038 l 415 917 q 417 792 415 847 l 417 667 q 419 431 417 532 q 421 200 421 328 q 418 139 421 165 q 407 83 415 113 q 384 27 399 50 q 346 -11 369 4 q 288 -26 319 -26 z "},"Ú":{"ha":517,"x_min":75,"x_max":421,"o":"m 288 -26 q 228 -12 256 -26 q 182 24 200 1 q 150 75 164 44 q 128 136 136 106 q 107 254 114 183 l 104 297 q 103 315 104 311 q 103 321 103 319 q 85 621 96 389 q 75 982 75 853 l 75 992 l 75 1003 q 96 1039 75 1039 q 125 1006 125 1039 l 125 996 l 124 985 q 133 603 124 824 q 153 286 143 383 q 176 161 160 225 q 201 89 188 118 q 235 40 214 60 q 283 18 260 18 q 326 29 307 18 q 354 58 344 40 q 370 98 364 74 q 378 144 376 122 q 379 190 379 158 l 379 349 q 374 608 379 454 l 368 786 l 365 904 q 361 1022 361 982 q 369 1046 361 1038 q 389 1054 378 1054 q 408 1046 400 1054 q 415 1022 415 1038 l 415 917 q 417 792 415 847 l 417 667 q 419 431 417 532 q 421 200 421 328 q 418 139 421 165 q 407 83 415 113 q 384 27 399 50 q 346 -11 369 4 q 288 -26 319 -26 m 215 1113 q 198 1118 206 1113 q 190 1132 190 1124 q 229 1168 190 1136 l 274 1204 l 311 1233 q 363 1274 358 1269 q 393 1253 393 1274 l 389 1231 q 215 1113 317 1197 z "},"Ŭ":{"ha":517,"x_min":75,"x_max":421,"o":"m 288 -26 q 228 -12 256 -26 q 182 24 200 1 q 150 75 164 44 q 128 136 136 106 q 107 254 114 183 l 104 297 q 103 315 104 311 q 103 321 103 319 q 85 621 96 389 q 75 982 75 853 l 75 992 l 75 1003 q 96 1039 75 1039 q 125 1006 125 1039 l 125 996 l 124 985 q 133 603 124 824 q 153 286 143 383 q 176 161 160 225 q 201 89 188 118 q 235 40 214 60 q 283 18 260 18 q 326 29 307 18 q 354 58 344 40 q 370 98 364 74 q 378 144 376 122 q 379 190 379 158 l 379 349 q 374 608 379 454 l 368 786 l 365 904 q 361 1022 361 982 q 369 1046 361 1038 q 389 1054 378 1054 q 408 1046 400 1054 q 415 1022 415 1038 l 415 917 q 417 792 415 847 l 417 667 q 419 431 417 532 q 421 200 421 328 q 418 139 421 165 q 407 83 415 113 q 384 27 399 50 q 346 -11 369 4 q 288 -26 319 -26 m 215 1100 q 135 1147 160 1100 q 114 1242 114 1192 l 129 1254 q 143 1232 139 1251 q 178 1143 154 1160 l 193 1132 l 228 1132 q 260 1156 244 1132 q 275 1203 275 1181 l 275 1213 q 274 1222 274 1217 q 299 1249 274 1249 q 313 1242 306 1249 q 319 1229 319 1236 l 317 1217 l 313 1207 l 315 1197 q 311 1187 314 1193 q 306 1174 308 1181 q 282 1131 292 1143 q 267 1114 275 1119 q 246 1104 260 1108 q 215 1100 231 1100 z "},"Ǔ":{"ha":517,"x_min":75,"x_max":421,"o":"m 288 -26 q 228 -12 256 -26 q 182 24 200 1 q 150 75 164 44 q 128 136 136 106 q 107 254 114 183 l 104 297 q 103 315 104 311 q 103 321 103 319 q 85 621 96 389 q 75 982 75 853 l 75 992 l 75 1003 q 96 1039 75 1039 q 125 1006 125 1039 l 125 996 l 124 985 q 133 603 124 824 q 153 286 143 383 q 176 161 160 225 q 201 89 188 118 q 235 40 214 60 q 283 18 260 18 q 326 29 307 18 q 354 58 344 40 q 370 98 364 74 q 378 144 376 122 q 379 190 379 158 l 379 349 q 374 608 379 454 l 368 786 l 365 904 q 361 1022 361 982 q 369 1046 361 1038 q 389 1054 378 1054 q 408 1046 400 1054 q 415 1022 415 1038 l 415 917 q 417 792 415 847 l 417 667 q 419 431 417 532 q 421 200 421 328 q 418 139 421 165 q 407 83 415 113 q 384 27 399 50 q 346 -11 369 4 q 288 -26 319 -26 m 239 1089 q 199 1138 226 1089 q 147 1244 171 1186 q 122 1324 124 1303 l 149 1342 l 172 1310 q 183 1263 172 1299 q 210 1185 197 1224 q 231 1129 224 1146 q 269 1338 263 1250 l 289 1349 q 314 1332 314 1344 q 308 1317 314 1331 l 310 1310 l 299 1289 l 300 1281 l 285 1231 q 260 1118 260 1164 q 239 1089 260 1089 z "},"Û":{"ha":517,"x_min":75,"x_max":421,"o":"m 288 -26 q 228 -12 256 -26 q 182 24 200 1 q 150 75 164 44 q 128 136 136 106 q 107 254 114 183 l 104 297 q 103 315 104 311 q 103 321 103 319 q 85 621 96 389 q 75 982 75 853 l 75 992 l 75 1003 q 96 1039 75 1039 q 125 1006 125 1039 l 125 996 l 124 985 q 133 603 124 824 q 153 286 143 383 q 176 161 160 225 q 201 89 188 118 q 235 40 214 60 q 283 18 260 18 q 326 29 307 18 q 354 58 344 40 q 370 98 364 74 q 378 144 376 122 q 379 190 379 158 l 379 349 q 374 608 379 454 l 368 786 l 365 904 q 361 1022 361 982 q 369 1046 361 1038 q 389 1054 378 1054 q 408 1046 400 1054 q 415 1022 415 1038 l 415 917 q 417 792 415 847 l 417 667 q 419 431 417 532 q 421 200 421 328 q 418 139 421 165 q 407 83 415 113 q 384 27 399 50 q 346 -11 369 4 q 288 -26 319 -26 m 263 1083 q 224 1292 256 1172 q 176 1158 218 1283 q 165 1111 165 1122 l 142 1079 l 115 1097 q 140 1176 117 1118 q 192 1283 164 1235 q 232 1332 219 1332 q 253 1303 253 1332 q 278 1190 253 1257 l 293 1140 l 292 1132 l 303 1111 l 301 1104 q 305 1095 303 1099 q 307 1089 307 1092 q 282 1072 307 1076 l 263 1083 z "},"Ȕ":{"ha":517,"x_min":-101,"x_max":421,"o":"m 288 -26 q 228 -12 256 -26 q 182 24 200 1 q 150 75 164 44 q 128 136 136 106 q 107 254 114 183 l 104 297 q 103 315 104 311 q 103 321 103 319 q 85 621 96 389 q 75 982 75 853 l 75 992 l 75 1003 q 96 1039 75 1039 q 125 1006 125 1039 l 125 996 l 124 985 q 133 603 124 824 q 153 286 143 383 q 176 161 160 225 q 201 89 188 118 q 235 40 214 60 q 283 18 260 18 q 326 29 307 18 q 354 58 344 40 q 370 98 364 74 q 378 144 376 122 q 379 190 379 158 l 379 349 q 374 608 379 454 l 368 786 l 365 904 q 361 1022 361 982 q 369 1046 361 1038 q 389 1054 378 1054 q 408 1046 400 1054 q 415 1022 415 1038 l 415 917 q 417 792 415 847 l 417 667 q 419 431 417 532 q 421 200 421 328 q 418 139 421 165 q 407 83 415 113 q 384 27 399 50 q 346 -11 369 4 q 288 -26 319 -26 m 335 1093 q 276 1124 311 1097 q 228 1154 246 1146 q 103 1253 189 1182 q 93 1267 93 1257 q 99 1280 93 1272 q 108 1288 106 1288 q 174 1244 117 1288 q 285 1156 231 1201 q 340 1100 339 1110 l 335 1093 m 158 1096 q 131 1111 154 1096 q 81 1144 106 1126 l 46 1165 l -29 1203 l -101 1243 q -90 1265 -99 1254 q -72 1276 -81 1276 q 6 1236 -62 1276 q 100 1168 32 1219 q 167 1107 167 1117 q 158 1096 167 1096 z "},"Ü":{"ha":517,"x_min":75,"x_max":421,"o":"m 288 -26 q 228 -12 256 -26 q 182 24 200 1 q 150 75 164 44 q 128 136 136 106 q 107 254 114 183 l 104 297 q 103 315 104 311 q 103 321 103 319 q 85 621 96 389 q 75 982 75 853 l 75 992 l 75 1003 q 96 1039 75 1039 q 125 1006 125 1039 l 125 996 l 124 985 q 133 603 124 824 q 153 286 143 383 q 176 161 160 225 q 201 89 188 118 q 235 40 214 60 q 283 18 260 18 q 326 29 307 18 q 354 58 344 40 q 370 98 364 74 q 378 144 376 122 q 379 190 379 158 l 379 349 q 374 608 379 454 l 368 786 l 365 904 q 361 1022 361 982 q 369 1046 361 1038 q 389 1054 378 1054 q 408 1046 400 1054 q 415 1022 415 1038 l 415 917 q 417 792 415 847 l 417 667 q 419 431 417 532 q 421 200 421 328 q 418 139 421 165 q 407 83 415 113 q 384 27 399 50 q 346 -11 369 4 q 288 -26 319 -26 m 308 1124 q 289 1133 297 1124 q 281 1154 281 1143 q 291 1178 281 1167 q 314 1189 301 1189 q 335 1178 326 1189 q 344 1156 344 1167 q 308 1124 344 1124 m 124 1118 q 105 1129 113 1118 q 97 1153 97 1140 q 108 1176 97 1165 q 131 1188 118 1188 q 151 1174 144 1188 q 158 1142 158 1160 q 148 1124 158 1131 q 124 1118 138 1118 z "},"Ụ":{"ha":517,"x_min":75,"x_max":421,"o":"m 288 -26 q 228 -12 256 -26 q 182 24 200 1 q 150 75 164 44 q 128 136 136 106 q 107 254 114 183 l 104 297 q 103 315 104 311 q 103 321 103 319 q 85 621 96 389 q 75 982 75 853 l 75 992 l 75 1003 q 96 1039 75 1039 q 125 1006 125 1039 l 125 996 l 124 985 q 133 603 124 824 q 153 286 143 383 q 176 161 160 225 q 201 89 188 118 q 235 40 214 60 q 283 18 260 18 q 326 29 307 18 q 354 58 344 40 q 370 98 364 74 q 378 144 376 122 q 379 190 379 158 l 379 349 q 374 608 379 454 l 368 786 l 365 904 q 361 1022 361 982 q 369 1046 361 1038 q 389 1054 378 1054 q 408 1046 400 1054 q 415 1022 415 1038 l 415 917 q 417 792 415 847 l 417 667 q 419 431 417 532 q 421 200 421 328 q 418 139 421 165 q 407 83 415 113 q 384 27 399 50 q 346 -11 369 4 q 288 -26 319 -26 m 254 -162 q 233 -152 242 -162 q 224 -129 224 -142 q 235 -103 224 -115 q 260 -92 246 -92 q 283 -103 272 -92 q 293 -128 293 -115 q 254 -162 293 -162 z "},"Ù":{"ha":517,"x_min":75,"x_max":421,"o":"m 288 -26 q 228 -12 256 -26 q 182 24 200 1 q 150 75 164 44 q 128 136 136 106 q 107 254 114 183 l 104 297 q 103 315 104 311 q 103 321 103 319 q 85 621 96 389 q 75 982 75 853 l 75 992 l 75 1003 q 96 1039 75 1039 q 125 1006 125 1039 l 125 996 l 124 985 q 133 603 124 824 q 153 286 143 383 q 176 161 160 225 q 201 89 188 118 q 235 40 214 60 q 283 18 260 18 q 326 29 307 18 q 354 58 344 40 q 370 98 364 74 q 378 144 376 122 q 379 190 379 158 l 379 349 q 374 608 379 454 l 368 786 l 365 904 q 361 1022 361 982 q 369 1046 361 1038 q 389 1054 378 1054 q 408 1046 400 1054 q 415 1022 415 1038 l 415 917 q 417 792 415 847 l 417 667 q 419 431 417 532 q 421 200 421 328 q 418 139 421 165 q 407 83 415 113 q 384 27 399 50 q 346 -11 369 4 q 288 -26 319 -26 m 269 1074 q 206 1109 249 1085 q 139 1147 163 1133 l 117 1149 q 75 1181 75 1157 q 89 1214 75 1204 l 97 1211 q 147 1188 139 1206 q 164 1179 147 1186 l 214 1149 q 265 1113 244 1129 q 288 1083 288 1094 q 269 1074 288 1074 z "},"Ủ":{"ha":517,"x_min":75,"x_max":421,"o":"m 288 -26 q 228 -12 256 -26 q 182 24 200 1 q 150 75 164 44 q 128 136 136 106 q 107 254 114 183 l 104 297 q 103 315 104 311 q 103 321 103 319 q 85 621 96 389 q 75 982 75 853 l 75 992 l 75 1003 q 96 1039 75 1039 q 125 1006 125 1039 l 125 996 l 124 985 q 133 603 124 824 q 153 286 143 383 q 176 161 160 225 q 201 89 188 118 q 235 40 214 60 q 283 18 260 18 q 326 29 307 18 q 354 58 344 40 q 370 98 364 74 q 378 144 376 122 q 379 190 379 158 l 379 349 q 374 608 379 454 l 368 786 l 365 904 q 361 1022 361 982 q 369 1046 361 1038 q 389 1054 378 1054 q 408 1046 400 1054 q 415 1022 415 1038 l 415 917 q 417 792 415 847 l 417 667 q 419 431 417 532 q 421 200 421 328 q 418 139 421 165 q 407 83 415 113 q 384 27 399 50 q 346 -11 369 4 q 288 -26 319 -26 m 225 1067 q 210 1083 211 1067 l 210 1090 q 218 1108 210 1100 q 242 1126 226 1117 q 253 1135 244 1128 q 267 1147 263 1142 q 271 1158 271 1153 q 226 1185 271 1185 q 188 1178 200 1185 q 175 1156 175 1172 q 178 1138 175 1151 q 164 1135 169 1135 q 144 1158 144 1135 q 165 1197 144 1181 q 226 1213 185 1213 q 288 1199 269 1213 q 306 1158 306 1185 q 297 1137 306 1146 q 269 1114 289 1128 q 249 1098 256 1104 q 242 1085 242 1092 l 242 1075 q 225 1067 233 1067 z "},"Ư":{"ha":550,"x_min":75,"x_max":519,"o":"m 288 -26 q 228 -12 256 -26 q 182 24 200 1 q 150 75 164 44 q 128 136 136 106 q 107 254 114 183 l 104 297 q 103 315 104 311 q 103 321 103 319 q 85 621 96 389 q 75 982 75 853 l 75 992 l 75 1003 q 96 1039 75 1039 q 125 1006 125 1039 l 125 996 l 124 985 q 133 603 124 824 q 153 286 143 383 q 176 161 160 225 q 201 89 188 118 q 235 40 214 60 q 283 18 260 18 q 326 29 307 18 q 354 58 344 40 q 370 98 364 74 q 378 144 376 122 q 379 190 379 158 l 379 349 q 374 608 379 454 l 368 786 l 365 904 q 361 1022 361 982 q 369 1046 361 1038 q 389 1054 378 1054 q 408 1046 400 1054 q 415 1022 415 1038 l 415 917 q 417 792 415 847 l 417 667 q 419 431 417 532 q 421 200 421 328 q 418 139 421 165 q 407 83 415 113 q 384 27 399 50 q 346 -11 369 4 q 288 -26 319 -26 m 439 1001 q 394 1013 408 1001 l 394 1042 q 426 1033 408 1033 q 456 1046 444 1033 q 467 1078 467 1058 q 461 1108 467 1090 q 456 1131 456 1125 q 481 1156 456 1156 q 519 1099 519 1156 q 494 1028 519 1054 q 439 1001 469 1001 z "},"Ứ":{"ha":550,"x_min":75,"x_max":519,"o":"m 288 -26 q 228 -12 256 -26 q 182 24 200 1 q 150 75 164 44 q 128 136 136 106 q 107 254 114 183 l 104 297 q 103 315 104 311 q 103 321 103 319 q 85 621 96 389 q 75 982 75 853 l 75 992 l 75 1003 q 96 1039 75 1039 q 125 1006 125 1039 l 125 996 l 124 985 q 133 603 124 824 q 153 286 143 383 q 176 161 160 225 q 201 89 188 118 q 235 40 214 60 q 283 18 260 18 q 326 29 307 18 q 354 58 344 40 q 370 98 364 74 q 378 144 376 122 q 379 190 379 158 l 379 349 q 374 608 379 454 l 368 786 l 365 904 q 361 1022 361 982 q 369 1046 361 1038 q 389 1054 378 1054 q 408 1046 400 1054 q 415 1022 415 1038 l 415 917 q 417 792 415 847 l 417 667 q 419 431 417 532 q 421 200 421 328 q 418 139 421 165 q 407 83 415 113 q 384 27 399 50 q 346 -11 369 4 q 288 -26 319 -26 m 439 1001 q 394 1013 408 1001 l 394 1042 q 426 1033 408 1033 q 456 1046 444 1033 q 467 1078 467 1058 q 461 1108 467 1090 q 456 1131 456 1125 q 481 1156 456 1156 q 519 1099 519 1156 q 494 1028 519 1054 q 439 1001 469 1001 m 215 1113 q 198 1118 206 1113 q 190 1132 190 1124 q 229 1168 190 1136 l 274 1204 l 311 1233 q 363 1274 358 1269 q 393 1253 393 1274 l 389 1231 q 215 1113 317 1197 z "},"Ự":{"ha":550,"x_min":75,"x_max":519,"o":"m 288 -26 q 228 -12 256 -26 q 182 24 200 1 q 150 75 164 44 q 128 136 136 106 q 107 254 114 183 l 104 297 q 103 315 104 311 q 103 321 103 319 q 85 621 96 389 q 75 982 75 853 l 75 992 l 75 1003 q 96 1039 75 1039 q 125 1006 125 1039 l 125 996 l 124 985 q 133 603 124 824 q 153 286 143 383 q 176 161 160 225 q 201 89 188 118 q 235 40 214 60 q 283 18 260 18 q 326 29 307 18 q 354 58 344 40 q 370 98 364 74 q 378 144 376 122 q 379 190 379 158 l 379 349 q 374 608 379 454 l 368 786 l 365 904 q 361 1022 361 982 q 369 1046 361 1038 q 389 1054 378 1054 q 408 1046 400 1054 q 415 1022 415 1038 l 415 917 q 417 792 415 847 l 417 667 q 419 431 417 532 q 421 200 421 328 q 418 139 421 165 q 407 83 415 113 q 384 27 399 50 q 346 -11 369 4 q 288 -26 319 -26 m 439 1001 q 394 1013 408 1001 l 394 1042 q 426 1033 408 1033 q 456 1046 444 1033 q 467 1078 467 1058 q 461 1108 467 1090 q 456 1131 456 1125 q 481 1156 456 1156 q 519 1099 519 1156 q 494 1028 519 1054 q 439 1001 469 1001 m 254 -162 q 233 -152 242 -162 q 224 -129 224 -142 q 235 -103 224 -115 q 260 -92 246 -92 q 283 -103 272 -92 q 293 -128 293 -115 q 254 -162 293 -162 z "},"Ừ":{"ha":550,"x_min":75,"x_max":519,"o":"m 288 -26 q 228 -12 256 -26 q 182 24 200 1 q 150 75 164 44 q 128 136 136 106 q 107 254 114 183 l 104 297 q 103 315 104 311 q 103 321 103 319 q 85 621 96 389 q 75 982 75 853 l 75 992 l 75 1003 q 96 1039 75 1039 q 125 1006 125 1039 l 125 996 l 124 985 q 133 603 124 824 q 153 286 143 383 q 176 161 160 225 q 201 89 188 118 q 235 40 214 60 q 283 18 260 18 q 326 29 307 18 q 354 58 344 40 q 370 98 364 74 q 378 144 376 122 q 379 190 379 158 l 379 349 q 374 608 379 454 l 368 786 l 365 904 q 361 1022 361 982 q 369 1046 361 1038 q 389 1054 378 1054 q 408 1046 400 1054 q 415 1022 415 1038 l 415 917 q 417 792 415 847 l 417 667 q 419 431 417 532 q 421 200 421 328 q 418 139 421 165 q 407 83 415 113 q 384 27 399 50 q 346 -11 369 4 q 288 -26 319 -26 m 439 1001 q 394 1013 408 1001 l 394 1042 q 426 1033 408 1033 q 456 1046 444 1033 q 467 1078 467 1058 q 461 1108 467 1090 q 456 1131 456 1125 q 481 1156 456 1156 q 519 1099 519 1156 q 494 1028 519 1054 q 439 1001 469 1001 m 269 1074 q 206 1109 249 1085 q 139 1147 163 1133 l 117 1149 q 75 1181 75 1157 q 89 1214 75 1204 l 97 1211 q 147 1188 139 1206 q 164 1179 147 1186 l 214 1149 q 265 1113 244 1129 q 288 1083 288 1094 q 269 1074 288 1074 z "}}}
